<svg width="345" height="283" viewBox="0 0 345 283" fill="none" xmlns="http://www.w3.org/2000/svg">
<path d="M24.413 100.845C21.1534 101.207 19.9027 104.332 20.0631 107.059C20.1231 108.079 21.7643 109.808 22.5488 110.408C24.1587 111.639 26.0456 112.652 28.1415 112.652C32.2752 112.652 36.7766 112.723 40.8804 113.343C45.0359 113.97 49.0861 113.895 53.3086 113.895C55.8502 113.895 58.5451 114.159 61.0762 113.878C64.4436 113.503 67.7744 112.61 71.1741 112.359C75.2023 112.06 78.4672 110.932 82.2732 109.614C84.0761 108.99 85.7879 108.15 87.4862 107.301C88.8135 106.637 90.3796 106.16 91.5253 105.195C92.9394 104.004 94.0201 103.164 95.1848 101.708C95.3896 101.452 95.9665 100.245 95.4955 100.535C93.5569 101.728 91.0302 102.504 88.8671 103.176C84.7095 104.466 80.6308 105.977 76.249 106.438C72.1379 106.871 67.9928 107.612 63.8898 108.164C60.6421 108.601 57.3444 108.767 54.0681 108.906C45.2791 109.28 36.5756 107.538 28.3141 105.178C27.7694 105.022 26.701 103.529 26.5879 103.02C26.2468 101.485 26.8685 100.282 27.1921 98.8257C27.3789 97.9852 27.5925 97.9838 28.4694 97.6001C28.6988 97.4998 30.2391 97.1755 30.3164 97.2722C31.1504 98.3147 32.0988 99.2975 32.9401 100.379C33.3023 100.845 33.5215 101.777 34.2002 101.777C35.0676 101.777 36.3559 102.49 37.221 102.779C38.9627 103.359 40.3679 104.502 42.0542 105.126C44.3859 105.99 46.8144 106.127 49.2694 106.127C51.9595 106.127 54.9368 106.5 57.5894 106.058C59.0131 105.821 60.5778 106.001 61.9393 105.506C63.5065 104.936 65.3345 105.195 66.9796 105.195C68.6777 105.195 70.3058 104.884 71.9854 104.884C75.6018 104.884 79.1251 104.531 82.6875 104.246C84.8318 104.074 86.9261 103.029 89.0397 102.727C90.871 102.465 92.5514 102.876 94.3217 102.243C94.8269 102.063 97.8116 100.726 96.1859 99.9132" stroke="#D7BC5C" stroke-width="8" stroke-linecap="round"/>
<path d="M28.4971 115.362C30.5151 115.429 32.5389 115.918 34.5599 115.954C37.5249 116.007 40.4435 115.553 43.3995 115.395C46.5558 115.227 49.7783 115.329 52.9291 115.543C54.3135 115.637 55.7053 115.718 57.0942 115.65C57.5411 115.628 58.209 115.521 58.5154 115.214" stroke="#D7BC5C" stroke-width="8" stroke-linecap="round"/>
<path d="M257.613 85.4521C256.215 85.4521 254.816 85.4521 253.418 85.4521C252.209 85.4521 249.67 85.2332 248.699 85.9881C247.14 87.2005 247.533 90.6587 248.128 92.3267C248.274 92.7342 248.711 93.3302 248.711 93.7482C248.711 94.134 247.259 93.2789 247.173 93.2122C246.114 92.3884 246.003 91.3251 245.67 90.1594C245.281 88.7974 246.271 93.0177 247.115 94.156C248.425 95.9245 250.209 97.4032 252.323 98.0826C253.637 98.505 254.851 98.6769 256.191 98.4089C259.14 97.8191 262.14 98.0437 265.105 97.7214C265.401 97.6893 268.398 97.6952 267.552 96.6611C266.491 95.365 264.344 94.7993 262.856 94.2725C260.388 93.3983 257.727 92.2463 255.096 92.0004C253.839 91.8829 251.103 92.5997 251.834 90.276C252.361 88.5968 255.447 88.1265 256.89 88.0155C259.24 87.8348 261.642 87.9689 263.998 87.9689C267.648 87.9689 271.286 87.8149 274.916 87.4446C277.356 87.1955 280.682 87.8649 282.781 86.291" stroke="#D7BC5C" stroke-width="8" stroke-linecap="round"/>
<path d="M267.89 98.875C270.402 98.5959 272.542 97.5587 274.822 96.5912C277.009 95.6637 279.43 94.9011 281.697 94.1677C285.833 92.8297 289.85 91.439 294.083 90.3808C295.972 89.9086 297.681 89.5961 299.454 88.6913C300.874 87.9669 302.292 87.2584 303.742 86.6057C304.979 86.0489 306.333 85.1539 306.9 83.8791C307.389 82.7779 307.739 81.8957 307.739 80.6283C307.739 78.9089 307.739 77.2159 307.739 75.4899C307.739 73.9064 304.694 73.4674 303.556 73.1828C302.671 72.9615 300.991 72.0893 300.293 72.7866C298.444 74.6355 301.181 77.4291 302.076 78.9038C303.873 81.8636 299.655 83.5535 297.625 84.2403C292.079 86.1168 286.758 88.675 281.056 90.1128C277.624 90.9783 274.706 93.3322 271.222 94.0045C270.269 94.1885 271.269 93.6312 271.572 93.4453C273.604 92.1974 275.703 91.1369 277.887 90.1828C282.865 88.0077 288.449 86.3716 292.638 82.7722C294.086 81.5282 295.626 80.3513 297.136 79.1835C298.675 77.9927 296.111 79.7438 295.574 79.9525C293.51 80.7554 291.55 81.8214 289.492 82.679C287.404 83.5488 285.148 84.23 283.153 85.289C281.182 86.3355 279.044 86.4151 276.862 86.7105C275.145 86.9429 273.401 87.3397 271.665 87.3397" stroke="#D7BC5C" stroke-width="8" stroke-linecap="round"/>
<path d="M165.577 248.987C165.595 248.863 166.222 249.046 166.415 248.95C166.711 248.802 165.72 248.816 165.614 248.82C165.264 248.833 164.952 248.987 164.572 248.987C163.585 248.987 165.03 248.775 165.344 248.633C166.229 248.234 168.693 247.356 167.681 246.055C166.739 244.844 171.488 244.312 172.373 244.165C173.181 244.03 173.985 244.177 174.793 243.997C175.26 243.894 175.862 243.793 176.339 243.793C178.109 243.793 180.039 243.295 181.756 242.88C183.825 242.381 186.229 242.62 188.366 242.62" stroke="#E6F535" stroke-width="8" stroke-linecap="round"/>
<path d="M167.266 249.152C167.007 249.074 166.694 248.601 166.513 248.395C166.308 248.16 166.228 247.826 166.114 247.544C166.015 247.301 165.526 246.697 165.598 246.949C165.864 247.882 166.373 248.904 166.913 249.701C167.478 250.534 168.308 250.911 169.19 251.327C170.056 251.736 171.37 251.34 172.243 251.113C173.726 250.729 175.327 250.495 176.844 250.24C178.624 249.939 180.313 249.437 181.942 248.65C182.701 248.284 183.701 248.033 184.335 247.479C184.672 247.184 185.383 246.964 185.585 246.559" stroke="#E6F535" stroke-width="8" stroke-linecap="round"/>
<path d="M163.167 252.08C164.296 252.08 165.491 252.301 166.597 252.08" stroke="#E6F535" stroke-width="8" stroke-linecap="round"/>
<path d="M144.059 254.183C144.881 254.183 143.248 254.468 143.043 254.496C141.34 254.732 139.503 254.622 137.782 254.691C136.577 254.739 135.346 254.843 134.164 255.087C132.855 255.358 131.533 255.373 130.226 255.623C128.805 255.895 126.994 255.932 125.772 256.82C124.956 257.414 124.443 258.437 123.643 258.97C122.926 259.448 122.283 260.669 122.015 261.447C121.363 263.332 122.223 265.545 122.641 267.404C123.014 269.062 123.784 270.446 125.327 271.217C127.078 272.093 128.896 272.958 130.727 273.652C132.427 274.297 134.282 274.271 136.05 274.529C136.963 274.662 137.907 274.716 138.826 274.821C139.225 274.867 139.584 274.927 139.967 275.044C140.218 275.12 140.2 274.849 140.399 274.738C140.939 274.435 141.908 274.579 142.507 274.606C143.504 274.65 144.581 274.785 145.562 274.975C147.037 275.26 148.544 275.548 150.043 275.698C150.801 275.774 151.566 275.691 152.325 275.733C153.06 275.774 153.788 275.958 154.524 275.977C155.093 275.991 155.635 276.102 156.208 276.102C156.295 276.102 155.554 275.89 155.401 275.851C154.466 275.614 153.551 275.305 152.646 274.968C151.588 274.574 150.541 273.943 149.438 273.722C147.029 273.24 143.865 272.102 143.001 269.589C142.311 267.58 142.201 265.297 141.707 263.229C141.32 261.609 140.677 260.144 140.677 258.441C140.677 257.566 141.013 257.084 141.623 256.437C142.148 255.882 142.7 255.321 143.377 254.934C143.78 254.704 143.488 254.871 143.307 255.087C142.841 255.646 142.326 256.079 141.797 256.577C140.785 257.529 139.748 258.443 138.729 259.381C137.095 260.883 134.949 261.338 132.828 261.67C131.123 261.937 128.773 262.001 128.556 264.328C128.416 265.824 130.882 266.957 131.909 267.501C133.254 268.214 134.681 268.675 136.168 268.962C137.268 269.175 137.752 268.782 138.019 267.613C138.118 267.177 138.528 265.282 137.922 265.08" stroke="#E2D664" stroke-width="8" stroke-linecap="round"/>
<path d="M146.188 268.837C146.623 269.224 146.957 269.768 147.441 270.09" stroke="#E2D664" stroke-width="8" stroke-linecap="round"/>
<path d="M140.802 278.106C143.412 277.879 146.071 277.48 148.693 277.48" stroke="#E2D664" stroke-width="8" stroke-linecap="round"/>
<path d="M158.964 276.728C162.488 276.728 166.07 276.979 169.617 276.979C170.659 276.979 171.672 276.603 172.679 276.603C174.149 276.603 175.676 276.754 177.084 276.429C178.44 276.116 180.059 276.352 181.446 276.352C183.358 276.352 185.207 276.032 187.104 275.823C190.814 275.416 194.521 274.908 198.223 274.501C201.027 274.193 203.94 273.54 206.657 272.776C209 272.117 211.455 272.192 213.824 271.718" stroke="#E2D664" stroke-width="8" stroke-linecap="round"/>
<path d="M194.159 271.969C195.439 271.969 196.646 272.061 197.847 271.565C199.683 270.807 201.381 269.764 203.226 269.032C205.429 268.158 207.823 268.706 210.08 268.016C211.33 267.635 212.287 267.054 213.295 266.235C213.77 265.849 214.248 265.469 214.715 265.073C215.078 264.764 215.827 264.444 216.057 264.022C216.238 263.691 215.402 263.452 215.174 263.452C214.279 263.452 213.303 264.138 212.564 264.593C211.928 264.985 211.315 265.418 210.693 265.831C210.579 265.907 209.799 266.445 209.865 266.437C211.176 266.273 212.927 264.396 213.114 263.131C213.127 263.047 213.015 262.569 213.038 262.554C213.425 262.296 213.614 261.851 213.824 261.455C214.106 260.921 214.463 260.358 214.673 259.791C215.457 257.675 215.407 255.549 214.353 253.557C214.173 253.217 213.791 253.14 213.573 252.868C213.425 252.682 212.321 252.151 213.239 252.381C214.218 252.625 215.212 252.91 216.176 253.209C216.738 253.383 217.332 253.419 217.888 253.619C218.497 253.839 219.132 254.05 219.766 254.183C220.672 254.373 221.646 254.308 222.522 254.559C223.88 254.947 225.269 255.605 226.662 255.811C227.617 255.953 228.933 256.169 229.793 256.632C230.65 257.094 231.072 257.639 231.672 258.372C232.07 258.858 232.618 259.205 232.925 259.757C233.821 261.37 233.864 263.265 233.864 265.052C233.864 266.221 233.372 266.722 232.584 267.432C232.212 267.766 231.439 268.039 230.983 268.267C230.322 268.597 229.604 268.862 228.882 268.99C227.865 269.171 226.866 269.745 225.862 270.027C225.013 270.266 224.197 270.626 223.336 270.841C221.539 271.291 219.68 271.533 217.888 272.038C214.837 272.899 211.852 273.906 208.716 274.376C207.7 274.529 206.707 274.695 205.683 274.724C205.288 274.735 204.911 274.849 204.5 274.849C203.775 274.849 205.53 274.121 205.696 274.042C207.936 272.975 210.303 272.232 212.544 271.161C214.538 270.209 216.448 269.102 218.458 268.183C219.591 267.665 220.647 267 221.749 266.423C223.15 265.689 224.63 265.109 226.05 264.412C226.994 263.948 228.415 263.494 228.701 262.352C228.902 261.547 226.369 261.02 225.945 260.884C224.298 260.354 222.512 259.912 220.768 259.945C220.349 259.952 219.656 260.344 219.85 260.877C220.066 261.472 221.771 261.322 222.216 261.322" stroke="#E2D664" stroke-width="8" stroke-linecap="round"/>
<path d="M157.541 255.372C157.522 255.222 154.557 256.503 154.122 256.767C153.579 257.095 153.023 257.485 152.581 257.903C152.146 258.313 151.543 258.621 151.343 259.196C150.99 260.217 151.412 261.128 151.467 262.154C151.526 263.236 152.735 263.482 153.312 264.224C154.57 265.842 156.379 265.407 158.047 266.181C159.054 266.649 160.29 266.639 161.354 266.918C161.66 266.998 161.965 267.091 162.276 267.149C162.434 267.178 162.262 267.11 162.198 267.137C162.081 267.186 161.911 267.355 161.815 267.441C161.64 267.599 160.298 267 159.948 266.935C159.366 266.827 158.707 266.71 158.115 266.71C157.808 266.71 157.591 266.454 157.338 266.327C157.117 266.217 155.94 265.713 155.966 265.45C156.009 265.021 156.633 264.492 156.877 264.179C157.301 263.636 157.602 263.004 158.092 262.514C158.694 261.913 159.284 261.358 159.97 260.838C160.471 260.459 160.726 260.231 161.348 260.231C162.104 260.231 163.031 260.373 163.772 260.209C163.948 260.169 164.035 260.107 163.845 260.017C162.912 259.578 161.961 259.291 160.972 258.994C160.297 258.791 160.647 259.8 160.724 260.175C160.989 261.468 161.426 262.747 161.871 263.988C162.292 265.161 162.87 266.23 164.02 266.85C165.559 267.682 167.473 267.781 169.182 267.902C169.909 267.954 170.647 267.959 171.37 268.031C171.627 268.057 170.678 268.548 170.588 268.571C169.802 268.776 168.974 268.728 168.17 268.734C167.659 268.739 166.742 268.918 167.821 268.712C170.331 268.233 172.914 268.312 175.408 267.717C176.714 267.405 178.012 267.033 179.306 266.71" stroke="#D7BC5C" stroke-width="8" stroke-linecap="round"/>
<path d="M149.24 260.535C149.24 260.332 149.24 260.13 149.24 259.927C149.24 259.61 149.344 260.073 149.364 260.141C149.601 260.947 149.94 261.666 150.455 262.334C151.667 263.906 153.477 264.706 155.292 265.371C156.243 265.72 157.231 265.924 158.115 266.412C158.833 266.808 159.538 267.062 160.224 267.52C160.85 267.937 161.551 268.293 162.248 268.577C163.242 268.982 164.273 269.139 165.336 269.139" stroke="#D7BC5C" stroke-width="8" stroke-linecap="round"/>
<path d="M153.694 267.925C155.361 268.453 157.016 268.821 158.756 268.937" stroke="#D7BC5C" stroke-width="8" stroke-linecap="round"/>
<path d="M161.995 258.308C162.985 260.04 165.17 261.117 167.012 261.626C168.777 262.113 170.671 262.153 172.467 261.828C173.984 261.554 175.34 261.256 176.752 260.636C177.459 260.326 178.22 260.082 178.963 259.882C181.495 259.203 184.077 258.712 186.572 257.88C187.802 257.47 188.8 256.597 189.682 255.715C189.978 255.418 190.01 255.104 190.447 254.871C191.341 254.394 192.437 254.416 193.399 254.157C194.502 253.861 195.526 253.335 196.678 253.499C198.506 253.76 200.486 253.393 202.285 253.831C203.204 254.055 204.135 254.747 204.866 255.316C205.743 255.997 205.826 257.794 204.939 258.51C204.586 258.796 204.468 259.201 204.006 259.342C203.538 259.485 203.24 260.002 202.791 260.13C202.449 260.228 202.109 260.535 201.773 260.687C201.301 260.899 200.833 261.108 200.384 261.367C197.627 262.96 194.686 264.488 191.555 265.191C189.185 265.724 186.832 266.394 184.468 266.963C182.66 267.398 180.883 267.81 179.109 268.375C178.065 268.707 176.84 268.955 175.864 269.443" stroke="#D7BC5C" stroke-width="8" stroke-linecap="round"/>
<path d="M182.343 264.584C186.413 263.83 190.116 261.753 194.187 260.962C195.52 260.703 196.92 260.471 198.213 260.051C198.663 259.905 199.123 259.821 199.248 259.32" stroke="#D7BC5C" stroke-width="8" stroke-linecap="round"/>
<path d="M191.251 253.853V253.651" stroke="#D7BC5C" stroke-width="8" stroke-linecap="round"/>
<path d="M181.735 258.409C178.233 259.521 174.516 259.608 170.903 260.152C170.018 260.286 169.137 260.494 168.249 260.636C167.779 260.711 167.318 260.737 166.843 260.737C166.347 260.737 167.828 260.619 168.316 260.535C170.871 260.096 173.463 259.934 176.021 259.5C177.741 259.208 179.417 258.751 181.071 258.206C183.23 257.496 185.356 256.969 187.606 256.688" stroke="#D7BC5C" stroke-width="8" stroke-linecap="round"/>
<path d="M267.67 72.4812C269.25 73.9176 272.069 74.6931 274.096 75.1999" stroke="#E2D664" stroke-width="8" stroke-linecap="round"/>
<path d="M172.689 98.5313C171.966 96.1794 171.632 93.6939 171.294 91.2611C171.044 89.4579 170.342 87.7537 170.046 85.9736" stroke="#E2D664" stroke-width="8" stroke-linecap="round"/>
<path d="M162.012 51.1809C160.476 51.4234 159.743 54.7963 160.389 55.9677C161.456 57.9019 163.546 55.2161 163.771 54.0094C164.01 52.7244 163.712 51.2965 162.665 50.4375C161.752 49.6893 160.369 49.6851 159.664 50.7004C158.981 51.6832 158.274 54.4323 159.836 55.0792C161.541 55.7853 162.874 52.8956 162.529 51.607C162.075 49.9119 160.389 52.7189 160.253 53.266C160.012 54.2397 160.22 55.2473 160.616 56.149C160.718 56.3813 161.34 57.6973 161.812 57.5995C162.056 57.5492 161.107 53.6631 160.652 56.9105C160.529 57.7875 160.755 58.7063 160.951 59.5578C161.261 60.9003 161.091 59.1502 160.96 58.7237C160.797 58.1906 160.521 57.1486 160.208 58.0891C159.819 59.2567 160.06 60.3636 160.181 61.5523C160.427 63.9713 161.484 65.4228 163.771 66.1577C164.412 66.3639 165.029 66.5864 165.684 66.7561C167.024 67.1035 167.982 66.4003 169.183 66.0399C171.121 65.4584 173.197 65.6481 175.121 64.952C175.982 64.6405 176.7 63.9139 177.478 63.438C177.971 63.137 178.469 62.7352 178.784 62.2413C179.391 61.2878 179.962 60.2131 179.962 59.0501C179.962 56.5321 178.739 53.8771 177.351 51.8336C176.217 50.1629 174.057 49.0476 172.211 48.3251C171.363 47.9934 170.499 47.7479 169.645 47.4276C168.354 46.9435 166.819 46.371 165.439 46.2943C164.257 46.2287 162.604 46.2326 161.686 47.1012C160.337 48.3771 159.548 49.7575 159.111 51.5979C158.532 54.0349 158.423 56.2575 159.31 58.5968C159.934 60.2402 161.145 60.7825 162.737 61.4253C164.787 62.2527 167.071 62.6966 169.029 61.4435C170.924 60.2308 173.485 57.743 172.809 55.1971C172.301 53.2817 168.375 51.9331 167.107 53.7737C165.476 56.1406 166.947 59.7404 169.509 60.6275C171.504 61.3179 172.848 60.5184 174.215 59.0501C175.019 58.186 174.27 57.8127 173.435 57.7083" stroke="#E6F535" stroke-width="8" stroke-linecap="round"/>
<path d="M166.14 37.1946C166.253 34.8174 166.599 32.3891 166.991 30.0411C167.205 28.7582 167.395 27.8447 167.395 26.5271" stroke="#E6F535" stroke-width="8" stroke-linecap="round"/>
<path d="M166.767 25.5232C166.512 23.926 166.163 22.3572 165.917 20.7542C165.822 20.1361 165.7 19.4892 165.638 18.8717C165.586 18.351 165.335 18.1984 165.08 17.798C164.337 16.6298 162.947 16.248 161.747 15.6366C160.669 15.087 159.557 14.4598 158.359 14.2352C155.978 13.7887 153.708 12.9507 151.582 14.6047C149.999 15.8357 148.735 17.5495 146.938 18.4952C146.507 18.722 146.07 19.0971 145.558 19.1227C144.71 19.1651 144.805 18.1622 144.805 17.554C144.805 16.4631 144.872 15.0626 145.683 14.2282C147.043 12.83 148.735 12.3108 150.578 11.8437C151.849 11.5216 153.493 10.855 154.775 11.4044C156.063 11.9564 157.253 12.5685 158.61 12.9453C159.093 13.0796 159.434 13.3105 159.837 13.6007C160.325 13.9523 159.262 13.1097 159.112 12.9592C157.994 11.8413 157.585 11.2056 155.912 11.0977C154.418 11.0013 153.243 10.7127 151.833 10.3098C151.232 10.1381 150.74 9.99168 150.076 10.1146C149.776 10.1701 149.418 10.5747 149.156 10.5747C148.548 10.5747 150.293 10.122 150.892 10.0239C152.348 9.78565 154.139 9.54524 155.472 10.2122" stroke="#E6F535" stroke-width="8" stroke-linecap="round"/>
<path d="M167.144 17.2401C168.988 17.2401 170.476 16.2022 172.269 15.9781C172.679 15.9268 173.235 14.4539 173.545 14.1095C174.139 13.449 174.988 12.9361 175.678 12.3735C176.5 11.704 177.466 11.2274 178.314 10.5886C179.383 9.78278 180.444 9.07405 181.765 8.77578C182.964 8.5051 184.222 8.56244 185.439 8.42717C186.464 8.31328 187.398 7.93013 188.416 7.77178C189.248 7.64245 190.215 7.45744 191.052 7.63931C191.982 7.84161 192.849 8.30613 193.722 8.67817C194.919 9.18849 196.417 9.70276 197.013 10.9651C197.907 12.8581 197.967 17.2333 195.186 17.4981C194.173 17.5945 193.238 17.4911 192.216 17.4911C190.74 17.4911 189.776 15.9158 188.849 14.988C188.409 14.5489 187.964 14.0546 187.475 13.6703C187.349 13.5712 186.43 13.0986 186.931 13.0986C189.269 13.0986 191.846 14.1461 194.154 13.3217C195.493 12.8437 195.565 10.432 194.608 9.57062C192.906 8.039 190.723 7.74658 188.535 7.51381C187.375 7.39044 183.927 6.8516 185.056 7.14428C186.643 7.5558 188.444 7.80733 190.083 7.82756C192.062 7.85199 194.029 7.95306 196.009 7.95306" stroke="#E6F535" stroke-width="8" stroke-linecap="round"/>
<path d="M197.139 18.1187C197.163 18.3094 197.599 18.9556 197.139 18.4952" stroke="#E6F535" stroke-width="8" stroke-linecap="round"/>
<path d="M183.401 13.2743C183.36 13.6008 181.953 13.1519 181.687 13.1519" stroke="#E6F535" stroke-width="8" stroke-linecap="round"/>
<path d="M179.36 13.7639C178.69 14.4084 177.763 14.9502 176.912 15.3283C175.83 15.8091 174.93 16.4795 174.212 17.5117C173.03 19.2103 171.773 20.7588 171.103 22.7696C170.528 24.4952 170.471 26.3377 169.96 28.0614C169.39 29.9856 169.856 32.1851 169.26 34.0946C169.024 34.8477 169.076 35.9115 169.076 36.7202C169.076 37.3986 169.277 37.4941 169.811 37.7608" stroke="#E6F535" stroke-width="8" stroke-linecap="round"/>
<path d="M178.695 42.081C178.466 42.0557 177.42 41.5581 177.994 41.7377C179.726 42.279 181.311 43.1947 183.006 43.8111C184.354 44.3012 185.148 46.7755 185.491 48.0127C186.121 50.2799 186.928 52.5503 187.469 54.8232C188.017 57.1279 187.839 59.493 187.839 61.8534C187.839 62.6016 187.417 63.6493 187.098 64.3249C186.889 64.7682 186.137 65.5875 186.109 66.055C186.038 67.2747 189.986 68.2297 190.97 68.5265C195.937 70.0244 201.185 70.5843 206.239 71.7395C211.941 73.043 217.828 73.6756 223.567 74.7191C225.306 75.0353 225.863 75.4299 224.048 76.2982C222.931 76.832 221.423 76.791 220.203 76.6689C218.565 76.5051 216.642 75.7605 215.136 75.0761C214.169 74.6364 212.991 74.5579 211.964 74.3347C209.846 73.8743 214.046 74.5229 214.436 74.5956C219.876 75.6097 225.688 77.5958 231.311 77.1632C232.533 77.0692 234.086 77.4272 235.115 77.0671C236.713 76.5075 239.581 76.9946 241.225 77.3143C242.532 77.5685 244.335 77.5746 245.55 78.042C246.494 78.4051 247.669 78.0846 248.667 78.3029C251.175 78.8515 253.594 78.907 256.164 78.907C258.702 78.907 261.253 79.1942 263.771 79.1542C265.651 79.1243 267.52 78.686 269.4 78.6599C270.76 78.641 272.225 78.7354 273.547 78.3578C275.887 77.6892 278.335 77.6876 280.715 77.2319C283.852 76.631 286.622 75.916 288.678 73.3461C290 71.6941 291.108 69.6989 292.139 67.8949C293.684 65.191 293.304 62.231 291.891 59.629C290.077 56.2869 286.235 56.4497 282.994 55.7294C281.061 55.2999 279.112 55.1414 277.172 54.631C274.426 53.9083 271.675 53.298 268.851 52.9009C260.977 51.7936 253.046 51.4853 245.124 50.7863C242.281 50.5354 239.473 50.4498 236.639 50.0449C234.452 49.7325 238.883 48.6307 239.495 48.562C241.316 48.3573 243.224 48.507 245.056 48.507C247.064 48.507 248.868 49.0399 250.85 49.2485C253.316 49.5081 255.629 50.2371 258.141 50.2371C259.272 50.2371 262.65 50.0789 261.533 50.2508C257.069 50.9375 252.661 50.695 248.173 50.3744C244.206 50.0911 240.228 49.8699 236.282 49.3583C230.968 48.6695 225.909 46.7532 220.629 46.0492C219.743 45.9311 220.051 45.8434 220.821 45.7334C224.021 45.2763 227.352 45.9149 230.542 46.2277C232.695 46.4388 234.783 46.6513 236.913 46.9692C237.407 47.0429 237.832 46.9986 237.765 47.6008C237.722 47.9839 236.997 47.5184 236.611 47.5184C226.489 47.5184 215.885 47.3074 206.129 44.3054C200.804 42.667 195.032 43.4157 189.569 42.8087C188.262 42.6634 187.996 42.64 188.1 44.3054C188.222 46.249 188.997 48.3282 189.446 50.2234C190.289 53.7825 189.716 58.245 192.041 61.3453C192.805 62.3635 193.716 62.7466 194.966 62.9518C198.515 63.5345 202.126 63.8318 205.689 64.3249C212.552 65.2745 219.378 66.4919 226.244 67.4143C228.902 67.7713 231.721 67.7878 234.318 68.403C236.375 68.8901 238.381 69.3316 240.47 69.6387C241.18 69.7432 243.998 70.1056 241.911 70.6274C238.576 71.4612 234.787 70.9981 231.38 70.9981C230.236 70.9981 229.091 70.9981 227.947 70.9981C226.973 70.9981 229.885 70.7902 230.858 70.7509C234.65 70.5977 238.479 70.3504 242.268 70.6685C245.058 70.9028 247.771 71.6457 250.575 71.7258C258.31 71.9468 266.17 71.2557 273.794 70.0644C275.885 69.7377 277.519 68.7521 279.479 68.0322C281.149 67.4186 282.938 67.236 284.669 66.8514C285.097 66.7564 286.275 66.1653 285.493 66.9063C283.32 68.965 280.578 71.0406 277.859 72.2888C277.315 72.5381 276.439 73.0373 277.639 72.6732C279.724 72.0408 281.761 71.302 283.68 70.2566C286.21 68.8786 287.937 65.9408 287.333 62.9518C286.89 60.7603 285.149 61.1636 283.447 61.0982C279.52 60.9471 275.718 61.4006 271.79 61.0021C267.639 60.581 263.227 60.3826 259.171 59.3544C255.044 58.3082 250.987 56.8419 246.786 56.0727C243.326 55.4393 239.461 54.8547 235.938 55.0704C232.454 55.2837 228.967 55.2396 225.517 54.6447C215.578 52.9311 205.698 50.9267 195.748 49.3721C192.462 48.8585 193.003 51.5565 194.705 53.2579C196.456 55.0089 198.492 55.6685 200.939 56.1688C207.551 57.5213 214.328 58.2367 221.04 58.8875C229.259 59.6844 237.664 59.6381 245.811 61.1119C248.248 61.5528 250.597 62.2827 253.061 62.5948C254.451 62.771 255.858 62.8237 257.235 63.0891C262.292 64.064 267.533 65.2387 272.696 65.3135C273.705 65.3282 272.569 65.7409 272.119 66.055C270.5 67.1861 268.692 67.6029 266.737 67.7302C261.612 68.0637 256.22 67.6019 251.276 66.2472C246.849 65.0344 242.859 64.1137 238.259 64.0778C236.02 64.0603 233.961 63.6002 231.778 63.1441C229.276 62.6212 226.73 62.3714 224.226 61.8534C217 60.3584 209.732 58.8992 202.449 57.7067C200.088 57.3201 197.767 56.8352 195.364 56.9103C193.962 56.9541 198.093 57.5768 199.483 57.7616C210.524 59.2299 221.703 59.7181 232.794 60.6725C242.277 61.4886 251.893 62.0671 261.272 63.7757C264.318 64.3306 267.346 64.9863 270.389 65.5607C272.297 65.9208 274.13 66.5493 276.074 66.5493" stroke="#E2D664" stroke-width="8" stroke-linecap="round"/>
<path d="M238.265 152.054C240.373 151.863 243.062 150.854 245.068 150.13C247.559 149.231 250.183 148.695 252.644 147.742C254.651 146.965 257.183 146.761 259.293 146.351C261.922 145.839 264.677 145.519 267.333 145.182C271.057 144.71 274.877 144.352 278.465 143.567C280.867 143.042 283.335 142.819 285.75 142.313C288.593 141.718 291.355 140.944 294.236 140.544C299.125 139.865 304.011 139.546 308.925 139.066C315.593 138.416 323.846 138.211 329.729 141.815C333.715 144.257 343.715 149.888 340.621 156.074" stroke="black" stroke-width="3" stroke-linecap="round"/>
<path d="M8.12757 172.077C8.12757 175.279 8.0658 178.511 7.54077 181.661" stroke="black" stroke-width="3" stroke-linecap="round"/>
<path d="M51.9414 159.363C51.9414 160.831 52.044 162.614 52.3326 164.057" stroke="black" stroke-width="3" stroke-linecap="round"/>
<path d="M49.8387 84.2268C48.3607 84.2268 47.5439 85.8436 46.9547 87.0221C46.694 87.5434 46.6406 87.749 47.1321 88.1313C48.055 88.8491 50.9785 81.1728 51.081 80.4554C52.1007 73.3177 42.3535 79.6102 44.5587 83.5613C45.389 85.0488 45.3233 83.3607 44.2481 82.4964C42.5088 81.0981 40.2443 82.3439 39.545 84.2268C39.2788 84.9436 39.536 88.6739 41.1423 87.9538C42.8747 87.1772 44.025 82.7756 43.4495 81.1209C42.6595 78.8496 39.5115 84.0955 39.2344 84.7149C38.1287 87.1864 38.1549 91.1219 40.6542 92.8344C45.5866 96.214 49.2599 86.3436 42.8283 84.8036C40.2948 84.197 39.3674 88.154 39.9443 89.9061C41.0075 93.135 44.9084 96.5637 48.4189 96.3396C50.9472 96.1782 53.5608 95.113 55.9838 94.4095C58.0436 93.8115 60.1434 93.5453 62.1733 92.8123C63.0911 92.4809 65.5309 90.8495 64.7689 91.459C62.6202 93.178 60.4125 94.7591 57.8251 95.8516C52.6278 98.046 46.415 93.4112 41.0757 93.4112C39.4366 93.4112 39.4483 95.7129 40.0552 96.8055C41.004 98.5133 46.0616 98.8711 47.7977 98.9796C51.0385 99.1821 54.186 99.8004 57.448 99.8004C60.2781 99.8004 64.6753 99.1552 67.0096 97.4045" stroke="#E2D664" stroke-width="8" stroke-linecap="round"/>
<path d="M66.6104 98.6023C70.2884 98.6023 74.4891 98.372 77.9911 97.2047C81.9149 95.8968 85.481 93.939 89.394 92.6346C93.0419 91.4187 96.8545 91.2297 100.464 89.8172C103.198 88.7473 106.101 87.458 108.939 86.7113C114.081 85.3582 119.231 83.0191 124.091 80.8324C128.918 78.6602 133.389 75.6609 138.4 73.933C141.09 73.0053 143.746 71.6654 146.52 71.049C149.078 70.4805 153.058 69.2628 151.356 65.8578C150.553 64.252 150.23 63.2713 150.047 61.443C149.861 59.5815 148.635 58.0238 148.494 56.1187C148.424 55.1783 148.472 54.2221 148.472 53.2791C148.472 52.111 149.115 50.9332 149.581 49.8848C150.096 48.7263 148.717 49.7761 148.383 49.9736C146.862 50.8722 145.18 51.343 143.68 52.2808C139.425 54.94 133.784 56.4841 129.038 58.0266C125.414 59.2043 121.807 60.6314 118.057 61.4208C117.87 61.4601 120.913 59.8599 121.628 59.4686C123.471 58.4597 125.261 57.4396 127.219 56.6733C130.85 55.2525 134.953 54.6506 138.489 53.0794C139.899 52.4527 141.178 52.496 142.482 51.4821C143.502 50.6888 144.433 50.3934 142.415 50.9275C139.324 51.7458 136.252 52.5814 133.12 53.2569C124.579 55.0992 116.786 59.1853 108.939 62.9738C97.0191 68.728 83.0242 69.715 70.1378 71.648C64.5321 72.4888 58.92 72.8875 53.344 73.933C50.463 74.4732 47.6344 74.7942 45.0469 76.2402C42.1439 77.8625 42.9822 82.725 44.093 85.2028C46.3291 90.1911 52.5351 92.715 57.6922 92.5459C61.1315 92.4331 66.1534 90.9855 68.0524 87.8206C69.9335 84.6855 65.6561 81.0868 63.194 79.9228C59.8405 78.3376 55.1122 78.389 53.4105 82.2966C51.9341 85.6869 55.0866 91.237 59.0011 91.237C62.0935 91.237 63.8681 86.8987 63.4602 84.3154C63.0823 81.9223 59.1137 78.8164 58.0915 82.4963C57.3801 85.0574 59.3795 86.8599 61.7298 85.5577C61.7712 85.5348 63.9076 83.8837 63.1496 83.6942C61.9386 83.3915 59.8248 85.5897 59.2007 86.2677C56.8177 88.8562 54.9209 93.1088 60.2212 91.8582C64.4316 90.8647 68.38 88.7309 72.09 86.5782C74.9272 84.9319 79.4033 82.8117 80.1208 79.1686C80.7167 76.1435 77.8296 77.5008 76.3716 78.2146C73.6001 79.5715 70.9263 81.1199 68.1411 82.4519C61.6692 85.5472 81.457 76.9976 88.3957 75.1753C88.5309 75.1398 94.1816 73.5452 92.2115 74.9091C85.7422 79.3878 75.3423 79.3277 67.8084 79.4348C65.4829 79.4678 61.6876 79.969 66.0336 78.858C72.5058 77.2034 79.0805 75.992 85.5561 74.3323C93.7674 72.2277 101.875 69.558 110.137 67.6991C112.578 67.1498 114.98 67.277 117.325 66.2349C118.998 65.4911 121.557 63.1512 123.381 63.1512C123.877 63.1512 122.88 64.0144 122.56 64.3936C120.516 66.814 118.182 68.8975 115.505 70.6053C109.56 74.399 102.7 76.8855 96.0272 79.0355C87.0871 81.9162 79.1666 86.4453 71.1804 91.3258C70.3173 91.8532 68.8189 92.2131 70.4927 92.2131C74.8635 92.2131 79.1467 90.6334 83.3598 89.6397C92.9554 87.3766 100.938 83.1645 109.382 78.2146C117.826 73.2649 127.277 71.8154 136.181 68.2537C137.95 67.5465 139.973 67.2897 141.683 66.4346C143.488 65.5323 142.822 63.1238 143.081 61.4652C143.387 59.5069 143.165 59.4139 141.328 59.9566C138.604 60.7615 135.606 61.2475 132.987 62.3526C128.544 64.2269 125.017 67.0467 123.714 71.8476C122.48 76.3936 118.034 77.0729 113.952 78.6361C104.126 82.3995 93.8258 84.9462 83.8035 88.1533C81.3308 88.9446 78.84 89.6875 76.416 90.6158C73.2962 91.8107 69.868 93.499 66.6104 94.2098C64.5302 94.6636 66.4848 91.1391 66.6548 90.8377C68.7534 87.1166 71.6822 83.8377 74.375 80.544C76.0452 78.5011 77.5231 77.1352 79.9656 76.1514C84.0403 74.5102 86.8844 71.5689 90.1705 68.8305C90.88 68.2393 91.3838 67.4841 92.0118 66.8561C92.7976 66.0703 94.1599 66.2753 95.162 66.0574C97.3097 65.5906 99.7061 65.544 101.751 64.6598C103.286 63.9961 105.446 63.1555 107.12 63.0625C108.222 63.0013 110.629 62.1471 111.335 61.2655C111.517 61.0376 112.488 60.7567 112.488 60.4891C112.488 59.1411 110.397 62.2337 109.183 62.8185C106.436 64.1412 104.421 65.5106 101.352 66.2571C97.231 67.2594 93.0504 67.0322 88.9725 68.165C85.2628 69.1954 80.799 69.3456 77.3921 71.049" stroke="#E2D664" stroke-width="8" stroke-linecap="round"/>
<path d="M146.138 65.2988C146.247 65.664 146.957 66.3494 147.208 66.7251" stroke="#E2D664" stroke-width="8" stroke-linecap="round"/>
<path d="M153.463 66.8069C153.644 67.0831 153.797 67.4067 154.073 67.5911" stroke="#E2D664" stroke-width="8" stroke-linecap="round"/>
<path d="M153.115 45.8064L153.202 45.7192" stroke="#E2D664" stroke-width="8" stroke-linecap="round"/>
<path d="M147.974 47.2007C147.693 47.2569 147.393 47.5799 147.141 47.7187C146.512 48.0655 145.776 48.2854 145.113 48.5562C143.278 49.3055 141.258 49.7199 139.347 50.2312C137.543 50.7138 135.773 51.2891 133.983 51.8191C132.664 52.2097 131.333 52.541 130.023 52.9664C128.644 53.4143 127.244 53.7751 125.85 54.1718C124.397 54.5853 122.989 55.1302 121.541 55.5612C119.729 56.1012 117.695 56.408 116.1 57.5025C115.784 57.7195 114.746 58.3324 114.861 58.7902" stroke="#E2D664" stroke-width="8" stroke-linecap="round"/>
<path d="M111.462 59.6616C109.767 59.9292 108.106 61.1509 106.65 62.0144C105.394 62.7593 103.951 63.166 102.54 63.4957C99.8287 64.1296 97.062 64.6741 94.3248 65.1853C89.5339 66.08 84.8567 67.4594 80.034 68.2061C77.9524 68.5284 75.8873 69.006 73.8374 69.489C72.9773 69.6916 72.1189 69.895 71.291 70.2055" stroke="#E2D664" stroke-width="8" stroke-linecap="round"/>
<path d="M156.497 174.538C156.125 171.196 154.813 167.707 155.67 164.275C156.993 158.985 156.827 152.92 156.827 147.513C156.827 143.299 154.183 140.5 156.68 135.029C154.183 135.543 153.871 125.969 154.183 126C154.825 126.064 155.599 121.142 155.505 120.507C155.112 117.851 154.183 115.065 154.183 112.392C154.183 106.391 154.982 100.865 155.762 94.9328C155.894 93.9317 156.46 92.9881 156.754 91.9954C157.062 90.9551 156.827 89.5518 156.827 88.4704C156.827 85.142 156.708 76.9197 160.94 75.7108C161.578 75.5284 159.863 75.0682 161.123 75.0682C164.049 75.0682 166.872 75.6918 169.789 75.7292C171.838 75.7554 175.263 76.9745 176.912 75.3253C178.046 74.1915 178.968 74.3947 178.968 76.078C178.968 79.549 180.185 83.282 181.116 86.6345C182.233 90.6539 182.174 95.0722 182.86 99.1921C183.678 104.1 184.24 109.2 185.32 114.063C185.686 115.706 185.908 117.518 185.908 119.204C185.908 122.106 186.626 125.392 186.22 128.236C185.611 132.5 185.553 136.985 185.229 141.363C184.868 146.228 185.247 150.927 185.247 155.775C185.247 159.732 184.992 163.672 184.917 167.598C184.878 169.592 184.442 167.614 183.778 169.416C183.395 170.457 183.595 171.8 183.595 172.886C183.595 176.102 184.256 179.326 184.256 182.469C184.256 185.661 184.793 188.912 184.917 192.126C185.068 196.073 185.667 200.008 185.578 204.023C185.487 208.098 184.586 212.221 184.586 216.323C184.586 218.71 183.595 221.366 183.595 223.612C183.595 227.033 183.004 230.157 182.603 233.361C182.295 235.83 174.699 235.013 172.855 235.013C172.139 235.013 171.423 235.013 170.707 235.013C169.733 235.013 170.376 233.535 170.376 232.626C170.376 228.732 170.998 224.223 170.303 220.399C169.883 218.09 169.402 215.505 168.375 213.386C167.615 211.818 166.934 210.167 166.08 208.649C165.513 207.641 164.713 206.759 164.428 205.62C163.985 203.848 163.463 202.168 163.088 200.479C162.252 196.72 161.403 192.842 160.462 189.078C159.343 184.602 157.555 181.002 157.837 176.209C157.969 173.96 158.235 172 157.892 169.728C157.722 168.601 157.917 167.878 158.351 166.827C159.37 164.36 159.775 161.721 160.719 159.226C161.422 157.368 161.81 156.598 161.6 154.563C161.248 151.134 160.958 147.72 160.719 144.282C160.33 138.677 159.664 133.074 158.957 127.502C158.347 122.696 158.633 117.911 158.461 113.09C158.293 108.392 158.256 103.658 158.663 98.9535C159.12 93.6705 158.974 81.5605 166.594 81.0349C168.541 80.9007 170.193 81.9114 172.028 82.008C172.667 82.0416 173.48 82.1926 173.938 82.7423C174.706 83.664 175.012 85.9765 175.296 87.0935C175.811 89.116 175.958 91.26 176.325 93.3172C177.145 97.9212 177.675 102.467 178.05 107.123C178.866 117.234 180.951 127.329 180.951 137.508C180.951 147.823 179.725 157.941 178.491 168.167C178.334 169.469 178.265 169.833 177.628 170.829C176.247 172.987 176.215 175.967 176.067 178.43C175.712 184.36 176.02 190.062 176.398 195.981C176.719 201.008 176.409 205.879 176.325 210.889C176.276 213.743 176.787 216.507 176.582 219.408C176.37 222.397 176.43 225.577 175.976 228.532C175.948 228.712 175.504 229.699 175.994 228.991C176.807 227.818 177.72 226.562 178.271 225.246C179.845 221.484 179.629 216.259 179.629 212.211C179.629 207.068 180.014 201.801 180.455 196.679C180.818 192.469 180.621 188.198 180.621 183.975C180.621 183.73 180.57 181.84 180.455 182.047C179.476 183.81 179.335 186.774 178.821 188.711C177.025 195.488 175.819 202.407 173.938 209.163C173.17 211.922 172.519 212.716 171.037 209.751C168.952 205.582 167.312 200.833 166.594 196.22C165.634 190.046 166.51 183.594 165.713 177.347C165.025 171.954 163.931 166.661 163.363 161.246C163.143 159.149 162.775 152.841 162.775 154.949C162.775 163.16 164.793 171.438 165.75 179.568C166.601 186.808 167.784 193.978 168.981 201.159C169.03 201.451 169.054 202.697 169.054 201.71C169.054 198.517 169.435 195.294 169.789 192.126C171.402 177.666 170.376 163.198 170.376 148.688C170.376 144.052 169.365 140.049 168.577 135.543C168.325 134.101 168.101 132.53 168.063 131.064C168.054 130.71 167.843 129.36 167.751 130.513C166.983 140.114 168.724 169.023 168.724 159.392C168.724 142.81 164.978 126.329 162.849 109.951C162.062 103.895 161.194 97.5364 161.123 91.4079C161.1 89.4226 161.117 88.6682 163.033 88.0298C165.189 87.3109 166.474 90.2696 168.559 90.2696C169.182 90.2696 170.046 90.746 170.046 91.4262C170.046 94.947 171.773 98.905 172.543 102.332C174.984 113.208 175.759 123.825 175.664 134.992C175.622 139.826 175.298 144.645 175.333 149.496C175.361 153.374 175.735 157.151 175.664 160.989C175.652 161.608 175.376 165.652 174.984 163.174C173.61 154.47 172.308 145.841 170.395 137.232C167.483 124.13 164.576 111.151 163.436 97.7601C163.267 95.7723 162.493 89.8368 162.775 91.8118C163.139 94.3539 164.107 96.7665 164.905 99.1921C166.171 103.04 167.134 107.01 168.246 110.905C169.976 116.957 172.028 123.215 172.028 129.595" stroke="#E2D664" stroke-width="8" stroke-linecap="round"/>
<path d="M279.178 100.829C279.178 115.303 281.019 128.614 278.624 142.986" stroke="black" stroke-width="3" stroke-linecap="round"/>
<path d="M153.088 166.554C153.088 148.987 148.493 131.926 150.988 114.46C152.569 103.396 149.028 88.8535 155.131 78.9353C158.039 74.2105 155.021 71.8497 160 69.0044M179.646 69.0044C183.282 73.5493 183.773 76.2755 184.697 82.2834C185.648 88.4687 187.818 95.417 187.818 101.691C187.818 114.272 189.861 126.543 189.861 138.975C189.861 150.041 189.861 161.107 189.861 172.172C189.861 183.209 188.839 194.665 188.839 205.37C188.839 210.885 186.796 216.038 186.796 221.713C186.796 226.859 187.818 232.423 187.818 237.035" stroke="black" stroke-width="3" stroke-linecap="round"/>
<path d="M152.067 166.554C152.067 174.898 154.019 182.307 156.38 190.275C158.338 196.883 159.748 204.266 162.509 210.477C164.498 214.954 168.581 238.993 164.324 241.121" stroke="black" stroke-width="3" stroke-linecap="round"/>
<path d="M163.927 241.574C164.142 239.858 174.042 238.601 175.413 238.482C179.353 238.14 183.192 238 187.155 238C189.157 238 192.515 237.319 192.515 240.297C192.515 243.586 192.293 245.323 190.246 247.955C187.154 251.931 183.336 253.15 178.845 254.847C175.648 256.054 172.547 255.943 169.146 255.868C166.825 255.816 164.689 254.566 162.396 254.336C159.794 254.076 158.297 248.867 159.73 247.076C160.177 246.517 160.81 244.893 161.261 244.126C161.795 243.219 162.926 243.066 163.417 242.084" stroke="black" stroke-width="3" stroke-linecap="round"/>
<path d="M156.188 251.023C153.646 251.023 150.101 253.731 147.848 254.983C144.351 256.926 145.577 262.319 146.921 265.007C151.023 273.211 165.214 273.879 172.951 273.768C179.698 273.672 187.106 271.03 193.674 269.388C201.018 267.552 217.447 262.078 208.332 251.95C204.226 247.388 196.792 248.749 191.063 248.749" stroke="black" stroke-width="3" stroke-linecap="round"/>
<path d="M150.122 251.782C142.754 251.782 136.997 250.907 129.652 252.54C123.705 253.861 113.991 259.381 117.353 266.945C125.642 285.595 153.647 279.833 170.593 279.833C192.371 279.833 213.685 281.624 233.899 272.294C237.99 270.406 238.827 267.525 238.827 263.322C238.827 254.873 229.921 252.312 223.074 250.097C220.797 249.36 207.328 248.062 206.226 250.265" stroke="black" stroke-width="3" stroke-linecap="round"/>
<path d="M161.056 69.6592C154.702 69.6592 150.418 73.4294 144.91 75.2656C136.25 78.1522 127.714 83.436 119.255 87.0613C112.35 90.0208 104.552 91.1799 97.7266 94.2823C92.9581 96.4498 86.5276 98.2835 81.3112 99.3505C67.5709 102.161 32.6929 110.313 32.6929 87.4201C32.6929 74.7109 48.844 70.0836 58.8858 68.224C80.3231 64.2541 102.8 59.4516 122.664 50.2836C131.72 46.1038 154.01 43.8362 163.5 40.551M175.408 38.9812C180.639 38.8008 185.921 38.1739 191.286 38.1739C193.993 38.1739 198.949 38.0615 201.422 39.1606C204.581 40.5648 209.385 39.987 212.769 40.551C217.962 41.4165 224.264 42.0915 229.498 42.2105C236.755 42.3754 244.29 43.8645 251.52 44.5876C260.116 45.4471 268.81 46.9199 277.13 49.2969C283.761 51.1914 293.361 52.8956 296.506 59.9714C298.925 65.4147 296.718 71.5997 292.828 75.4898C286.683 81.6343 277.497 82.5763 269.236 82.5763C258.754 82.5763 248.369 81.7689 237.93 81.7689C226.276 81.7689 222.149 82.1495 211 78.7191C201.314 75.7389 189.975 74.1716 180.95 69.6592" stroke="black" stroke-width="3" stroke-linecap="round"/>
<path d="M31.0623 92.2793C24.6881 92.9875 18.6279 96.78 16.0308 102.716C14.6697 105.827 15.0351 109.391 16.822 112.118C21.1337 118.7 29.967 118.527 37.087 119.239C45.3857 120.068 53.9558 119.907 62.251 119.117C71.1827 118.266 81.6254 116.15 89.6363 111.997C93.9263 109.772 100.621 104.662 100.621 98.9735C100.621 96.5582 98.157 96.4789 96.7869 95.5655" stroke="black" stroke-width="3" stroke-linecap="round"/>
<path d="M247.406 82.4205C245.417 84.4092 243.005 85.8053 241.685 88.4453C239.609 92.5981 243.577 97.3935 247.041 99.1255C258.564 104.887 273.606 101.693 285.197 97.7562C293.237 95.0257 310.779 92.7612 311.457 81.2338C311.683 77.3868 310.753 71.4336 306.68 69.8233C303.722 68.654 300.41 68.1802 297.247 68.1802" stroke="black" stroke-width="3" stroke-linecap="round"/>
<path d="M32.8625 119.832C32.6145 122.064 29.6728 125.423 28.5094 127.362C26.5886 130.563 24.6531 133.663 23.0386 137.039C20.9217 141.465 16.0659 146.141 15.3619 151.069C14.8145 154.9 11.8882 158.333 11.6854 162.186C11.5361 165.021 9.75352 169.756 8.50879 172.246" stroke="black" stroke-width="3" stroke-linecap="round"/>
<path d="M9.11275 196.523C9.34603 196.943 9.68142 197.271 9.96744 197.652C10.2885 198.081 9.58338 195.678 9.48206 195.394C8.87387 193.691 8.47243 193.248 7.78323 191.575C7.371 190.574 7.21343 189.522 7.21343 188.451C7.21343 187.932 6.83665 188.284 6.73861 188.589C6.35896 189.77 6.01867 190.997 5.7995 192.218C5.27839 195.122 5.75371 197.567 7.44557 199.984C8.36962 201.304 9.19135 202.201 10.6744 202.833C11.5814 203.22 14.6208 204.133 14.6208 205.26" stroke="#E2D664" stroke-width="5" stroke-linecap="round"/>
<path d="M9.87256 203.361C10.7071 203.639 11.2501 204.68 12.004 205.155C13.0716 205.827 14.7102 205.974 15.9504 206.02C17.9291 206.093 19.9426 206.814 21.9015 207.118C24.9175 207.585 28.2797 207.16 31.3348 207.16" stroke="#E2D664" stroke-width="5" stroke-linecap="round"/>
<path d="M11.7717 197.663C15.6131 199.868 19.1742 201.189 23.5475 201.799C25.3753 202.055 27.2234 202.01 29.0555 202.221C30.8002 202.423 32.4984 202.601 34.2575 202.601C36.7525 202.601 39.1832 202.589 41.6648 202.316C47.6631 201.658 53.7066 201.53 59.7083 200.829C61.4914 200.62 63.5939 200.522 65.3324 199.942" stroke="#E2D664" stroke-width="5" stroke-linecap="round"/>
<path d="M11.7717 200.132C18.4142 202.779 25.1661 205.46 32.4742 204.691" stroke="#E2D664" stroke-width="5" stroke-linecap="round"/>
<path d="M6.26367 186.647C6.46167 186.424 6.39874 186.2 6.64353 186.077" stroke="#E2D664" stroke-width="5" stroke-linecap="round"/>
<path d="M14.0508 207.73C17.3594 208.911 20.9433 208.489 24.4126 208.489C28.5753 208.489 32.485 209.2 36.5893 209.819C47.3418 211.44 58.2194 211.525 69.057 210.969C71.5811 210.839 74.1056 210.919 76.6331 210.768C78.8099 210.638 81.1481 210.816 83.2702 210.304C85.6343 209.734 88.0245 209.243 90.4032 208.637C92.1751 208.186 92.872 207.547 94.0541 206.21C94.97 205.174 95.9272 205.009 97.2829 204.691C99.5999 204.147 102.518 203.402 104.268 201.652C105.606 200.314 106.501 198.832 107.212 197.093C107.789 195.682 107.876 194.299 108.299 192.873C108.589 191.892 108.447 190.755 108.447 189.728C108.447 186.87 107.547 183.922 107.318 181.055C107.174 179.257 106.822 177.415 106.452 175.642C106.345 175.125 106.236 173.272 106.157 174.808C106.092 176.07 106.118 177.678 105.408 178.754C103.754 181.259 102.125 183.532 99.7098 185.36C98.3465 186.392 96.8724 187.211 95.3414 187.977C93.3546 188.97 91.3404 190.067 89.2636 190.836C85.3311 192.293 81.2074 193.736 77.108 194.603C71.8082 195.725 66.4707 196.487 61.2171 197.843C59.9772 198.163 58.5468 198.782 57.2496 198.782C55.7311 198.782 54.1606 198.585 52.6068 198.623C46.8216 198.764 41.1783 200.083 35.4497 200.786C34.5818 200.893 32.1298 200.942 31.6511 201.968C31.0167 203.328 34.7809 205.786 35.9351 205.978C44.3375 207.378 52.7256 205.856 61.1326 205.493C66.5379 205.259 72.4383 204.321 77.7833 205.155C79.7845 205.467 76.9224 206.332 76.7281 206.4C74.8159 207.072 72.8735 207.433 70.8613 207.645C68.7663 207.866 66.6634 207.954 64.5725 208.225C62.7786 208.459 61.0048 208.868 59.2017 209.027C57.5506 209.173 55.3486 209.188 53.7359 208.848C53.3986 208.777 54.2573 208.382 54.5695 208.236C56.2792 207.435 58.0504 206.765 59.8137 206.094C63.454 204.71 67.0581 203.155 70.7347 201.873C73.0938 201.051 75.5599 200.449 77.9732 199.805C78.1768 199.751 78.3832 199.707 78.5852 199.647C78.8758 199.561 78.6442 199.57 78.4797 199.562C77.2694 199.51 76.0602 199.438 74.8499 199.383C71.4447 199.23 68.0096 199.257 64.7097 200.206C63.939 200.428 62.5728 200.855 64.2137 200.892C69.0717 201.002 74.0507 201.27 78.8596 201.968C80.1221 202.152 83.4016 202.45 81.8352 204.353C81.259 205.053 80.5304 205.649 79.8409 206.231C79.5367 206.488 78.6809 206.638 78.9018 206.97C79.0378 207.174 82.1469 205.556 82.4472 205.429C85.498 204.139 88.6631 203.65 91.9015 203.023C95.1673 202.392 98.7356 199.709 100.881 197.283C103.19 194.674 103.974 191.235 104.363 187.892C104.455 187.105 104.431 186.311 104.553 185.529C104.69 184.654 104.497 184.884 103.888 185.402C100.051 188.668 96.4028 191.87 91.8065 194.054C89.5151 195.143 87.2196 196.083 84.7052 196.502C82.189 196.922 79.6419 197.088 77.1924 197.853C76.9123 197.941 75.7304 198.085 76.1372 198.55C77.5228 200.133 79.6676 200.97 81.7296 201.061C86.8497 201.287 91.7453 198.655 95.7635 195.722C97.0434 194.787 98.251 193.769 99.4777 192.767C99.8129 192.494 100.908 191.29 101.377 191.29C101.515 191.29 102.403 192.69 102.517 192.83C103.354 193.863 103.846 195.36 103.846 196.692C103.846 200.01 99.0647 201.312 96.6287 202.148C93.9428 203.069 91.2286 204.003 88.641 205.176C86.9798 205.929 85.3887 207.053 83.5867 207.434C82.632 207.636 82.3181 207.956 83.1963 207.149C85.4807 205.051 87.733 202.903 89.654 200.459C91.0605 198.671 92.3395 196.803 93.7903 195.046C94.628 194.032 95.7669 193.433 96.8608 192.725" stroke="#E2D664" stroke-width="5" stroke-linecap="round"/>
<path d="M55.0983 120.891C55.0983 127.932 52.9806 134.787 52.9806 141.892C52.9806 148.004 52.4512 153.981 52.4512 160.069" stroke="black" stroke-width="3" stroke-linecap="round"/>
<path d="M79.4521 118.244C79.6351 120.073 80.8644 122.414 81.5993 124.068C83.2182 127.71 84.7652 131.569 86.8641 134.95C89.2538 138.8 91.286 143.153 92.9231 147.362C95.0342 152.791 97.6594 158.248 99.041 163.775" stroke="black" stroke-width="3" stroke-linecap="round"/>
<path d="M259.209 103.603C257.664 105.32 256.915 108.114 255.943 110.166C253.823 114.642 251.733 119.158 249.81 123.725C248.616 126.562 246.247 129.986 245.866 133.032C245.68 134.515 245.242 136.398 244.51 137.716C243.971 138.687 243.737 141.373 243.678 142.431C243.541 144.891 241.459 147.096 241.459 149.642" stroke="black" stroke-width="3" stroke-linecap="round"/>
<path d="M304.139 92.5088C308.256 97.1095 309.971 104.605 312.46 110.136C314.3 114.226 316.839 117.909 318.838 121.907C320.555 125.341 324.108 129.715 324.108 133.556" stroke="black" stroke-width="3" stroke-linecap="round"/>
<path d="M6.18088 180.804C5.97752 182.838 4.48657 185.007 3.717 186.888C2.55265 189.734 2.23741 192.339 2.3786 195.375C2.61503 200.458 6.71006 206.284 11.1086 208.972C16.9959 212.569 23.3831 210.537 29.7246 211.77C37.1957 213.223 44.2098 214.878 51.8082 215.268C56.8679 215.528 62.0117 215.35 67.0782 215.299C71.6535 215.252 75.7327 213.206 80.2188 213.108C85.2402 212.999 90.153 210.275 94.8804 208.728C97.9177 207.734 100.361 206.75 103.093 205.139C111.753 200.032 109.664 186.367 109.664 178.067C109.664 174.99 106.931 171.777 105.283 169.306" stroke="black" stroke-width="3" stroke-linecap="round"/>
<path d="M180.575 50.4602C180.13 48.0132 176.854 43.8804 174.261 43.1396C172.335 42.589 170.793 41.8939 168.723 41.7645C166.89 41.65 164.983 41.6941 163.145 41.7452C159.428 41.8484 154.899 45.7869 153.926 49.2595C152.388 54.7546 155 61.0773 157.044 66.1087C160.182 73.8326 172.187 72.3943 178.135 69.4204C181.649 67.6634 184.035 61.6835 183.286 57.8584C182.956 56.172 182.47 54.1199 181.776 52.5325C181.472 51.8371 181.158 49.7058 180.575 49.4144" stroke="black" stroke-width="3" stroke-linecap="round"/>
<path d="M173.702 40.7008C173.702 34.9038 174.094 28.5267 176.359 23.1169C177.474 20.4544 180.657 14.0118 184.354 16.5712C186.161 17.8226 186.454 17.546 187.277 19.3972C188.237 21.5585 190.363 21.8594 192.397 22.4406" stroke="black" stroke-width="3" stroke-linecap="round"/>
<path d="M163.268 40.7006C164.798 36.3006 163.966 29.3385 162.93 24.8075C162.245 21.81 161.716 20.5346 159.355 18.5276C157.038 16.558 153.843 17.7358 152.302 19.8319C151.144 21.4066 150.678 22.6258 148.921 23.4066C143.6 25.7712 138.853 20.0939 140.322 14.9528C142.762 6.41114 154.323 1.32161 161.312 8.31055C162.806 9.80465 164.549 11.113 166.094 12.6582C167.624 14.1878 168.531 13.7194 170.442 12.6582C171.654 11.9848 173.417 9.48443 174.33 8.31055C176.618 5.36867 178.976 4.84303 182.18 3.1175C185.447 1.35849 192.672 2.24311 196.045 3.1175C200.157 4.18378 201.522 8.71416 202.59 12.2234C203.65 15.7053 202.276 18.0621 200.658 20.8946C199.07 23.6727 192.248 23.5952 190.223 21.5709" stroke="black" stroke-width="3" stroke-linecap="round"/>
<path d="M303.282 164.278C304.073 164.278 304.863 164.314 305.654 164.314C306.047 164.314 306.44 164.288 306.809 164.141C306.917 164.098 306.987 164.093 306.977 163.964C306.94 163.502 306.766 163.052 306.616 162.619C306.407 162.014 306.169 161.42 305.946 160.821C305.854 160.575 305.768 160.324 305.664 160.084C305.582 159.896 305.487 160.457 305.448 160.657C305.319 161.327 305.325 162.107 305.019 162.733C304.976 162.822 304.916 162.973 304.804 162.973" stroke="#D7BC5C" stroke-width="3" stroke-linecap="round"/>
<path d="M291.72 164.06C292.321 164.211 293.107 164.62 293.27 163.726C293.37 163.179 293.241 162.701 293.049 162.194C292.996 162.054 292.94 161.924 292.916 161.777" stroke="#D7BC5C" stroke-width="3" stroke-linecap="round"/>
<path d="M289.29 143.205C290.153 143.589 291.055 144.056 291.987 144.242" stroke="#D7BC5C" stroke-width="3" stroke-linecap="round"/>
<path d="M339.075 154.951C338.913 153.983 338.823 152.981 338.629 152.01" stroke="#D7BC5C" stroke-width="3" stroke-linecap="round"/>
<path d="M246.835 139.733L269.271 156.275C270.51 157.189 270.295 159.101 268.884 159.718L243.341 170.877C241.93 171.493 240.381 170.351 240.553 168.821L243.66 141.12C243.832 139.59 245.595 138.82 246.835 139.733Z" fill="#387BDF" stroke="black" stroke-width="2"/>
<path d="M260.26 139.422L277.453 161.363C278.403 162.575 277.684 164.36 276.16 164.577L248.562 168.496C247.038 168.712 245.851 167.197 246.425 165.769L256.83 139.909C257.405 138.481 259.311 138.21 260.26 139.422Z" fill="#DFBB38" stroke="black" stroke-width="2"/>
<rect x="271.853" y="134.169" width="30.8212" height="30.8212" rx="7" transform="rotate(30 271.853 134.169)" fill="#EB3434" stroke="black" stroke-width="2"/>
<rect x="307.245" y="134.772" width="30.8212" height="30.8212" rx="7" transform="rotate(0.878224 307.245 134.772)" fill="#B7A7F8" stroke="black" stroke-width="2"/>
<path d="M337.706 135.877C339.65 139.368 338.66 143.359 335.871 144.912C333.082 146.466 329.167 145.208 327.223 141.717C325.278 138.227 326.269 134.236 329.058 132.682C331.846 131.129 335.761 132.387 337.706 135.877Z" fill="#ADF8BD" stroke="black" stroke-width="2"/>
<path d="M293.252 137.535L294.296 163.219C294.467 167.421 300.175 168.547 301.929 164.725L304.356 159.436C305.172 157.658 307.154 156.731 309.042 157.245L315.936 159.123C319.995 160.228 322.79 155.124 319.674 152.3L299.935 134.409C297.307 132.026 293.108 133.99 293.252 137.535Z" fill="#E63595" stroke="black" stroke-width="2"/>
<path d="M240.916 162.26C242.688 164.192 243.906 165.233 246.599 165.552C248.902 165.825 246.497 161.413 245.668 160.583C244.656 159.571 242.685 159.712 241.475 158.906" stroke="#E2D664" stroke-width="6" stroke-linecap="round"/>
<path d="M240.362 156.179C240.248 157.323 240.075 158.489 240.075 159.656C240.075 161.736 240.373 163.763 240.139 165.843C239.932 167.682 239.334 169.315 238.576 170.994C238.382 171.425 238.066 172.79 238.066 172.317C238.066 171.756 238.104 171.229 238.273 170.691C238.739 169.211 239.013 167.795 239.358 166.289C239.837 164.192 238.812 170.558 238.608 172.7C238.379 175.115 238.327 177.496 238.481 179.916C238.5 180.222 238.492 180.445 238.608 180.721C239.17 182.055 240.729 183.01 241.829 183.91C243.023 184.887 244.214 185.859 245.385 186.86C246.995 188.237 248.786 188.86 250.855 189.189C252.533 189.455 253.731 190.723 255.368 191.166C256.862 191.57 258.447 191.714 259.976 191.915C264.379 192.494 268.817 192.697 273.212 193.279C273.923 193.373 274.663 193.447 275.349 193.67C275.693 193.781 276.015 194.015 276.378 194.06C277.066 194.146 275.639 194.606 275.524 194.634C273.443 195.155 271.061 194.642 268.93 194.642C267.409 194.642 266.027 194.58 264.545 194.204C262.498 193.684 260.429 192.737 258.685 191.549C257.368 190.652 256.271 189.44 255.145 188.327C253.496 186.698 251.767 185.158 250.098 183.551C248.272 181.794 246.755 179.641 244.827 178.01C242.808 176.302 243.455 173.286 244.014 171.041C244.528 168.976 245.396 166.974 245.752 164.87C245.826 164.436 245.76 164.104 245.593 164.711C244.952 167.042 244.524 169.445 244.253 171.847C243.917 174.82 244.183 178.307 246.43 180.554C248.533 182.656 251.629 183.586 254.244 184.843C257.032 186.184 259.595 187.807 262.751 188.032C264.11 188.13 265.487 188.216 266.849 188.152C268.261 188.086 269.583 187.68 270.972 187.506C272.094 187.366 273.572 187.836 274.639 188.04C275.688 188.241 276.638 188.436 277.709 188.327C278.435 188.254 279.177 188.059 279.91 188.12C280.552 188.174 281.007 189.849 281.09 190.369C281.216 191.162 280.891 191.708 280.404 192.314C279.739 193.141 279.009 193.916 278.395 194.786C277.986 195.364 277.625 195.373 278.554 195.216C283.226 194.431 287.823 195.024 292.492 194.674C294.553 194.52 296.637 194.124 298.695 194.068C299.481 194.047 300.764 193.654 301.501 193.893C303.795 194.637 306.46 195.174 308.869 195.328C311.108 195.471 313.416 195.129 315.646 194.929C316.909 194.816 318.181 194.823 319.441 194.69C321.029 194.522 322.578 194.044 324.098 193.574C326.234 192.913 328.615 192.484 330.428 191.118C331.393 190.391 332.221 189.413 333.012 188.503C333.052 188.456 333.465 187.814 333.498 188.08C333.564 188.61 333.517 189.203 333.474 189.731C333.15 193.731 327.725 194.951 324.48 194.905C319.79 194.839 315.156 193.818 310.559 193C301.06 191.308 291.497 189.978 282.023 188.152C277.073 187.198 272.223 185.874 267.296 184.835C266.018 184.566 264.332 184.574 263.142 183.966C259.867 182.294 256.457 180.703 253.542 178.425C252.21 177.383 251.199 175.792 250.696 174.175C249.869 171.517 249.334 168.719 249.252 165.938C249.219 164.798 249.27 163.512 249.109 162.382C249.085 162.216 248.922 162.667 248.878 162.829C248.105 165.642 247.503 168.501 246.892 171.352C246.373 173.777 245.868 176.216 245.242 178.616C244.944 179.759 244.712 181.064 243.4 181.359C242.944 181.461 241.914 181.759 241.463 181.55C241.262 181.458 243.081 180.397 243.129 180.378C247.3 178.685 250.998 181.417 255.097 181.909C258.174 182.278 261.273 182.205 264.362 182.363C267.608 182.53 270.691 182.457 273.93 182.06C277.148 181.667 286.755 180.489 283.633 181.367C282.092 181.8 280.112 181.486 278.586 181.247C274.405 180.592 270.519 178.94 266.618 177.372C263.885 176.274 260.947 175.288 258.414 173.752C257.303 173.079 256.769 171.879 255.783 171.057C253.902 169.491 252.001 167.423 250.839 165.221C250.492 164.564 250.574 164.332 251.397 164.248C253.877 163.995 256.292 164.88 258.733 165.125C260.346 165.287 261.988 165.108 263.588 165.396C264.639 165.585 265.677 165.955 266.69 166.289C267.726 166.632 268.608 166.641 269.64 166.831C271.071 167.095 272.679 167.104 274.137 167.198C276.128 167.328 278.138 167.503 280.101 167.868C287.659 169.273 295.301 168.948 302.921 169.463C305.227 169.618 307.559 169.239 309.873 169.239C311.864 169.239 313.916 169.242 315.885 168.92C319.753 168.289 323.622 167.517 327.414 166.544C329.412 166.032 331.237 164.991 333.275 164.583C335.015 164.235 336.75 163.573 338.378 162.861C338.988 162.594 339.252 162.213 339.741 161.864C339.876 161.768 339.679 162.502 339.677 162.51C339.514 163.451 339.423 164.41 339.398 165.364C339.344 167.436 339.604 169.501 339.526 171.576C339.465 173.184 339.071 174.845 338.888 176.447C338.669 178.372 338.45 180.302 338.083 182.204C337.697 184.203 337.271 186.364 336.026 188.024C335.348 188.928 334.217 189.545 333.275 190.121C332.169 190.798 331.025 191.175 329.743 191.373C325.623 192.009 321.377 191.682 317.241 191.461C312.741 191.22 308.072 191.148 303.718 189.858C300.899 189.024 298.126 188.192 295.242 187.578C292.794 187.057 290.318 186.62 287.851 186.191C287.284 186.092 286.809 186.106 286.24 186.207C284.144 186.578 282.119 186.747 279.989 186.478C277.513 186.164 275.094 185.392 272.67 184.819C270.482 184.302 268.332 183.73 266.18 183.081C263.983 182.418 261.719 181.989 259.538 181.279C256.995 180.452 254.348 178.461 253.63 175.714C253.482 175.148 254.659 175.542 254.85 175.586C257.085 176.109 259.173 177.21 261.284 178.074C263.473 178.969 265.699 179.858 268.085 179.987C269.034 180.039 268.97 179.699 268.364 178.967C266.203 176.35 263.105 174.477 260.519 172.317C259.435 171.412 259.204 171.186 258.27 170.34C258.019 170.112 257.398 169.992 257.505 169.67C257.638 169.269 260.95 169.584 261.029 169.59C264.427 169.87 267.787 170.526 271.171 170.93C277.397 171.673 283.556 171.169 289.797 170.914C293.855 170.748 297.915 170.772 301.972 170.539C304.49 170.394 307.017 170.314 309.538 170.451C310.199 170.487 311.252 170.482 311.883 170.826C311.991 170.885 311.856 171.207 311.978 171.185C314.036 170.817 316.071 170.151 318.142 169.774C320.38 169.366 322.652 169.104 324.879 168.633C327.186 168.145 329.221 167.678 331.608 167.661C332.719 167.653 334.01 167.412 335.109 167.541C335.384 167.574 335.228 169.403 335.228 169.606C335.228 171.616 335.135 173.67 334.909 175.666C334.642 178.028 334.219 180.981 332.868 183.017C331.464 185.133 329.026 186.955 326.745 187.993C325.234 188.679 323.527 188.764 321.897 188.894C319.487 189.085 317.065 189.059 314.657 188.838C311.668 188.563 308.721 187.968 305.727 187.706C301.433 187.329 297.008 187.632 292.747 186.972C290.602 186.64 288.682 185.444 286.695 184.644C285.144 184.02 283.531 183.575 281.951 183.033C280.631 182.581 279.37 181.956 278.06 181.47C275.571 180.548 273.047 179.749 270.589 178.744C270.053 178.524 266.251 177.488 267.934 176.543C269.205 175.829 270.673 175.614 272.112 175.586C276.886 175.493 281.674 176.122 286.448 176.232C291.219 176.342 296.002 176.301 300.752 175.809C305.14 175.356 309.502 174.721 313.876 174.151C316.753 173.776 319.706 173.677 322.551 173.083C323.94 172.792 325.283 172.33 326.673 172.038C327.823 171.797 328.815 171.536 329.99 171.536C330.825 171.536 331.222 172.994 331.289 173.585C331.59 176.225 329.491 178.729 327.933 180.617C326.156 182.77 323.69 184.232 320.956 184.843C318.263 185.446 315.347 185.469 312.6 185.569C308.445 185.719 304.446 184.975 300.329 184.548C297.761 184.282 295.757 184.145 293.177 183.99C291.272 183.875 289.197 183.955 287.293 183.671C286.228 183.512 287.611 182.471 287.883 182.292C289.412 181.285 291.219 180.821 293.018 180.609C297.165 180.121 301.369 180.363 305.528 180.506C311.093 180.697 316.679 180.92 322.248 180.88C325.136 180.86 328.118 180.735 330.811 179.581C331.314 179.365 332.588 178.891 332.868 178.313C333.086 177.863 330.807 177.664 330.755 177.659C326.019 177.249 321.127 178.08 316.435 178.624C309.828 179.39 303.133 178.439 296.622 177.276" stroke="#E2D664" stroke-width="6" stroke-linecap="round"/>
<path d="M238.88 152.88C238.88 156.21 236.812 159.906 236.143 163.253C234.953 169.202 231.864 177.059 235.717 182.69C239.699 188.511 245.358 190.546 251.261 193.671C256.204 196.289 262.422 197.387 267.899 197.899C273.204 198.395 277.998 198.955 283.352 198.325C288.437 197.727 293.676 197.404 298.743 198.325C309.035 200.196 319.309 199.718 329.496 197.504C336.109 196.066 339.575 190.406 340.842 184.211C342.113 177.997 342.911 172.088 342.911 165.717C342.911 163.738 342.831 161.785 341.937 159.998C341.309 158.741 340.173 156.957 340.173 155.618" stroke="black" stroke-width="3" stroke-linecap="round"/>
<path d="M238.883 151.745C240.938 154.905 245.104 156.463 248.349 157.947C253.122 160.128 258.378 160.892 263.467 162.001C264.458 162.217 264.846 162.286 265.632 162.723C266.408 163.154 268.171 163.119 269.051 163.169C270.977 163.279 272.861 163.316 274.771 163.668C280.193 164.666 285.769 165.792 291.298 165.952C303.515 166.307 315.272 166.001 327.152 162.946C329.549 162.33 331.794 161.321 334.058 160.335C335.226 159.826 336.902 159.435 337.838 158.548C338.707 157.724 339.198 156.755 339.693 155.765" stroke="black" stroke-width="3" stroke-linecap="round"/>
<path d="M12.6409 183.352C14.247 181.043 16.9317 179.834 19.2172 178.31" stroke="#D7BC5C" stroke-width="3" stroke-linecap="round"/>
<path d="M20.4605 177.347C19.5392 178.101 18.1092 178.601 16.9389 178.756C15.9969 178.88 15.1899 178.63 14.2336 178.996C13.6552 179.217 13.3355 179.589 12.897 179.94C11.6201 180.962 12.5463 182.552 13.1131 183.686C13.6787 184.817 13.9531 186.07 14.2657 187.288C14.423 187.901 14.8383 189.584 15.5062 189.881C16.1969 190.188 16.7791 190.487 17.4191 190.913C18.8015 191.835 20.3055 192.322 21.9492 192.522C22.954 192.645 23.9035 192.665 24.8466 193.042C26.9564 193.886 29.0458 193.887 31.2975 193.915C32.736 193.932 34.127 193.947 35.5715 193.915C39.3199 193.831 42.9337 192.63 46.6967 192.482C47.8254 192.438 48.8787 192.465 49.9942 192.17C50.6317 192.001 51.3137 191.542 51.9631 191.474C53.0358 191.361 54.1187 191.472 55.1966 191.321C56.8314 191.093 58.433 190.672 60.0789 190.489C62.082 190.267 63.9957 190.051 65.9696 189.561C67.9966 189.057 69.9135 188.807 71.9724 188.472C73.4292 188.235 74.9613 187.655 76.4304 187.584C77.891 187.512 79.3268 187.315 80.7684 187.063C82.4159 186.776 83.6937 186.016 85.1465 185.271C85.8004 184.935 86.4717 184.654 87.1634 184.406C88.6259 183.882 89.9863 182.882 91.3253 182.117C92.124 181.661 92.9131 181.378 93.5984 180.781C94.7039 179.817 95.8465 178.708 96.5598 177.411C96.8044 176.966 97.1027 176.481 97.3921 176.05C97.72 175.563 98.1508 175.159 98.4807 174.674C98.7187 174.323 98.8536 173.905 99.177 173.617C99.8523 173.017 99.4876 171.61 99.4091 170.864C99.2709 169.551 97.6492 169.207 96.5918 168.919C92.4599 167.792 88.2178 167.606 83.9699 167.19C82.2324 167.02 80.4889 166.919 78.7515 166.75C77.0118 166.581 75.3267 166.33 73.5731 166.486C70.9921 166.716 68.4118 167.083 65.8415 167.406C63.9162 167.649 62.0913 167.47 60.1749 167.47C58.8152 167.47 57.2731 167.743 55.9169 167.919C53.4513 168.238 51.0421 168.917 48.6016 169.423C43.5565 170.469 38.3065 170.633 33.2184 171.44C31.2932 171.746 29.585 172.491 27.7759 173.169C26.3489 173.704 24.8131 173.825 23.4059 174.394C22.1969 174.882 18.9057 175.216 18.8758 176.979C18.8068 181.047 18.3593 187.528 23.7981 188.072C27.2942 188.422 30.8152 187.765 34.3149 187.792C39.6406 187.833 44.8505 187.143 50.0902 186.295C54.0276 185.658 58.0511 185.24 61.8797 184.07C64.667 183.218 67.3333 182.037 70.1475 181.261C73.8115 180.25 77.5865 179.932 81.3207 179.284C83.2696 178.946 85.1257 178.307 87.0353 177.811C88.1807 177.514 89.2701 177.184 90.3329 176.659C91.0247 176.316 94.352 174.697 93.8945 173.553C93.6663 172.983 90.1247 173.245 89.7166 173.225C85.8658 173.042 82.0174 172.786 78.1592 172.905C73.679 173.043 69.4205 174.4 64.9131 174.29C51.1871 173.955 37.9329 179.22 24.2143 179.22C23.4029 179.22 23.1291 179.12 22.9897 179.956C22.919 180.38 22.7295 181.114 23.1898 181.381C23.7065 181.681 24.4377 181.719 25.0066 181.749C27.4357 181.879 29.8932 181.769 32.322 181.741C39.5576 181.658 46.7928 181.672 54.0281 181.557C56.7789 181.513 59.5988 181.698 62.3039 181.093C63.5979 180.803 64.8714 180.356 66.1297 179.94C69.7976 178.728 73.5432 178.144 77.3669 177.627C80.126 177.254 82.744 176.733 85.4346 176.194" stroke="#D7BC5C" stroke-width="8" stroke-linecap="round"/>
<path d="M280.308 100.108C280.308 108.751 286.022 117.603 288.217 125.945C289.958 132.563 291.681 139.149 293.783 145.689C297.102 156.016 298.5 155.107 298.5 166" stroke="black" stroke-width="3" stroke-linecap="round"/>
<path d="M23.2346 150.213C24.1352 152.239 23.5875 155.403 23.5875 157.622C23.5875 162.715 22.4674 167.523 23.4111 172.618C23.8633 175.06 24.0489 177.348 24.9205 179.695C25.3353 180.812 25.7665 182.995 27.116 183.38C30.2248 184.268 33.5526 183.763 36.29 182.145C39.6853 180.139 41.4366 177.513 42.4452 173.775C43.017 171.656 43.0926 169.499 43.5233 167.345C43.8852 165.536 43.4103 163.65 43.7782 161.857C44.6341 157.684 44.4055 153.406 44.4055 149.154" stroke="black" stroke-width="3" stroke-linecap="round"/>
<path d="M83.5714 147.743C83.402 149.352 82.0407 151.056 81.3171 152.428C79.4506 155.966 77.8103 159.652 75.7304 163.072C74.3411 165.357 73.1966 167.733 72.3587 170.246C71.5513 172.669 70.8517 175.643 69.4575 177.735" stroke="black" stroke-width="3" stroke-linecap="round"/>
<path d="M66.9878 147.743C68.542 151.162 69.8427 154.658 71.7512 157.916C73.8028 161.419 76.2435 164.673 78.2789 168.188C79.8063 170.827 81.6362 174.563 84.2773 176.323" stroke="black" stroke-width="3" stroke-linecap="round"/>
<path d="M7.44995 182.305C7.44995 191.462 16.5861 198.61 25.274 198.717C38.3501 198.878 51.2439 196.391 64.1575 194.717C71.9286 193.709 79.5813 191.873 86.7464 188.658C91.4272 186.558 96.9484 184.48 100.07 180.187" stroke="black" stroke-width="3" stroke-linecap="round"/>
<path d="M56.6868 121.42C56.6868 134.707 60.2621 147.807 63.0399 160.716C63.9082 164.751 64.4385 168.715 65.04 172.775C65.4481 175.53 65.0311 178.421 65.8047 181.128C66.6458 184.072 67.2753 188.237 67.2753 191.305" stroke="black" stroke-width="3" stroke-linecap="round"/>
<path d="M102.529 168.649C104.838 169.872 105.701 173.274 104.355 175.428C103.105 177.428 101.638 178.822 100.015 180.444" stroke="black" stroke-width="3" stroke-linecap="round"/>
<path d="M52.2537 164.975C54.6929 164.975 57.2317 164.509 59.6445 164.159C61.2642 163.924 62.9007 163.884 64.5216 163.622C66.9945 163.221 69.662 162.655 72.1703 162.655C74.1437 162.655 76.0769 163.042 78.0572 163.042C81.8225 163.042 85.3933 163.444 89.036 164.395C91.0033 164.909 92.8617 165.037 94.837 165.319C97.5593 165.708 100.044 166.542 102.335 168.069" stroke="black" stroke-width="3" stroke-linecap="round"/>
<path d="M6.42603 181.411C6.72862 178.385 9.28521 176.607 11.6039 175.116C12.9326 174.262 14.694 174.033 16.0943 173.333C17.8388 172.461 19.8129 171.964 21.6804 171.367C24.0087 170.622 26.2345 170.057 28.416 169.122C31.11 167.967 34.5231 167.672 37.4397 167.295C39.9135 166.976 42.3698 166.606 44.8628 166.329C47.285 166.06 49.8255 165.362 52.2536 165.362" stroke="black" stroke-width="3" stroke-linecap="round"/>
</svg>
