<svg width="555" height="199" viewBox="0 0 555 199" fill="none" xmlns="http://www.w3.org/2000/svg">
<path d="M7.60059 100.765C7.60059 101.14 7.76763 101.46 7.80777 101.801C7.82805 101.974 8.02911 102.12 8.08403 102.285" stroke="#F43535" stroke-width="8" stroke-linecap="round"/>
<path d="M7.66965 102.008C7.24748 100.976 7.79725 99.9754 7.80777 98.9542C7.81573 98.1827 7.78024 97.4078 7.80777 96.6368C7.81266 96.5001 7.8666 96.6712 7.89218 96.6598C8.03453 96.5966 8.02609 95.6213 8.04566 95.4704C8.14973 94.6676 8.35094 93.7565 8.2068 92.9458C8.15717 92.6665 8.16149 92.3468 8.06868 92.0786C7.98886 91.848 7.81322 91.6417 7.73871 91.3995C7.47244 90.5341 6.98182 89.745 7.04808 88.8173C7.06209 88.6213 7.16967 89.1912 7.23225 89.3775C7.493 90.1538 7.85509 90.8773 8.26052 91.5875C8.74713 92.44 9.271 93.2925 9.8106 94.1122C10.2277 94.7458 10.8689 95.2341 11.2494 95.8809C11.676 96.6062 12.166 97.3485 12.7112 98.0027" stroke="#F43535" stroke-width="8" stroke-linecap="round"/>
<path d="M12.7114 98.2791C13.9388 99.5678 15.2981 100.626 16.3948 102.047C17.0629 102.913 17.4743 103.943 18.0485 104.867C18.2444 105.182 18.5216 105.365 18.7813 105.623C19.2323 106.07 19.6706 106.538 20.0935 107.012C20.3819 107.335 20.6578 107.668 20.9644 107.975C21.2371 108.247 21.5975 108.483 21.8124 108.807C22.3027 109.548 22.5402 110.447 22.9634 111.225C23.4891 112.191 24.0359 113.189 24.6248 114.117C25.2856 115.159 26.1455 116.172 26.478 117.383C26.5831 117.765 26.5746 118.229 26.7504 118.587C26.9429 118.98 27.5965 119.243 27.9129 119.535C28.2886 119.881 28.6708 120.266 28.9873 120.671C29.1934 120.935 29.4981 121.186 29.6472 121.484C29.7871 121.764 29.8686 122.068 29.9618 122.367C30.5014 124.093 30.1578 126.21 29.8429 127.942C29.7287 128.57 30.0541 129.403 30.1844 130.01C30.2791 130.451 30.3839 130.91 30.3839 131.364C30.3839 131.661 30.2445 131.471 30.1153 131.36" stroke="#F43535" stroke-width="8" stroke-linecap="round"/>
<path d="M8.42944 105.323C9.79536 106.309 11.0843 107.374 12.4428 108.37C13.1527 108.891 13.9242 109.383 14.5492 110.008C15.134 110.593 15.6287 111.251 16.2336 111.815" stroke="#F43535" stroke-width="8" stroke-linecap="round"/>
<path d="M14.9905 113.266C16.5281 115.188 18.4574 116.765 20.0704 118.622C21.3402 120.083 21.8442 122.001 22.526 123.779C23.0072 125.033 23.5535 126.169 24.1605 127.366C24.5232 128.081 24.7526 128.854 25.0698 129.588C25.1483 129.769 25.2118 129.94 25.2118 130.14C25.2118 130.56 24.9189 129.351 24.7514 128.966C24.3575 128.06 24.0833 127.185 23.7845 126.257C23.4292 125.155 22.4441 124.082 21.609 123.307C21.2787 123 20.9636 122.676 20.5654 122.459C20.5103 122.429 20.3352 122.355 20.3122 122.275C20.2799 122.162 20.5242 122.395 20.5884 122.493C21.3451 123.651 21.9604 124.924 22.5989 126.15C23.3009 127.498 23.7478 129.24 24.8972 130.309C25.3553 130.735 25.8198 131.084 26.2324 131.567C26.9745 132.437 27.3673 133.65 27.8362 134.675C28.2364 135.55 28.8246 136.211 29.3556 136.989C29.7404 137.552 29.9575 138.206 30.2265 138.827C30.3632 139.142 30.585 139.385 30.6678 139.717" stroke="#F43535" stroke-width="8" stroke-linecap="round"/>
<path d="M34.6807 125.333C35.0417 125.453 35.3148 126.324 35.4961 126.632C35.9478 127.4 36.3956 128.204 36.903 128.935C37.3724 129.612 37.5585 130.246 37.8528 131.023C38.3616 132.366 39.0646 133.615 39.6092 134.939C40.4357 136.95 41.3369 138.909 42.3154 140.853C42.6656 141.549 43.9278 143.503 43.4176 142.914C41.8047 141.053 40.2429 139.252 38.2471 137.771C37.3688 137.119 35.9586 136.721 35.7739 135.692C35.3063 133.087 37.6148 140.672 38.1934 143.255C38.7175 145.595 40.1264 147.703 41.1684 149.832C41.4733 150.455 43.0422 153.586 42.5842 154.044" stroke="#F43535" stroke-width="8" stroke-linecap="round"/>
<path d="M35.8098 142.753C37.657 145.027 38.5154 147.925 40.3799 150.227C41.6025 151.736 42.8174 153.137 43.6775 154.904C44.4163 156.422 45.1147 157.979 45.649 159.582C45.797 160.026 45.8934 160.419 46.1328 160.818" stroke="#F43535" stroke-width="8" stroke-linecap="round"/>
<path d="M41.4551 156.625C42.2509 159.012 44.1261 160.591 45.4517 162.629C46.8942 164.846 48.0789 167.218 49.3586 169.529C50.7207 171.988 52.594 173.732 54.556 175.694C55.7122 176.85 56.7754 178.142 57.9791 179.242C59.3996 180.541 60.8801 182.407 61.4918 184.242C61.8091 185.194 61.9712 186.193 62.3879 187.11C62.532 187.427 62.7463 187.725 62.7463 188.078" stroke="#F43535" stroke-width="8" stroke-linecap="round"/>
<path d="M60.1658 179.045C59.552 177.756 59.5579 175.931 59.5296 174.529C59.4816 172.155 59.7112 169.796 59.6998 167.432C59.6901 165.396 59.194 163.533 58.3915 161.706C57.2662 159.142 55.2577 157.731 53.3555 155.782C52.1932 154.592 51.2474 153.156 50.1833 151.875C49.1387 150.618 48.2396 149.304 47.4144 147.897C46.6274 146.554 45.4621 144.893 45.1741 143.309C45.0783 142.782 45.3448 142.066 45.4878 141.57C45.5915 141.21 45.6269 141.175 45.6849 141.588C45.9821 143.709 46.4381 145.812 46.9215 147.897C48.0572 152.794 49.649 157.431 51.5185 162.082C52.1322 163.609 52.6077 165.292 53.4899 166.697C54.1243 167.707 55.1565 168.386 55.8108 169.367" stroke="#F43535" stroke-width="8" stroke-linecap="round"/>
<path d="M14.7554 83.9192C17.0043 85.7281 20.8676 87.9672 21.6296 91.0152" stroke="#F04646" stroke-width="8" stroke-linecap="round"/>
<path d="M9.11987 82.2023C10.6545 83.9075 11.6436 86.3569 13.6041 87.6414C16.07 89.257 17.896 91.7809 20.1128 93.582C23.0486 95.9673 24.0714 99.8736 25.6788 103.088C25.7483 103.227 25.7805 103.472 25.9265 103.56C25.9841 103.594 25.9809 102.823 25.9809 102.798C25.9809 101.944 25.9872 101.09 25.9809 100.236C25.9615 97.5956 25.9065 94.952 25.5216 92.3431C25.4044 91.5488 25.1829 90.7463 25.0261 89.962C24.7456 88.5599 24.4334 86.6499 23.3641 85.5806C22.3674 84.5838 21.0045 83.8149 19.6777 83.3506C19.5496 83.3057 18.8526 83.2873 19.1761 82.9638C19.5955 82.5443 20.5937 82.28 21.1402 82.16C22.0162 81.9677 22.9639 81.876 23.8597 81.876C24.3554 81.876 25.5232 81.5949 25.7634 81.1145" stroke="#F04646" stroke-width="8" stroke-linecap="round"/>
<path d="M32.6213 102.233C32.6902 104.094 33.1543 106.653 33.6902 108.462C33.8768 109.092 35.1349 111.182 34.5379 111.779C34.261 112.056 33.7064 109.845 33.6902 109.715C33.4198 107.552 33.5422 105.299 33.3585 103.118C33.0454 99.3993 32.6177 95.684 32.308 91.9681C32.1962 90.6265 32.8032 88.3627 32.1237 87.1397C31.8162 86.5861 31.2944 85.2945 31.2944 84.6519C31.2944 82.4846 31.9092 88.946 32.3633 91.0651C33.4576 96.1717 34.9923 101.156 36.8599 106.029C38.1374 109.363 39.4615 112.489 41.246 115.575C42.0861 117.029 42.6808 118.222 43.2363 119.777C43.4178 120.285 44.2166 121.582 43.181 120.754C41.1243 119.109 39.5406 117.018 37.9841 114.912C37.3392 114.039 36.6509 112.72 35.7726 112.037C35.2237 111.61 34.8603 111.924 35.1276 112.535C36.0426 114.626 35.6646 117.354 37.2654 119.132C40.316 122.522 44.3368 124.89 46.8115 128.77C48.6705 131.686 50.0506 135.156 52.377 137.727C53.2389 138.68 54.1066 139.72 54.8649 140.731C56.5659 142.999 58.2505 145.514 59.8038 147.844C60.4809 148.86 60.9054 149.777 61.1491 150.996" stroke="#ED1919" stroke-width="8" stroke-linecap="round"/>
<path d="M59.8222 148.01C59.3218 142.755 59.0141 137.212 58.0899 132.014C57.9679 131.328 58.0974 129.307 57.6661 128.789C56.2234 127.058 54.6672 125.394 52.8561 123.979C52.5741 123.759 49.0464 120.576 48.9492 120.625C48.0433 121.078 53.6622 130.906 54.699 131.719C55.3103 132.198 55.1736 130.741 55.1597 130.54C55.047 128.905 54.394 127.497 53.6486 126.061C51.7949 122.491 49.3632 119.136 47.0695 115.833C43.3188 110.432 41.8338 104.253 38.8502 98.5841C38.5204 97.9575 38.0026 96.528 37.4496 96.133C37.3295 96.0473 38.3103 98.5093 38.4264 98.7868C39.284 100.838 40.0116 102.919 41.0985 104.868C43.099 108.455 45.8992 110.826 48.7281 113.696C49.8654 114.849 50.5273 116.603 51.861 117.492" stroke="#ED1919" stroke-width="8" stroke-linecap="round"/>
<path d="M35.6068 77.6858C35.1809 77.7331 34.0537 77.9873 34.4642 78.5151C36.5445 81.1898 39.0617 83.4662 41.0433 86.2552C42.5549 88.3826 43.3478 90.843 44.8949 92.9449C46.5072 95.1351 48.0845 97.3472 49.6864 99.5424C51.5729 102.128 53.8682 104.85 55.3441 107.688C56.399 109.717 57.2715 111.852 58.348 113.862C59.8407 116.648 61.7825 119.271 63.4712 121.804" stroke="#ED1919" stroke-width="8" stroke-linecap="round"/>
<path d="M50.811 106.65C51.0042 107.616 51.922 108.562 52.3615 109.441C52.6731 110.064 53.4173 112.018 53.1057 111.395C51.7673 108.718 50.8088 105.746 49.6946 102.96C49.0329 101.306 48.4998 99.6096 48.0821 97.8746C47.5955 95.853 48.0248 91.7278 45.8494 90.6804C45.0035 90.2731 45.0938 87.2839 44.9502 86.4941C44.6149 84.6503 44.1052 83.0188 43.4307 81.2845C43.1324 80.5174 40.5691 78.6884 41.4771 77.7804C42.684 76.5735 43.927 75.8268 45.6479 75.2532C47.8788 74.5095 50.0665 73.7637 52.3304 73.16C53.9359 72.7319 54.1768 72.2958 55.2763 73.7802C56.5654 75.5204 58.0197 77.52 59.5247 79.0828C60.0272 79.6047 62.1044 82.0948 61.4162 80.3542C60.843 78.9044 59.9016 77.5827 59.5247 76.0749C58.8099 73.2158 61.9985 81.4284 63.3853 84.0289C64.3131 85.7683 65.6458 87.1928 66.3002 89.0834C66.875 90.7438 67.827 92.2455 68.6104 93.8124C70.2839 97.1592 71.9183 100.606 73.541 103.999C75.4213 107.931 76.5393 112.169 78.7196 115.984C79.1549 116.746 80.0482 117.485 80.3941 118.263C81.2009 120.079 80.2349 120.583 78.3784 121.442C73.795 123.562 69.1751 124.451 64.2691 125.411C62.0013 125.855 62.5462 125.504 62.1915 123.613C60.2369 113.188 58.3164 102.725 55.4934 92.4789C54.9733 90.5912 53.9045 88.8599 53.0437 87.1143C52.508 86.028 52.0333 84.92 51.6637 83.7653C51.3542 82.798 51.3225 81.1869 50.6869 80.3697C50.5525 80.1969 50.6436 82.3111 50.6559 82.4009C50.9584 84.6022 51.4944 86.7882 52.0824 88.9284C53.3546 93.5594 55.5151 97.6041 57.9122 101.735C60.0472 105.415 62.47 108.541 65.4785 111.55C67.6093 113.681 68.8808 115.496 70.1919 118.17C71.243 120.314 71.4723 119.06 69.8973 118.822C69.7023 118.792 68.2383 118.677 68.2383 119.147C68.2383 119.867 69.4109 118.299 69.9128 117.783C71.1426 116.518 71.9754 114.338 71.1532 112.635C69.5881 109.393 67.7555 106.292 66.0056 103.146C64.2643 100.016 62.3777 97.0348 61.4783 93.5333C60.824 90.9864 60.3788 88.3911 59.7417 85.8429C59.0773 83.1854 57.179 81.4747 55.9586 79.1449C55.1596 77.6196 54.2506 76.4793 56.1136 75.5477C57.2566 74.9763 57.8866 74.2764 59.1835 74.2764" stroke="#ED1919" stroke-width="8" stroke-linecap="round"/>
<path d="M76.9448 119.393C76.4735 118.77 75.8022 117.448 75.1135 117.104" stroke="#ED1919" stroke-width="8" stroke-linecap="round"/>
<path d="M65.0415 129.923C65.0415 133.819 65.8981 137.334 67.1017 141.012C67.9214 143.517 68.7448 146.093 69.1619 148.693C69.4403 150.429 69.9514 152.515 69.1619 154.187C68.5614 155.459 67.6272 156.416 66.8728 157.57C66.0916 158.765 66.2375 157.524 66.1352 156.603C65.8173 153.743 65.9661 150.866 65.5502 148.007C65.4246 147.143 65.7282 146.088 65.7282 145.488" stroke="#ED1919" stroke-width="8" stroke-linecap="round"/>
<path d="M69.8484 157.392C73.9904 157.28 78.5404 156.699 82.4894 155.382C84.9684 154.556 84.7276 151.886 84.7276 149.711C84.7276 147.799 84.525 145.91 84.4987 144.013C84.4615 141.334 84.0409 138.703 84.0409 136.052C84.0409 133.165 84.0409 130.279 84.0409 127.392C84.0409 126.436 84.5272 124.717 83.1761 125.37C79.398 127.194 74.7849 128.075 70.6496 128.562C68.3252 128.835 70.1347 132.999 70.5352 134.323C71.8391 138.633 72.733 142.922 74.6047 147.04C75.2592 148.48 75.7191 150.309 76.7157 151.555C77.3491 152.346 80.1064 146.604 80.2384 145.984C81.1288 141.806 79.8941 138.248 77.9112 134.679C77.1121 133.24 76.4868 132.212 76.4868 130.609" stroke="#ED1919" stroke-width="8" stroke-linecap="round"/>
<path d="M64.8125 164.946C65.2592 164.896 65.666 164.455 66.0588 164.259C67.3135 163.632 68.6174 163.364 69.9757 163.064C73.0569 162.382 76.1421 161.747 79.2338 161.105C81.3878 160.658 83.5836 160.127 85.7959 160.189C86.9605 160.222 87.0067 159.619 87.9324 159.045C89.5835 158.022 92.1612 158.078 94.0621 158.078C96.36 158.078 98.5364 158.037 100.802 157.621C103.003 157.216 105.024 156.934 107.263 156.934C112.422 156.934 117.569 155.814 122.396 153.958C124.782 153.04 127.448 152.444 130.001 152.356C130.356 152.343 131.779 152.125 132.061 152.406C132.428 152.773 132.387 154.738 132.57 155.331C133.328 157.794 133.307 160.577 133.714 163.114C134.165 165.924 134.815 168.685 135.317 171.482C135.558 172.827 136.004 174.106 136.004 175.476C136.004 176.408 136.473 176.441 135.533 176.735C134.133 177.172 132.636 177.365 131.184 177.536C127.736 177.941 124.191 177.58 120.781 178.35C117.062 179.189 113.545 180.672 109.908 181.783C105.445 183.147 101.028 184.837 96.8599 186.921C94.8801 187.911 92.3777 188.164 90.2215 188.523C86.9779 189.064 83.7214 189.516 80.4801 190.075C78.7467 190.374 77.2792 190.813 75.4695 190.813C72.7101 190.813 69.9941 190.866 67.2542 191.219C66.2405 191.35 66.3687 190.989 66.5929 190.177C67.0441 188.541 66.7308 186.057 66.5929 184.403C66.348 181.464 65.98 178.489 65.4992 175.577C65.2311 173.953 64.8125 172.433 64.8125 170.783C64.8125 169.518 69.0206 169.162 69.5306 169.053C73.9479 168.113 78.4173 167.316 82.871 166.561C88.7793 165.559 94.7 165.021 100.561 163.712C107.631 162.133 115.109 161.759 122.04 159.554C123.267 159.163 124.623 158.92 125.906 158.778C126.351 158.728 126.602 158.769 126.86 159.172C127.614 160.351 128.236 161.637 128.971 162.835C130.281 164.969 130.052 168.082 130.052 170.503C130.052 171.284 130.216 172.404 129.696 173.072C129.008 173.956 126.758 174.337 125.715 174.077C124.906 173.874 124.619 171.494 124.444 170.885C123.97 169.237 123.636 167.51 122.968 165.925C122.196 164.09 119.423 164.28 117.945 165.225C116.627 166.069 115.713 167.469 114.499 168.456C113.089 169.601 111.597 169.786 109.819 169.982C101.799 170.866 93.7771 169.616 85.7451 169.893C81.9367 170.024 76.9767 169.673 73.6128 171.826C72.2636 172.689 70.1889 173.1 69.0855 174.204C68.7759 174.513 69.1142 175.368 69.1745 175.73C69.4561 177.419 70.4908 178.809 71.2474 180.308C72.0092 181.817 72.3665 183.121 72.3665 184.81C72.3665 185.765 72.6662 184.186 72.6972 184.072C73.412 181.445 74.0109 178.529 75.9274 176.467C76.9174 175.403 78.3432 174.84 79.6154 174.204C80.2221 173.9 80.3771 173.708 80.0477 174.458C78.3595 178.304 75.3744 181.154 73.4602 184.861C72.83 186.081 71.8933 187.182 71.3237 188.422C71.1312 188.841 74.4991 187.919 74.5285 187.913C83.0164 186.121 91.3029 183.578 99.7595 181.656C104.744 180.523 109.708 179.402 114.588 177.892C116.361 177.343 119.733 176.42 120.985 174.891C121.787 173.91 121.293 171.53 120.336 170.846C119.176 170.018 116.752 172.023 115.923 172.5C112.166 174.662 108.21 175.386 103.931 175.577C98.0068 175.841 92.0555 175.888 86.152 176.506C83.7279 176.759 78.2893 177.29 80.8235 181.249C81.2097 181.853 81.7036 181.628 82.3241 181.465C85.5267 180.628 88.6605 179.874 91.9384 179.38C94.3299 179.019 96.7426 178.692 99.149 178.451" stroke="#ED1919" stroke-width="8" stroke-linecap="round"/>
<path d="M89.0916 125.303C89.7353 124.788 90.8593 124.5 91.6476 124.369C92.1567 124.284 92.6123 124.049 93.1138 123.953C93.6885 123.843 94.5577 124.183 95.06 123.979C99.4511 122.195 103.928 120.685 108.697 120.061C112.317 119.587 115.967 119.451 119.582 118.984C125.644 118.202 130.82 115.826 136.502 113.859C136.917 113.715 137.324 113.526 137.747 113.405C138.923 113.069 135.331 113.784 134.127 114.002C130.695 114.623 127.196 115.059 123.968 116.428C123.053 116.816 122.042 116.953 121.062 117.077C120.746 117.117 119.898 117.31 120.594 116.973C124.78 114.948 129.223 113.91 133.686 112.704C136.687 111.893 139.63 110.873 142.703 110.356C144.812 110.001 146.945 109.781 149.061 109.474C151.722 109.087 154.367 108.64 156.95 107.917C157.253 107.832 159.145 107.328 159.156 107.605C159.223 109.372 159.358 111.163 159.389 112.925C159.456 116.723 160.385 120.409 161.024 124.135C161.376 126.187 161.491 128.13 161.491 130.207C161.491 131.396 161.736 132.9 161.478 134.061C161.213 135.255 158.757 136.053 157.806 136.279C155.051 136.936 152.119 136.746 149.398 137.447C146.766 138.125 143.96 138.136 141.263 138.498C137.409 139.016 133.171 139.427 129.521 140.847C129.408 140.891 125.816 142.488 125.862 142.533C125.991 142.662 126.227 142.508 126.407 142.481C128.139 142.227 129.874 142.11 131.623 142.027C135.18 141.859 138.725 142.12 142.275 141.988C142.944 141.964 143.047 141.941 143.612 141.898C144.166 141.855 143.446 141.984 143.43 141.988C138.374 143.252 133.283 144.349 128.146 145.232C124.496 145.86 120.522 146.023 116.936 147.023C111.242 148.609 105.038 149.196 99.173 149.929C96.7327 150.234 91.3199 151.389 89.6106 148.891C88.3347 147.026 88.8059 143.484 88.9878 141.405C89.2973 137.867 89.2497 134.329 89.4808 130.804C89.6979 127.493 91.2888 126.904 94.4891 126.367C98.75 125.651 103.114 125.666 107.412 125.29C111.888 124.898 116.34 124.354 120.763 123.564C126.448 122.549 132.347 122.104 137.903 120.476C140.394 119.746 142.719 118.592 145.272 118.063C147.444 117.612 149.634 117.249 151.708 116.428C152.204 116.232 152.648 115.887 153.161 115.74C154.276 115.422 150.841 115.701 149.684 115.766C140.56 116.283 131.489 120.066 123.631 124.537C120.026 126.588 116.554 128.841 112.55 130.052C109.999 130.823 106.786 131.811 104.09 131.323C101.189 130.798 100.125 127.497 97.2657 130.039C95.0343 132.022 92.9888 135.044 92.4131 138.018C92.1994 139.122 92.0546 141.215 93.1138 142.014C94.7973 143.285 99.048 142.42 100.847 142.196C105.168 141.657 109.254 140.383 113.393 139.095C117.94 137.68 122.324 136.973 127.056 136.617C130.043 136.392 133.216 136.276 136.151 135.67C137.433 135.405 138.558 134.804 139.797 134.45C141.49 133.966 136.558 135.838 134.893 136.409C130.18 138.025 125.262 139.24 120.413 140.38C117.918 140.966 115.632 140.821 113.095 140.821C109.938 140.821 106.782 140.95 103.623 140.95C100.833 140.95 96.276 141.349 98.4334 137.084C99.8512 134.281 102.996 133.093 105.829 132.231C110.683 130.756 115.709 130.568 120.724 130.155C126.342 129.694 132.1 129.031 137.254 126.626C139.618 125.523 132.786 129.355 130.39 130.389C123.781 133.241 116.936 135.15 109.877 136.474C108.408 136.75 106.994 137.049 105.596 137.577C104.32 138.059 108.274 137.061 109.618 136.824C115.337 135.818 120.781 135.175 126.589 135.76C130.018 136.106 132.963 136.319 136.346 135.579C141.01 134.558 145.615 133.309 150.281 132.309C153.279 131.667 158.637 131.589 158.637 127.509C158.637 124.267 156.478 121.098 155.756 117.959C155.621 117.371 154.772 113.827 154.524 114.235C153.431 116.035 152.585 117.962 151.786 119.905C150.831 122.227 149.97 125.912 147.504 127.119C145.442 128.129 142.755 127.909 140.524 128.053C139.499 128.12 139.72 127.634 140.368 126.964C142.372 124.889 146.492 122.189 149.45 123.577C151.097 124.35 150.956 125.991 152.474 126.808C154.403 127.847 154.823 118.616 154.77 117.648C154.678 115.947 155.052 113.604 154.018 112.224" stroke="#F15151" stroke-width="8" stroke-linecap="round"/>
<path d="M81.6179 108.721C81.6179 108.403 82.0858 109.486 82.1369 109.577C83.0948 111.289 84.1325 112.888 85.3806 114.404C86.3874 115.627 87.3738 115.938 88.8579 116.545C90.3351 117.149 92.2056 116.886 93.7364 116.726C97.9892 116.284 102.224 115.097 106.374 114.106C112.893 112.547 119.612 111.29 125.992 109.24C131.178 107.574 136.091 105.527 141.484 104.569C145.145 103.919 148.75 103.541 152.162 101.935C153.306 101.397 155.159 100.751 155.159 99.2234C155.159 97.0061 153.063 94.5818 151.734 92.9436C150.77 91.7554 149.848 91.8591 148.36 91.9056C147.64 91.9281 144.172 92.5887 144.831 93.787C145.572 95.1334 147.172 95.3366 148.179 96.343C150.231 98.395 144.634 98.9036 143.715 99.0937C142.955 99.2509 140.513 100.18 140.005 99.0937C139.493 98.0003 139.308 96.6853 139.07 95.5126C138.991 95.1221 138.863 94.6961 138.863 94.293C138.863 94.1917 139.061 94.0451 138.967 94.0075C137.663 93.4861 134.751 94.7015 133.478 94.9287C130.53 95.4553 127.585 96.0377 124.72 96.9269C123.496 97.3067 122.318 97.9038 121.087 98.2114" stroke="#F15151" stroke-width="8" stroke-linecap="round"/>
<path d="M83.4863 108.488C92.6998 106.131 101.976 104.325 111.226 102.182C112.465 101.895 113.682 101.501 114.963 101.481C115.187 101.478 117.179 101.466 116.157 101.481C112.269 101.54 108.376 102.415 104.506 102.415" stroke="#F15151" stroke-width="8" stroke-linecap="round"/>
<path d="M88.6243 114.093C91.2274 113.383 93.6991 112.25 96.3313 111.575C100.164 110.593 104.046 109.784 107.892 108.851C113.954 107.379 120.054 106.137 126.083 104.517C130.125 103.431 133.755 101.139 137.903 100.547" stroke="#F15151" stroke-width="8" stroke-linecap="round"/>
<path d="M138.957 149.993C141.145 149.41 144.056 147.946 146.298 148.88C146.85 149.11 147.455 148.624 147.955 148.421C150.09 147.556 152.308 147.021 154.535 146.461C157.971 145.598 161.107 144.026 164.525 143.196C167.247 142.534 170.036 142.577 172.798 142.144C175.906 141.656 178.878 141.245 182.014 141.454C186.725 141.768 190.974 140.506 195.463 139.422C196.633 139.14 197.779 138.692 198.994 138.673C199.945 138.657 200.969 138.685 201.873 138.334C202.112 138.241 203.361 137.909 202.502 138.116C196.878 139.471 190.957 139.537 185.207 139.93C184.98 139.946 183.321 140.262 183.126 140.1C182.907 139.917 183.651 139.869 183.925 139.785C185.507 139.297 187.125 138.961 188.762 138.721C193.024 138.096 197.178 138.576 201.438 138.406C202.029 138.383 205.138 137.669 205.138 138.697C205.138 139.796 205.108 140.9 205.151 141.999C205.267 145.022 206.584 148.084 207.969 150.755C209.175 153.082 209.607 155.87 209.226 158.483C208.992 160.097 208.273 160.995 206.711 161.701C203.193 163.289 198.887 163.251 195.112 163.817C191.075 164.423 187.207 164.973 183.405 166.538C181.487 167.328 179.77 168.718 177.974 169.756C176.639 170.527 175.524 171.16 174.007 171.497C173.093 171.7 171.926 171.574 171.008 171.521C166.931 171.288 162.947 170.675 158.853 170.675C155.519 170.675 151.778 171.081 148.645 172.308C147.558 172.733 146.55 173.319 145.536 173.892C145.146 174.113 144.475 174.119 144.182 174.485C143.975 174.744 143.272 173.483 143.19 173.336C142.345 171.818 142.243 169.848 141.884 168.183C141.141 164.738 140.44 161.211 139.441 157.83C138.997 156.327 138.547 155.591 140.287 155.073C142.758 154.338 145.326 153.935 147.834 153.355C151.63 152.478 155.335 151.276 159.107 150.307C165.116 148.764 171.323 147.881 177.406 146.655C180.966 145.937 184.615 145.814 188.194 145.191C191.678 144.586 195.268 143.954 198.728 144.768C200.437 145.17 200.862 146.829 201.389 148.348C202.429 151.344 202.961 154.197 202.961 157.347C202.961 159.112 202.627 159.472 200.833 160.104C199.126 160.705 197.321 160.882 195.535 161.096C192.892 161.413 190.469 161.965 187.916 162.692C183.385 163.984 178.747 164.872 174.201 166.103C172.179 166.65 170.19 167.466 168.105 167.748C166.254 167.998 164.311 167.788 162.469 167.591C158.278 167.141 154.203 166.756 149.987 166.756C148.488 166.756 146.899 166.319 145.44 166.768C145.023 166.897 144.667 167.321 144.617 166.72C144.443 164.634 144.224 162.23 144.714 160.177C145.057 158.736 146.408 158.276 147.689 157.915C152.618 156.526 157.836 156.072 162.88 155.29C170.994 154.034 179.11 152.816 187.202 151.432C189.249 151.082 191.281 150.552 193.334 150.259C194.324 150.118 194.85 150.803 195.318 151.638C196.451 153.662 194.442 155.957 192.778 156.754C189.731 158.213 186.455 158.388 183.151 158.919C177.947 159.755 172.822 161.158 167.585 161.749C163.208 162.243 158.608 162.891 154.196 162.571C152.419 162.443 150.66 162.068 148.887 161.882C148.489 161.84 147.442 161.956 147.23 161.531" stroke="#ED2E2E" stroke-width="8" stroke-linecap="round"/>
<path d="M164.617 103.454C169.583 103.454 174.288 102.482 179.179 101.768C186.149 100.751 193.486 100.348 200.326 98.622C205.13 97.4096 209.656 95.3424 214.503 94.3608C220.973 93.0505 227.345 91.2461 233.672 89.4094C235.811 88.7883 238.034 88.3237 239.99 87.2058C240.556 86.8826 240.35 86.8423 240.362 87.8429C240.39 90.1184 240.65 92.4236 241.265 94.613C242.297 98.2871 242.879 102.202 243.694 105.936C244.307 108.747 244.006 112.055 244.185 114.923" stroke="#ED1919" stroke-width="8" stroke-linecap="round"/>
<path d="M244.902 114.684C244.763 115.933 242.226 117.47 241.132 117.552C240.611 117.59 239.948 118.062 239.433 118.215C236.906 118.965 234.274 119.726 231.641 119.941C226.722 120.342 221.839 122.031 217.012 123.034C212.016 124.072 206.958 125.121 202.131 126.817C200.806 127.283 199.357 127.694 197.989 128.012C195.662 128.553 202.774 128.125 205.158 127.959C207.361 127.805 209.466 127.257 211.636 126.923C212.761 126.75 213.92 126.578 214.954 126.061C215.735 125.67 213.258 126.471 212.406 126.658C209.62 127.267 206.802 127.67 203.976 128.038C201.949 128.303 199.909 128.553 197.896 128.915C196.084 129.24 194.231 129.313 192.427 129.645C191.301 129.851 189.762 130.842 189.175 129.844C188.876 129.336 186.191 130.134 185.75 130.216C184.219 130.499 182.652 130.48 181.104 130.64C177.796 130.983 174.464 131.887 171.174 132.114C169.887 132.203 168.575 132.127 167.285 132.127C166.064 132.127 166.588 130.278 166.648 129.472C167.033 124.233 165.151 119.435 165.095 114.206C165.06 110.968 164.728 108.883 168.334 107.755C169.71 107.324 173.325 106.071 173.882 108.259C174.766 111.726 173.489 115.885 173.126 119.357C172.902 121.493 172.98 123.65 172.98 125.795C172.98 126.461 173.068 127.204 172.966 127.866C172.854 128.598 172.463 126.471 172.276 125.755C171.408 122.431 170.378 119.117 169.767 115.733C169.576 114.673 169.214 113.009 169.966 112.043C170.984 110.734 172.833 109.898 174.267 109.202C177.632 107.569 181.018 106.689 184.741 106.374C189.354 105.984 194.264 106.671 198.812 105.817C201.242 105.361 203.524 104.363 205.848 103.56C207.147 103.111 208.482 102.927 209.777 102.525C212.543 101.665 215.2 100.795 218.061 100.241C221.366 99.6015 224.689 99.0954 227.963 98.3032C229.101 98.028 230.223 97.6927 231.348 97.374C231.893 97.2198 232.866 96.7017 233.446 96.8828C234.5 97.2122 235.228 98.9234 235.689 99.7767C236.44 101.166 237.168 102.593 237.601 104.118C238.119 105.941 238.574 107.805 238.995 109.653C239.165 110.4 239.54 111.54 239.393 112.348C238.698 116.171 238.989 104.584 238.583 100.719C238.476 99.6985 238.208 94.3989 236.778 93.7633C236.606 93.6871 236.607 94.1074 236.592 94.2943C236.542 94.8979 236.543 96.1555 236.539 96.6837C236.517 99.2594 236.416 101.834 236.406 104.41C236.396 107.18 236.941 110.884 235.53 113.436C233.877 116.426 228.801 117.557 225.8 118.348C221.287 119.538 216.524 119.635 211.901 120.074C208.619 120.385 205.351 120.832 202.065 121.096C199.225 121.324 196.358 121.29 193.529 121.64C190.42 122.025 187.48 123.015 184.608 124.229C182.201 125.246 178.346 127.359 176.272 124.587C174.715 122.506 174.782 118.225 176.431 116.224C178.462 113.759 182.814 114.241 185.644 113.781C186.857 113.584 187.052 113.254 185.644 113.357C183.328 113.526 180.976 114.653 179.511 116.49C178.417 117.861 178.334 119.578 179.033 121.136C179.648 122.506 181.8 121.094 182.604 120.684C186.574 118.661 189.697 115.494 193.94 113.914C199.019 112.024 204.636 111.691 209.472 109.096C209.727 108.958 212.424 107.479 210.401 107.768C206.402 108.339 202.47 109.359 198.467 109.945C195.111 110.436 191.746 110.728 188.365 110.967C187.714 111.013 185.767 110.769 185.564 111.764C185.238 113.361 186.166 115.91 187.184 117.1C189.271 119.539 193.697 118.098 196.237 117.498C199.662 116.69 202.949 115.395 206.379 114.605C209.842 113.807 213.39 113.425 216.919 113.065C221.603 112.586 227.295 112.67 231.123 109.427C233.324 107.563 231.11 106.642 229.251 105.79C227.385 104.935 225.394 103.719 223.344 103.387C221.418 103.076 219.737 104.203 218.339 105.392C217.378 106.209 216.136 107.321 215.83 108.618C215.58 109.683 218.04 108.549 218.167 108.511C222.2 107.308 225.512 106.336 228.627 103.48C230.269 101.975 231.803 100.397 233.911 99.6307" stroke="#ED1919" stroke-width="8" stroke-linecap="round"/>
<path d="M162.514 98.3962C160.991 96.4575 160.179 93.985 159.411 91.6815C159.246 91.187 158.785 90.3467 159.277 89.9044C160.754 88.5746 163.586 88.3501 165.434 87.9448C167.631 87.4629 169.853 86.8112 172.082 86.5038C173.799 86.267 175.534 86.233 177.25 85.9659C180.222 85.5029 183.155 84.7662 186.068 84.0255C189.824 83.0705 192.287 81.912 195.79 80.9707C201.04 79.5597 206.305 77.6356 211.688 76.8593C216.005 76.2366 220.528 75.2665 224.579 73.6028C225.836 73.0867 227.427 72.8247 228.787 72.8247C229.915 72.8247 230.68 73.9432 231.486 74.5922C232.575 75.4696 233.31 76.4771 234.521 77.1379C235.141 77.476 235.055 79.5088 235.098 80.0869C235.111 80.2705 235.282 81.3253 235.059 81.4894C234.482 81.9139 232.278 82.5443 232.139 82.5845C230.537 83.0471 227.011 83.9652 225.319 84.1407C221.87 84.4983 223.794 82.22 224.973 80.817C225.467 80.2284 225.925 79.8391 226.568 79.4721C228.432 78.4069 222.343 80.2822 220.285 80.8939C211.286 83.5686 202.855 88.4421 193.513 89.8276C188.103 90.6299 182.638 90.9865 177.23 91.8256C174.266 92.2856 171.048 92.7416 168.21 93.7372C167.288 94.0608 165.8 95.0999 165.703 96.1676C165.58 97.5185 175.544 96.1175 175.943 96.0715C185.89 94.9263 195.729 92.8878 205.607 91.2685C209.385 90.6492 213.509 90.2685 216.961 88.4827C217.579 88.1634 217.865 88.0472 216.961 87.9448C213.271 87.5263 209.556 87.3012 205.857 86.9841C202.193 86.6701 198.546 86.2317 194.887 85.889C194.186 85.8234 193.149 85.618 192.427 85.8122C190.355 86.3701 196.341 84.044 198.345 83.2762C200.017 82.6355 197.925 82.491 197.269 82.3348C195.947 82.02 194.62 81.7356 193.292 81.451" stroke="#ED1919" stroke-width="8" stroke-linecap="round"/>
<path d="M221.923 88.0409C221.465 87.6742 220.722 87.3472 220.165 87.1616" stroke="#ED1919" stroke-width="8" stroke-linecap="round"/>
<path d="M210.199 134.058C211.636 133.382 213.844 133.55 215.345 133.472C219.042 133.28 222.572 132.578 226.092 131.485C226.842 131.253 227.623 130.724 226.222 130.997C224.676 131.297 222.506 130.991 221.109 131.713C219.284 132.657 224.988 130.354 226.939 129.71C238.324 125.952 250.362 124.354 262.079 121.976C266.14 121.151 270.073 119.623 274.242 119.419C275.726 119.347 277.072 119.696 278.492 119.696C281.282 119.696 283.931 119.587 286.569 118.833C287.937 118.442 288.898 123.642 289.272 124.679C289.984 126.651 290.616 128.643 291.829 130.394C293.011 132.102 294.307 136.544 292.203 137.868C290.309 139.061 287.102 138.076 285.462 139.269C284.155 140.219 280.751 139.87 279.258 140.083C276.552 140.47 273.849 140.642 271.149 141.093C267.283 141.737 264.019 143.672 260.613 145.375C259.58 145.891 258.503 146.467 257.487 147.02C255.953 147.853 254.146 148.226 252.455 148.583C247.917 149.542 243.351 150.125 238.761 150.765C233.958 151.435 228.91 151.835 224.431 153.843C223.016 154.477 221.823 155.576 220.393 156.106C219.432 156.462 218.103 157.223 217.38 157.946C215.483 159.843 217.167 156.434 217.348 155.145C217.957 150.815 215.976 146.519 214.124 142.672C213.271 140.901 211.33 139.12 214.075 138.162C218.831 136.5 224.226 136.695 229.186 136.24C233.341 135.859 237.449 135.037 241.561 134.351" stroke="#F15151" stroke-width="8" stroke-linecap="round"/>
<path d="M223.389 157.506C229.065 156.307 234.843 155.306 240.34 153.403C242.859 152.531 245.147 151.243 247.717 150.472" stroke="#F15151" stroke-width="8" stroke-linecap="round"/>
<path d="M223.389 151.058C221.505 148.798 222.413 144.843 221.923 142.135C221.662 140.686 223.062 140.285 224.317 139.595C230.334 136.283 237 134.258 243.711 132.935C249.838 131.727 268.415 129.243 262.242 130.183C260.784 130.405 259.453 130.207 258.171 131.046C250.391 136.132 242.486 139.923 233.582 142.623C231.778 143.171 227.042 143.75 226.222 146.092C225.753 147.433 227.621 147.147 228.307 147.052C235.198 146.1 242.017 144.011 248.759 142.33C253.082 141.253 257.265 139.696 261.606 138.732C265.555 137.854 269.43 135.989 273.461 135.165C276.419 134.561 279.518 133.38 282.531 133.179C283.809 133.094 287.872 133.014 286.993 130.932C283.737 123.221 275.343 124.223 269.081 127.838C266.605 129.267 264.783 131.498 262.323 132.951C261.112 133.666 259.37 134.349 260.613 132.202C261.583 130.528 262.988 128.93 264.456 127.675C265.75 126.569 267.068 126.003 268.755 126.405C272.618 127.326 276.389 128.696 280.251 129.662" stroke="#F15151" stroke-width="8" stroke-linecap="round"/>
<path d="M269.482 131.477C270.383 131.33 271.279 131.204 272.183 131.091" stroke="#F15151" stroke-width="8" stroke-linecap="round"/>
<path d="M241.758 77.3731C244.104 76.9386 246.027 76.1675 248.107 75.0514C249.269 74.4276 250.301 73.5481 251.561 73.1883C252.421 72.9425 258.108 71.5695 257.379 72.8443C256.943 73.6085 254.442 74.7714 255.229 74.3778C257.072 73.4564 254.408 74.4703 253.796 74.5928C253.722 74.6075 250.894 75.173 252.191 74.8794C254.629 74.3276 257.062 73.9258 259.543 73.6325C263.716 73.1395 267.834 72.3894 271.897 71.3251C274.001 70.7742 275.862 69.7011 277.902 68.9747C280.279 68.129 282.803 67.8714 285.255 67.3265C287.433 66.8424 289.593 66.4932 291.804 66.223C293.602 66.0033 295.29 65.1967 297.078 64.8758C304.126 63.6109 311.209 62.2311 318.118 60.3469" stroke="#D71111" stroke-width="8" stroke-linecap="round"/>
<path d="M240.21 73.7614C238.557 73.3106 237.185 70.9089 235.81 69.8775C235.509 69.6522 232.987 68.0532 233.302 67.6991C233.984 66.9312 236.582 67.1354 237.458 67.0541C239.162 66.8961 240.865 66.725 242.546 66.3949C245.262 65.8612 247.947 65.2384 250.686 64.847C254.675 64.2772 258.549 62.957 262.51 62.4106C268.667 61.5614 274.73 59.5989 280.797 58.283C285.196 57.3291 289.51 56.1478 293.868 55.0584C296.637 54.3661 299.456 53.9951 302.267 53.5105C305.176 53.0089 307.797 51.3232 310.665 50.8018C312.79 50.4154 313.844 50.4877 315.538 51.891C316.872 52.9963 317.175 55.1623 318.433 56.4199C318.682 56.6686 319.385 56.8619 319.407 57.2511C319.432 57.6699 319.03 57.8845 319.207 58.283C319.548 59.0507 319.578 58.799 318.49 58.799C314.023 58.799 309.568 59.0363 305.104 59.057C303.066 59.0664 300.992 59.1624 298.956 59.0426C298.377 59.0085 301.712 58.0211 302.181 57.8817C304.23 57.2718 306.261 57.0577 308.315 56.5346C309.641 56.1967 310.924 55.7583 312.227 55.345C313.613 54.9055 312.673 55.1561 311.783 55.4167C304.971 57.4114 298.024 58.65 291.145 60.3468C280.726 62.9168 270.1 64.5489 259.873 67.8854C255.73 69.2369 251.485 69.9889 247.232 70.9237C245.237 71.3623 239.199 72.2136 241.242 72.2136" stroke="#D71111" stroke-width="8" stroke-linecap="round"/>
<path d="M246.143 83.0484C246.271 84.325 246.951 86.1892 247.318 87.4483C248.383 91.0975 250.099 94.8687 250.471 98.6701C250.906 103.109 251.252 107.538 251.804 111.956C251.834 112.196 251.885 113.967 252.019 113.991C253.953 114.342 256.398 113.658 258.253 113.117C260.134 112.568 262.173 112.459 264.087 111.999C265.863 111.572 267.735 111.383 269.561 111.425C270.994 111.459 269.4 112.682 269.002 112.959C267.98 113.67 266.943 113.747 265.677 113.747C262.058 113.747 272.764 111.941 276.383 111.941C277.854 111.941 279.237 111.332 280.654 111.024C283.114 110.491 285.409 110.149 287.763 109.218C289.175 108.66 290.823 109.025 292.292 108.373C292.664 108.207 293.094 108.36 293.553 108.186C294.749 107.733 296.008 107.482 297.207 107.04C301.584 105.427 306.225 105.182 310.694 103.944C314.728 102.827 318.724 101.814 322.833 100.992C325.849 100.389 328.86 99.2653 331.89 98.7991C333.785 98.5076 331.589 93.0472 331.274 91.9628C330.204 88.275 328.826 84.4793 327.247 80.9703C326.496 79.3006 325.46 77.857 324.839 76.0975C323.868 73.3451 323.535 70.0227 323.535 67.1114C323.535 66.2696 323.865 63.3496 323.019 62.9265" stroke="#D71111" stroke-width="8" stroke-linecap="round"/>
<path d="M321.213 66.7961C314.268 67.3304 307.327 68.8252 300.461 69.9491C291.218 71.4621 282.238 73.5201 273.23 75.9685C266.296 77.8531 259.006 78.9167 252.248 81.386C251.719 81.5795 251.331 81.4739 251.331 82.2029C251.331 84.4284 251.593 86.7689 251.818 88.9818C252.113 91.8815 252.822 94.6942 253.925 97.3946C255.027 100.091 255.943 102.811 256.978 105.521C257.033 105.666 257.427 106.966 257.637 107.026C259.649 107.6 262.715 107.046 264.746 106.983C269.271 106.841 273.774 106.423 278.117 105.076C281.576 104.004 284.888 102.487 288.336 101.365C295.294 99.099 302.647 98.2672 309.662 96.0904C314.185 94.6866 318.769 94.2144 323.363 93.1667C325.348 92.714 326.628 92.8903 326.315 90.673C325.844 87.3252 323.311 84.8112 321.93 81.8446C320.944 79.7277 320.354 77.5571 319.665 75.3379C319.322 74.2321 318.977 72.4136 318.117 71.5543C317.007 70.4435 312.987 71.4761 311.883 71.6116C306.095 72.3225 300.658 73.6847 295.129 75.5099C290.5 77.0379 285.988 79.5057 281.156 80.3111C276.752 81.0449 272.298 81.0647 267.899 81.9019C264.496 82.5494 260.938 82.922 257.594 83.8224C256.925 84.0024 256.077 84.1703 255.688 84.7969C254.734 86.3331 255.169 88.9738 255.358 90.63C255.761 94.1617 256.726 97.6852 258.139 100.949C258.85 102.592 259.283 103.792 261.277 103.572C266.316 103.015 270.808 100.886 275.294 98.6702C285.391 93.6831 295.761 90.9723 306.896 89.5121C310.01 89.1037 321.647 88.1562 317.301 82.4035C314.803 79.0974 310.423 77.3731 306.451 78.6199C302.147 79.9714 297.886 82.1357 293.782 83.9943C287.865 86.6741 281.757 88.256 275.581 90.1714C272.068 91.2606 268.886 92.8584 265.548 94.3419C264.019 95.0217 262.459 95.0273 261.277 93.6253C260.19 92.3359 258.856 88.8357 259.472 87.1187C259.547 86.9075 260.769 85.1518 260.833 85.8862C261.157 89.6086 259.895 93.2963 260.446 97.065C261.017 100.967 263.966 98.3856 266.122 96.936C268.989 95.0075 271.509 92.6539 274.463 90.845C276.01 89.8975 277.223 89.4904 275.896 87.6203C274.512 85.671 270.952 83.5277 268.501 84.7969C268.059 85.0258 267.722 85.6477 267.426 86.0008C266.314 87.3246 265.029 88.4225 263.585 89.3688C262.73 89.9291 262.603 89.9409 263.742 89.3831C267.237 87.6727 270.834 86.2705 274.577 85.1982C278.348 84.1179 282.242 83.657 286.157 83.5787C294 83.4219 301.864 83.0484 309.705 83.0484C311.864 83.0484 314.602 82.6781 316.469 83.9227C318.152 85.0443 319.798 86.6613 320.84 88.4086C320.843 88.4123 321.279 89.3499 320.998 88.6379C320.263 86.7728 319.301 85.0436 318.232 83.3494C316.911 81.2568 315.698 79.0081 314.305 76.9717C314.017 76.5504 313.99 76.3224 313.99 75.8252" stroke="#D71111" stroke-width="8" stroke-linecap="round"/>
<path d="M293.156 115.265C297.635 115.265 296.642 122.04 298.343 125.103C300.016 128.114 300.86 131.851 300.669 135.299C300.658 135.496 300.273 135.855 300.47 135.855C301.654 135.855 303.234 135.214 304.385 134.941C306.445 134.453 308.454 133.793 310.407 132.994C311.602 132.505 312.746 131.764 313.905 131.185C315.57 130.352 317.666 130.358 319.49 130.112C324.317 129.459 329.088 128.078 333.72 126.534C335.035 126.096 336.333 125.821 337.675 125.481C340.392 124.792 342.969 123.502 345.665 122.857C354.105 120.839 364.846 120.018 371.78 114.47C373.068 113.441 373.291 113.311 373.291 111.608C373.291 108.765 371.86 105.987 371.86 103.281C371.86 102.455 371.206 98.511 370.071 98.4513C366.739 98.2759 363.355 99.1577 360.054 99.5245C353.802 100.219 347.474 102.437 341.511 104.334C336.788 105.837 331.71 106.136 327.062 107.753C322.795 109.237 317.964 110.05 313.547 110.972C309.039 111.914 304.518 112.789 300.013 113.755C298.595 114.059 298.074 114.468 298.582 115.802C299.742 118.847 300.487 121.989 302.1 124.845C302.455 125.474 303.56 128.104 304.425 128.104C305.611 128.104 308.422 125.439 308.817 124.408C310.401 120.279 305.768 119.029 303.769 116.498C303.662 116.362 303.44 115.707 303.888 115.782C304.677 115.914 305.529 118.695 305.757 119.181C307.44 122.782 308.536 126.759 312.991 127.27C318.901 127.946 324.846 124.732 330.322 122.977C335.073 121.454 339.886 120.533 344.671 119.181C350.796 117.45 358.542 116.468 363.97 112.94C366.989 110.977 364.28 109.543 365.142 106.958C365.652 105.429 366.347 105.383 364.586 106.024C360.186 107.623 355.493 108.169 351.031 109.541C347.527 110.62 344.164 112.327 340.657 113.496C334.141 115.668 327.45 117.393 320.861 119.34C319.15 119.845 313.285 122.118 311.938 120.771C306.583 115.416 325.649 112.267 328.016 112.046C333.582 111.525 338.716 110.62 344.115 109.203C347.974 108.191 351.841 106.915 355.841 106.679C357.952 106.555 365.271 106.979 366.494 104.533" stroke="#EC2E2E" stroke-width="8" stroke-linecap="round"/>
<path d="M327.457 55.5581C325.683 55.5581 325.427 53.4329 325.226 52.0277C325.081 51.0149 321.498 47.6812 321.818 47.1735C322.517 46.0665 325.149 45.6949 326.231 45.4083C328.99 44.6781 331.796 44.0823 334.616 43.6432C339.45 42.8902 344.28 42.1391 349.08 41.216C357.232 39.6485 365.424 38.5777 373.548 36.5825C383.124 34.2302 392.656 30.8059 402.281 29.0559C403.027 28.9202 404.097 27.9521 404.267 28.8843C404.579 30.6041 406.885 33.4702 407.969 34.9153C408.591 35.7457 409.878 37.1914 408.63 38.127C408.109 38.5181 406.737 40.2441 406.007 39.4754C404.814 38.2189 404.161 35.2318 402.477 34.474C401.776 34.1588 400.29 34.8846 399.608 35.0134C397.036 35.5002 394.773 36.273 392.327 37.2444C375.767 43.8196 357.581 45.5056 340.303 49.5271C337.755 50.1202 335.134 50.8056 332.556 51.2432C328.629 51.9101 329.7 50.3441 331.943 47.5903C334.094 44.9513 337.265 41.7457 340.254 40.0147C342.915 38.4744 339.329 40.3447 338.44 40.7502C335.987 41.8702 333.573 41.7679 332.066 44.207C330.2 47.2281 329.947 50.7747 330.105 54.2342C330.125 54.6777 357.082 49.4552 360.775 48.7426C370.628 46.841 380.377 44.7218 390.121 42.3193C392.725 41.6772 395.452 41.7653 398.088 41.216C399.427 40.9371 400.899 41.3118 402.036 40.5541" stroke="#D71111" stroke-width="8" stroke-linecap="round"/>
<path d="M344.226 40.5541C345.4 40.0598 346.558 39.6298 347.756 39.2302" stroke="#D71111" stroke-width="8" stroke-linecap="round"/>
<path d="M339.453 97.3286C336.969 97.0527 338.441 93.4876 338.611 92.2764C339.524 85.7811 337.096 79.5715 335.276 73.4823C334.646 71.3718 333.041 69.5771 332.211 67.5039C331.485 65.687 330.77 64.0779 330.426 62.1317C329.566 57.2567 331.738 72.1424 333.997 76.5473C334.779 78.0735 335.7 79.5737 336.708 80.9595C337.981 82.7104 338.121 84.9595 339.318 86.6853C340.178 87.9239 340.954 89.1685 341.726 90.4913C342.417 91.6735 343.697 93.0288 343.697 94.4825C343.697 96.6991 345.885 95.6899 347.503 95.072C349.902 94.1556 352.199 93.2709 354.778 92.9164C357.635 92.5235 360.546 92.2166 363.266 91.1986C364.842 90.6087 366.22 89.7501 367.813 89.2451C370.354 88.4392 372.845 87.5491 375.492 86.8874C377.848 86.2984 380.177 85.6404 382.531 85.0518C385.797 84.2354 388.747 82.571 391.962 81.6332C394.606 80.8621 397.079 80.2864 399.776 79.747C402.323 79.2377 404.831 78.8802 407.354 78.2314C408.717 77.881 410.045 77.2874 411.43 77.0357C413.527 76.6544 415.73 76.1465 417.796 75.6547C420.134 75.0979 423.36 74.5202 425.172 72.8424C427.828 70.383 421.858 65.4315 420.759 63.1422C419.23 59.9554 417.572 56.6999 416.903 53.2062C416.482 51.0095 416.844 48.6773 416.381 46.5373C415.508 42.4986 410.531 44.2758 407.826 45.2574C390.811 51.4322 374.141 57.4975 356.024 59.572C348.525 60.4307 341.15 61.8623 333.576 61.8623C333.302 61.8623 332.998 61.8225 332.784 61.6265C332.434 61.3059 339.612 59.1677 339.756 59.1341C347.681 57.2886 355.777 56.5444 363.804 55.3281C370.76 54.2742 377.313 51.4944 384.249 50.4107C388.211 49.7917 392.072 48.9979 395.97 48.0698C398.131 47.5554 400.222 49.8667 402.268 50.2759C404.514 50.7251 406.951 50.2436 409.19 50.057C411.416 49.8715 411.81 49.899 412.71 52.0274C414.359 55.929 416.205 59.6401 416.768 63.8663C417 65.6048 418.475 69.1043 417.156 70.6531C413.01 75.5198 403.802 74.8294 398.193 74.9138C391.912 75.0082 385.503 75.919 379.466 77.6925C375.934 78.7299 373.042 80.9152 369.497 81.9026C363.13 83.6757 355.158 88.1881 348.244 86.6517C345.281 85.9934 343.737 79.5904 342.653 77.2041C341.285 74.1954 337.771 70.145 341.945 67.8575C346.118 65.5708 351.182 64.9483 355.772 64.0516C363.943 62.4548 372.174 60.9895 380.291 59.1341C387.598 57.464 395.23 55.4051 402.774 55.3281C405.687 55.2984 406.858 55.3996 408.264 57.9553C409.081 59.4418 409.748 61.051 410.251 62.6706C410.696 64.1043 411.659 67.8522 410.419 69.0701C409.173 70.2938 405.769 70.1664 404.222 70.3499C400.01 70.8497 395.789 71.1167 391.592 71.7477C382.047 73.1825 372.246 74.3373 362.929 76.8673C359.532 77.7897 356.098 78.5812 352.858 79.9828C351.536 80.555 349.655 81.7615 348.21 80.8585C346.156 79.5744 344.918 76.659 345.398 74.2907C345.998 71.3275 350.31 70.5442 352.774 70.2657C357.038 69.7838 361.29 70.067 365.522 69.1711C371.686 67.8666 377.831 65.8758 383.879 64.1189C389.653 62.4416 395.175 60.2491 401.258 61.1045C402.357 61.259 403.451 61.48 404.559 61.5591C405.138 61.6005 403.651 63.6902 403.481 63.9505C402.592 65.313 401.523 66.0374 399.995 66.5945C395.299 68.3071 390.295 69.2176 385.377 70.0131C376.28 71.4847 366.988 72.4499 358.112 74.998C356.109 75.573 352.442 77.2429 350.366 76.4126" stroke="#D71111" stroke-width="8" stroke-linecap="round"/>
<path d="M334.603 65.803C337.529 65.9016 341.24 66.2745 343.091 68.9353C345.345 72.1761 343.404 76.5505 343.916 80.1343C344.442 83.816 346.574 87.4164 347.638 90.9629" stroke="#D71111" stroke-width="8" stroke-linecap="round"/>
<path d="M415.825 35.5228C413.676 34.2098 412.391 30.8779 411.793 28.4853C411.176 26.0163 413.442 25.2976 415.694 24.3225C420.79 22.1168 426.939 21.4828 432.383 20.5891C437.754 19.7072 443.067 19.4825 448.343 17.789C454.302 15.8763 460.526 14.8518 466.488 12.9356C472.629 10.9615 478.998 9.96134 484.987 7.46607C486.784 6.71728 481.243 8.55445 479.331 8.92211C476.313 9.50244 473.212 9.75087 470.165 10.1541C464.888 10.8526 459.685 11.5043 454.485 12.6929C447.845 14.2106 442.093 15.8372 436.247 19.3197C429.693 23.2241 423.386 27.9264 415.974 30.072C414.716 30.4362 416.357 33.9116 416.814 34.6268C418.33 36.9948 423.602 35.4938 425.681 34.8135C429.413 33.5923 432.723 31.3411 436.527 30.3147C437.921 29.9385 443.488 28.4282 438.842 28.0373C435.152 27.7269 431.445 28.0364 428.444 30.3707C428.277 30.5005 427.804 30.9204 427.977 30.8C429.117 30.0108 430.2 29.246 431.431 28.5787C436.485 25.8373 441.968 23.7521 447.559 22.4185C452.545 21.2295 457.721 20.8954 462.68 19.6557C463.228 19.5186 464.993 18.7984 463.837 19.9544C462.567 21.2243 461.067 22.0049 459.506 22.8292C459.373 22.8997 458.327 23.6884 458.573 23.5012C460.806 21.7994 463.398 20.3385 465.89 19.0584C471.597 16.1272 477.876 15.3852 484.016 13.8502C486.648 13.1923 489.424 12.3657 492.099 11.9835C494.089 11.6993 492.882 8.78983 491.502 8.38076C490.871 8.1938 488.187 8.70861 489.15 7.74608C490.144 6.75195 490.848 6.70706 492.099 6.29004" stroke="#F04646" stroke-width="8" stroke-linecap="round"/>
<path d="M436.322 26.7866C443.047 26.4585 450.19 25.9434 456.482 23.4265" stroke="#F04646" stroke-width="8" stroke-linecap="round"/>
<path d="M419.185 41.2349C419.185 42.1549 419.581 43.0201 419.932 43.8483C420.284 44.6801 421.162 45.3519 421.612 46.163C422.934 48.5491 424.017 51.1382 424.823 53.7419C426.482 59.1101 428.669 63.2117 431.543 67.8543C434.008 71.8365 440.073 68.6141 443.452 67.7796C450.552 66.0265 457.625 64.0946 464.752 62.4034C468.8 61.4428 472.908 60.8307 476.96 59.902C482.282 58.6824 487.621 57.3546 492.827 55.7019C496.547 54.5211 501.236 53.4931 504.531 51.2965C507.615 49.2406 505.333 42.6501 504.867 39.7415C504.579 37.9385 503.611 36.0671 503.001 34.3467C502.404 32.6651 501.757 30.6073 500.163 29.8105" stroke="#F04646" stroke-width="8" stroke-linecap="round"/>
<path d="M500.499 29.1385C499.06 25.9971 498.547 22.5071 497.065 19.3942C496.686 18.5982 496.261 18.9739 495.459 19.2075C488.391 21.2667 481.192 22.8976 474.029 24.5837C467.481 26.1251 460.421 27.0535 454.205 29.7358C450.896 31.1636 447.529 32.2574 444.087 33.3199C438.268 35.1161 431.103 36.4329 425.849 39.6854C423.586 41.0865 428.289 49.8752 428.967 51.5391C430.517 55.3465 432.063 59.1755 433.746 62.9261C434.208 63.956 434.573 66.3972 435.948 65.6141C440.135 63.2307 445.074 62.2477 449.687 61.0594C455.758 59.4954 461.43 57.2066 467.309 55.0859C475.697 52.0603 484.367 47.9802 493.2 46.4803C494.026 46.3401 501.117 46.2492 499.398 47.395C492.429 52.0409 483.055 53.6412 475.112 56.0005C470.919 57.2459 466.587 58.0089 462.25 58.5393C457.747 59.0901 452.896 60.2485 448.343 59.9767C442.961 59.6553 437.206 54.3861 434.978 49.747C433.683 47.0522 432.687 44.2975 432.215 41.3468C431.937 39.6117 432.066 41.1246 432.327 42.0935C433.638 46.9561 435.424 51.8198 437.852 56.2432C437.937 56.3968 439.818 59.2444 439.402 58.3153C437.322 53.6766 437.83 47.5734 439.252 42.8215C440.756 37.7969 445.682 36.253 450.266 34.9066C460.5 31.9008 471.031 31.1265 481.422 29.0638C484.582 28.4363 487.588 27.3232 490.68 26.5251C493.001 25.9262 494.912 30.1671 495.721 31.6772C496.965 34.0009 498.369 36.0541 498.745 38.7334C499.266 42.4468 493.623 43.8857 491.016 44.3896C482.904 45.9575 474.114 45.0154 466.32 48.1603C460.457 50.5258 454.829 52.9264 448.717 54.6005C447.6 54.9064 445.226 55.9071 444.05 55.1232C442.223 53.9054 441.756 49.6668 441.511 47.6937C440.698 41.1425 447.575 39.7645 452.861 39.9468C455.745 40.0462 450.864 43.9974 450.285 44.5389C448.861 45.8704 447.261 47.0395 446.085 48.6083C445.33 49.6149 448.627 48.3461 449.781 47.843C456.217 45.0354 462.209 41.2531 468.653 38.5094C471.925 37.1163 475.701 36.5279 479.181 35.8773C481.518 35.4406 485.311 34.1476 487.638 35.2426C488.649 35.7187 488.851 37.2813 490.176 37.072C491.357 36.8856 493.811 35.5574 494.041 34.1786C494.242 32.9716 493.163 30.4494 491.95 30.0345C490.033 29.3787 486.993 31.8924 486.424 33.5813C485.769 35.5274 486.975 35.7743 488.478 35.8587C492.764 36.0995 487.285 40.7209 485.92 41.5335C482.846 43.3642 480.369 41.744 477.128 41.4588C470.822 40.9038 464.601 41.96 458.312 42.0188C456.386 42.0368 453.637 41.227 456.034 38.9387C458.114 36.9531 462.253 36.37 464.882 35.1866" stroke="#F04646" stroke-width="8" stroke-linecap="round"/>
<path d="M376.696 93.5426C382.363 92.8035 387.424 91.2175 392.757 89.2939C399.145 86.9901 405.621 85.0281 412.295 83.6933C414.921 83.1681 417.514 82.2102 420.149 81.7942C423.639 81.2432 427.057 81.5437 430.513 80.5067C434.172 79.409 437.698 77.9764 441.457 77.1753C443.779 76.6804 446.049 75.9864 448.377 75.5177C452.631 74.6615 457.248 73.4922 461.574 73.2646C463.418 73.1675 464.554 75.5787 465.614 76.8856C466.562 78.055 467.187 79.4194 468.108 80.6033C468.455 81.0491 468.986 81.3884 468.752 82.0195C467.63 85.0498 462.361 86.5208 459.739 87.427C454.511 89.2345 448.753 89.4952 443.549 91.2895C439.093 92.8261 434.775 94.8176 430.288 96.2947C417.929 100.363 405.116 102.462 392.564 105.709C389.739 106.44 385.092 108.591 382.168 106.804C379.775 105.342 377.684 101.36 377.855 98.4673C377.875 98.1124 378.283 100.447 378.321 100.688C378.632 102.655 379.399 104.452 379.85 106.369C380.041 107.182 381.048 106.733 381.266 107.802C381.505 108.967 381.363 110.985 382.554 111.793C384.271 112.958 388.585 111.839 390.456 111.648C395.045 111.18 399.863 110.749 404.345 109.636C409.437 108.372 414.225 106.151 419.071 104.213C426.455 101.259 434.115 99.0055 441.441 96.0211C443.992 94.9817 445.665 93.2118 447.798 91.5148C451.079 88.905 454.674 86.5374 457.647 83.5645C458.607 82.6052 461.62 81.0583 460.962 79.2514C460.595 78.2407 455.337 80.4732 454.879 80.6999C452.218 82.0165 450.193 84.2124 447.669 85.7211C439.289 90.7309 428.992 91.9134 419.618 93.8001C409.438 95.849 399.247 98.5902 389.442 102.008C387.587 102.655 386.668 103.437 384.936 102.507C384.255 102.142 382.69 101.7 382.988 100.704C383.909 97.6352 388.092 96.7259 390.73 96.0211C400.694 93.358 411.091 92.3002 421.211 90.3561C427.865 89.0779 434.367 87.4555 440.475 84.5624C441.975 83.8518 443.564 83.3241 444.998 82.4702C445.72 82.0396 446.264 81.5821 447.09 81.3758" stroke="#EC2E2E" stroke-width="8" stroke-linecap="round"/>
<path d="M418.116 84.3499C418.223 87.0307 419.695 87.7564 422.131 88.3654" stroke="#EC2E2E" stroke-width="8" stroke-linecap="round"/>
<path d="M468.798 69.2083C470.392 72.6866 472.427 76.0611 473.611 79.7049C474.07 81.1156 474.628 82.4352 475.29 83.7593" stroke="#ED1919" stroke-width="8" stroke-linecap="round"/>
<path d="M476.186 85.1025C478.792 85.2357 481.458 85.3866 484.033 84.8538C485.793 84.4896 487.488 83.7802 489.219 83.2992C493.616 82.0779 497.663 79.8868 502.116 78.8592C506.387 77.8736 510.68 77.4769 514.926 76.2351C519.073 75.0222 523.056 73.0844 527.102 71.5588C530.238 70.3765 533.011 68.6967 536.044 67.3179C538.037 66.4119 540.094 66.0163 542.213 65.5145C543.849 65.1269 546.026 64.9619 547.038 63.4998C548.943 60.7483 546.988 55.5459 545.123 53.2145C544.099 51.9351 542.824 50.7914 541.765 49.5208C541.438 49.1284 540.29 47.3141 539.626 47.5184C538.704 47.8022 537.842 48.5005 536.977 48.9238C535.989 49.4072 534.923 49.7275 533.917 50.1799C530.822 51.5727 527.416 52.3182 524.179 53.314C518.046 55.2011 512.418 58.072 506.494 60.49C504.084 61.4737 501.892 62.8383 499.368 63.5619C495.031 64.8049 490.702 65.7409 486.309 66.7458C483.736 67.3343 481.156 68.0201 478.573 68.5367C477.559 68.7396 476.498 69.172 475.464 69.2083C474.686 69.2356 474.468 69.3427 474.818 70.1286C475.536 71.7445 476.452 73.2773 477.205 74.8795C477.755 76.049 479.288 80.6214 480.713 80.7994C481.339 80.8777 482.388 80.3685 482.877 80.1775C484.713 79.4597 486.491 78.603 488.274 77.7648C491.911 76.0552 495.48 74.1366 499.293 72.8398C506.221 70.4839 513.29 68.6361 520.461 67.2432C525.806 66.2049 531.353 64.7672 536.454 62.8406C539.202 61.803 541.438 61.1447 540.335 57.8659C539.845 56.4107 537.952 56.3613 536.678 56.0003C535.86 55.7685 535.646 55.835 535.062 56.4978C534.099 57.5902 533.229 58.4816 531.853 59.0847C528.039 60.756 523.957 60.8588 519.938 61.4228C519.093 61.5415 518.312 61.8208 517.526 62.1441C515.329 63.0475 513.078 63.7602 510.81 64.4574C504.21 66.4857 497.592 68.8187 491.209 71.4469C488.086 72.7331 485.203 74.3576 482.006 75.4764" stroke="#ED1919" stroke-width="8" stroke-linecap="round"/>
<path d="M515.43 55.1654C515.732 54.6849 515.973 53.8697 516.544 53.6794" stroke="#ED1919" stroke-width="8" stroke-linecap="round"/>
<path d="M514.315 48.4787C513.501 48.3769 513.638 46.7408 513.531 46.2086C513.285 44.9763 512.893 43.8075 512.819 42.5454C512.748 41.3357 512.408 40.5746 512.014 39.4807C511.628 38.4075 512.114 38.1638 513.118 37.8091C517.521 36.2534 522.137 35.1773 526.76 34.5483C529.876 34.1243 532.872 33.6196 536.026 33.6196C537.096 33.6196 537.042 34.6901 537.347 35.5802C537.712 36.6429 538.267 37.9505 539.019 38.81C541.11 41.1999 533.253 42.3678 531.816 42.5764C530.451 42.7745 529.078 42.783 527.709 43.0304C525.381 43.4512 523.046 44.145 520.816 44.9291C519.756 45.3017 518.555 45.9252 517.421 46.0332C516.693 46.1025 517.219 44.8644 517.349 44.6401C518.602 42.4727 521.226 41.5741 523.54 41.1317C526.942 40.4815 530.413 40.43 533.818 39.749" stroke="#ED1919" stroke-width="8" stroke-linecap="round"/>
<path d="M62.6255 127.46C69.7701 126.567 77.56 123.993 84.7911 122.28C97.8702 119.183 110.447 116.525 123.099 111.679C135.064 107.097 148.372 104.953 160.805 101.681C170.72 99.0716 180.578 97.9476 190.981 97.0429C195.734 96.6297 199.99 94.2628 204.714 93.7904C210.119 93.2499 216.101 90.9266 221.399 89.5138C225.237 88.4904 229.409 87.7577 232.843 85.6589C238.848 81.9894 245.528 81.1328 252.358 79.5152C257.77 78.2334 263.313 78.4946 268.621 77.3468C273.31 76.333 277.11 73.6297 281.632 72.4077C290.81 69.927 298.475 66.2468 308.074 64.5775C317.201 62.9901 327.02 61.3899 335.901 58.6145C349.971 54.2175 364.724 52.1181 378.727 47.7726C386.705 45.2964 396.226 42.8937 404.627 42.8937C410.481 42.8937 415.671 38.8804 421.492 38.557C425.49 38.3349 431.356 35.188 435.586 33.9793C443.361 31.7579 450.931 28.008 458.836 26.5707C472.253 24.1312 485.776 14.7048 499.553 14.7048" stroke="black" stroke-width="3" stroke-linecap="round"/>
<path d="M62.3115 127.981C62.3115 139.514 62.3115 151.564 62.3115 163.201" stroke="black" stroke-width="3" stroke-linecap="round"/>
<path d="M61.2602 127.982C61.1451 126.946 59.613 125.844 59.0408 124.944C57.6586 122.772 55.9668 120.818 54.7187 118.549C53.7856 116.852 52.7862 113.136 51.2727 112.095C50.1096 111.295 48.1119 107.264 47.3302 105.875C46.0226 103.55 44.1966 101.453 43.271 98.9535C42.528 96.9474 40.5877 94.3677 39.2117 92.7624C37.6486 90.9387 36.5629 88.7524 34.9773 86.9802C32.607 84.331 32.1877 80.4304 30.2463 77.5183" stroke="black" stroke-width="3" stroke-linecap="round"/>
<path d="M29.195 76.467C25.3114 87.6862 28.6693 99.5048 28.6693 111.161" stroke="black" stroke-width="3" stroke-linecap="round"/>
<path d="M28.6694 112.737C33.8623 118.507 39.2013 125.146 43.2711 131.778C45.9846 136.2 49.3506 140.028 51.8276 144.569C52.8234 146.394 54.3362 148.365 55.5948 150.059C56.7534 151.619 57.5476 153.706 58.8948 155.053C60.8121 156.97 61.382 159.966 62.8373 162.149" stroke="black" stroke-width="3" stroke-linecap="round"/>
<path d="M28.6694 75.4156C37.5749 75.4156 45.7612 70.2441 53.9011 67.5308" stroke="black" stroke-width="3" stroke-linecap="round"/>
<path d="M54.9524 67.5308C57.2514 69.37 59.9481 70.4268 62.0196 72.7873C65.9192 77.2311 67.7359 82.7041 70.7222 87.6226C73.647 92.44 75.1597 98.1606 76.7964 103.538C77.3392 105.322 78.7579 107.863 79.892 109.321C81.1411 110.927 81.2542 113.491 82.5495 115.074C83.7553 116.547 84.4009 120.365 85.9663 121.148" stroke="black" stroke-width="3" stroke-linecap="round"/>
<path d="M63.8887 162.675C66.8957 159.941 72.141 159.737 75.9788 158.995C78.7304 158.464 83.0959 158.845 85.3239 156.776C88.1839 154.12 88.5946 151.859 88.5946 147.956C88.5946 142.875 88.069 137.642 88.069 132.479C88.069 129.115 87.0177 126.018 87.0177 122.725" stroke="black" stroke-width="3" stroke-linecap="round"/>
<path d="M87.5432 154.79C92.5828 154.622 97.7052 153.788 102.758 154.294C105.142 154.532 107.298 154.993 109.738 154.673C114.928 153.993 118.868 150.528 123.843 149.533C131.346 148.033 138.52 147.015 145.629 144.014C150.078 142.135 154.941 140.748 159.617 139.546C161.366 139.096 162.509 138.495 164.289 138.495" stroke="black" stroke-width="3" stroke-linecap="round"/>
<path d="M164.289 139.02C163.857 129.932 162.187 121.099 162.187 111.978C162.187 110.517 163.645 104.005 162.187 103.276" stroke="black" stroke-width="3" stroke-linecap="round"/>
<path d="M62.8372 163.726C62.634 167.588 62.3115 171.381 62.3115 175.291C62.3115 178.863 63.3237 182.002 63.8593 185.483C64.207 187.743 64.9398 189.408 64.9398 191.82C64.9398 193.319 64.9398 194.818 64.9398 196.317" stroke="black" stroke-width="3" stroke-linecap="round"/>
<path d="M64.9399 196.317C69.208 196.093 73.5064 195.37 77.7894 195.266C82.1875 195.159 87.2001 195.179 91.4273 193.952C94.0323 193.195 95.8175 190.811 98.5821 190.535C101.146 190.279 103.754 189.75 106.233 188.987C110.696 187.614 114.346 186.261 118.47 183.993C119.524 183.413 121.016 182.718 122.237 182.65C125.023 182.495 125.909 183.256 128.545 182.008C130.659 181.006 133.805 181.073 136.167 181.073C141.469 181.073 140.196 175.639 139.321 171.845C138.614 168.783 138.027 165.389 136.955 162.441C136.242 160.48 136.474 158.405 136.021 156.367C135.41 153.617 135.904 150.265 135.904 147.431" stroke="black" stroke-width="3" stroke-linecap="round"/>
<path d="M139.583 180.022C145.343 179.771 150.684 177.146 156.317 176.109C159.731 175.48 163.773 174.824 167.239 174.824C170.154 174.824 173.504 176.419 176.38 175.7C180.342 174.709 183.869 173.033 187.185 170.677C190.674 168.198 196.966 167.654 201.056 167.143C203.572 166.829 211.863 165.825 213.176 163.201" stroke="black" stroke-width="3" stroke-linecap="round"/>
<path d="M163.238 137.443C173.203 137.443 182.691 134.289 192.675 134.289C195.305 134.289 197.755 133.238 200.297 133.238C200.815 133.238 205.7 132.829 205.816 132.946C207.278 134.408 208.459 137.802 208.97 139.721C209.982 143.517 211.961 147.105 212.533 151.11C213.179 155.629 213.701 159.67 213.701 164.252" stroke="black" stroke-width="3" stroke-linecap="round"/>
<path d="M34.9773 150.059C36.8134 152.507 37.6319 156.186 39.0073 158.937C41.0752 163.073 43.1667 167.274 45.4613 171.29C47.5301 174.91 50.6227 177.518 53.3754 180.576C54.998 182.379 56.303 184.466 57.9895 186.213C59.1831 187.449 61.8935 190.099 62.2824 191.849C62.5671 193.13 63.3624 196.317 64.4142 196.843" stroke="black" stroke-width="3" stroke-linecap="round"/>
<path d="M31.8232 145.328C32.8293 146.586 33.593 148.576 34.3347 150.059C34.7599 150.91 36.9041 152.074 36.0285 151.636" stroke="black" stroke-width="3" stroke-linecap="round"/>
<path d="M33.4003 122.199C32.2083 123.689 32.8746 127.128 32.8746 128.916C32.8746 131.544 32.8746 134.173 32.8746 136.801C32.8746 139.994 32.8746 143.187 32.8746 146.38" stroke="black" stroke-width="3" stroke-linecap="round"/>
<path d="M20.9578 132.624C21.4849 133.889 22.9289 134.791 23.7224 135.915C24.5383 137.071 25.176 138.235 26.1711 139.259C27.436 140.56 28.2168 141.923 29.2781 143.288C30.4551 144.801 31.2491 146.165 32.3324 147.79" stroke="black" stroke-width="3" stroke-linecap="round"/>
<path d="M19.5359 132.624C19.5359 129.301 17.6702 126.049 16.2183 123.145C14.6662 120.041 13.4102 116.657 11.2682 113.903C10.0029 112.276 8.20102 110.392 7.21338 108.663C6.06724 106.657 2.90938 105.532 2 103.713" stroke="black" stroke-width="3" stroke-linecap="round"/>
<path d="M31.8585 121.249C31.6904 119.737 30.1132 118.28 29.5941 116.878C29.0133 115.31 28.389 113.81 27.8299 112.244C26.6711 108.999 24.0921 106.521 22.7482 103.345C22.1737 101.987 20.6315 100.623 19.6412 99.553C18.1051 97.8939 17.0473 95.6473 15.2704 93.9973C13.6876 92.5276 11.4135 90.2955 10.531 88.31C9.75092 86.5548 8.572 84.2182 7.21338 82.8596" stroke="black" stroke-width="3" stroke-linecap="round"/>
<path d="M6.26546 83.8077C5.2617 83.6822 3.89574 80.9004 3.89574 81.9119C3.89574 85.0716 3.89574 88.2312 3.89574 91.3908C3.89574 92.7339 4.42221 93.9746 4.36968 95.2877C4.33484 96.1588 3.6394 96.9283 3.44813 97.789C3.01661 99.7309 3.4218 102.192 3.4218 104.187" stroke="black" stroke-width="3" stroke-linecap="round"/>
<path d="M4.36963 80.4899C6.35363 80.4899 7.9674 79.91 9.84631 79.5684C12.022 79.1728 15.2505 79.5531 17.1661 78.4888C19.2079 77.3545 20.24 77.1723 22.6165 77.1723C23.8947 77.1723 26.5502 76.888 27.1189 75.7505" stroke="black" stroke-width="3" stroke-linecap="round"/>
<path d="M206.309 131.262C215.743 131.262 223.315 123.912 232.595 123.448C237.585 123.198 245.366 122.483 246.961 116.738C250.206 105.057 243.251 94.5963 243.251 82.9526" stroke="black" stroke-width="3" stroke-linecap="round"/>
<path d="M214.124 163.943C216.045 163.943 217.471 162.609 219.176 161.851C222.907 160.193 227.199 159.656 231.135 158.614C238.086 156.774 245.184 155.931 252.053 153.641C258.94 151.346 266.031 149.369 272.222 145.471C276.715 142.642 281.324 143.76 286.233 142.669C288.822 142.094 293.62 141.317 295.114 139.077" stroke="black" stroke-width="3" stroke-linecap="round"/>
<path d="M244.672 120.606C245.171 118.611 255.583 117.764 257.855 117.764C262.02 117.764 266.9 118.484 270.959 117.606C273.992 116.951 277.085 117.518 279.839 115.988C281.795 114.901 283.906 113.502 286.233 113.502C289.47 113.502 290.125 113.163 291.009 116.343C291.744 118.991 293.393 123.476 294.758 125.934C296.6 129.25 296.534 136.917 296.534 140.498" stroke="black" stroke-width="3" stroke-linecap="round"/>
<path d="M296.534 140.498C303.026 140.498 309.749 136.983 316.032 135.367C322.499 133.705 329.766 131.87 335.964 129.486C337.402 128.933 339.428 128.796 340.937 128.46C342.966 128.009 344.548 126.634 346.66 126.25C348.593 125.899 354.666 125.827 355.501 124.158" stroke="black" stroke-width="3" stroke-linecap="round"/>
<path d="M290.851 113.501C294.301 113.118 297.839 110.357 301.508 109.949C304.799 109.584 308.17 107.837 311.454 107.107C320.807 105.029 330.552 104.441 339.477 100.871C345.278 98.5508 352.456 98.6278 358.027 96.0957C359.959 95.2174 362.984 95.7404 365.092 95.7404C367.444 95.7404 368.589 94.5246 370.42 93.6091" stroke="black" stroke-width="3" stroke-linecap="round"/>
<path d="M354.08 124.868C362.383 124.868 368.888 116.343 377.169 116.343C379.623 116.343 374.508 96.1006 373.262 93.6091" stroke="black" stroke-width="3" stroke-linecap="round"/>
<path d="M326.373 61.6394C329.251 65.5974 327.342 71.6 328.859 75.8482C330.022 79.1043 331.819 82.0469 332.925 85.2418C334.726 90.4461 336.319 96.6121 336.319 102.134" stroke="black" stroke-width="3" stroke-linecap="round"/>
<path d="M370.42 93.6093C373.774 93.1901 378.627 90.2145 382.024 88.9915C384.811 87.988 387.448 87.736 390.312 87.0575C395.393 85.8541 402.36 83.2766 406.731 80.4662C410.938 77.7621 416.673 78.9071 421.177 77.2692C424.542 76.0454 428.503 75.2242 431.518 73.717" stroke="black" stroke-width="3" stroke-linecap="round"/>
<path d="M415.888 41.0369C419.15 48.3761 421.37 56.4096 424.413 63.9288C425.134 65.708 433.241 74.6317 430.807 75.8484" stroke="black" stroke-width="3" stroke-linecap="round"/>
<path d="M376.814 116.343C382.572 116.343 388.148 117.223 393.864 116.343C400.401 115.338 406.855 113.169 413.204 111.37C422.725 108.673 432.224 105.121 440.753 100.003C447.64 95.8715 454.584 91.9092 462.777 91.478C465.216 91.3496 469.918 88.6116 472.013 87.2153" stroke="black" stroke-width="3" stroke-linecap="round"/>
<path d="M428.676 75.1378C436.225 75.1378 442.657 72.4679 449.831 71.033C452.425 70.5142 455.294 70.7058 457.804 69.8095C459.247 69.2942 461.311 68.1106 462.777 68.0334C467.429 67.7885 468.998 75.7025 470.75 79.4004C471.999 82.0377 473.842 85.1821 472.013 87.9257" stroke="black" stroke-width="3" stroke-linecap="round"/>
<path d="M463.488 67.323C470.116 67.1337 476.428 63.5885 483.025 63.0999C488.443 62.6985 493.525 61.3592 498.615 59.5082C502.605 58.0571 505.744 55.132 509.666 53.8247" stroke="black" stroke-width="3" stroke-linecap="round"/>
<path d="M499.009 15.4609C503.711 20.685 504.45 29.8368 505.758 36.3794C506.894 42.0568 509.666 48.1495 509.666 53.8246" stroke="black" stroke-width="3" stroke-linecap="round"/>
<path d="M472.013 88.6361C479.113 88.6361 485.559 88.5117 492.458 86.6627C497.179 85.3972 502.046 83.1899 506.824 82.3211C514.354 80.9519 522.62 81.1417 528.848 75.8482C531.708 73.4174 536.362 71.9513 539.86 70.8751C544.545 69.4333 549.523 67.2504 553.003 63.7708" stroke="black" stroke-width="3" stroke-linecap="round"/>
<path d="M507.535 53.8247C510.814 53.2284 514.018 50.6738 517.323 49.72C521.414 48.539 525.377 47.3226 529.558 46.5624C532.184 46.085 541.22 41.777 543.451 43.6023C547.43 46.8573 548.999 52.0229 550.477 56.6665C551.08 58.5613 550.276 62.7628 552.292 63.7709" stroke="black" stroke-width="3" stroke-linecap="round"/>
<path d="M77.9756 105.881C82.0629 105.881 87.0756 104.817 90.909 103.326C93.2022 102.435 95.8733 102.112 98.0543 101.131C99.9726 100.268 101.588 98.023 103.603 97.4186C108.379 95.9858 114.032 96.8298 118.971 96.5005C124.58 96.1266 131.554 93.9559 136.815 91.91C142.005 89.8914 148.722 86.6921 154.418 87.9581C155.32 88.1585 157.191 94.0418 158.29 95.2631C159.574 96.6889 159.898 100.139 161.324 100.852" stroke="black" stroke-width="3" stroke-linecap="round"/>
<path d="M154.139 87.1996C157.405 86.873 160.828 85.2239 164.039 84.4852C167.967 83.5814 171.748 83.2871 175.695 82.8486C181.157 82.2417 185.661 79.1704 190.624 77.1403C195.56 75.1208 200.784 75.2059 205.952 74.2662C210.89 73.3685 215.273 70.8261 220.083 69.7954C222.742 69.2257 225.05 68.5181 227.787 68.5181C230.888 68.5181 232.017 71.1386 234.454 71.951C235.333 72.2441 235.63 71.2848 236.21 70.8333C236.967 70.2445 237.759 73.9509 237.847 74.2662C238.552 76.8056 238.54 80.9 241.08 82.17" stroke="black" stroke-width="3" stroke-linecap="round"/>
<path d="M226.71 66.3625C240.533 61.7546 253.656 57.4425 268.384 57.0217C271.414 56.9351 274.397 55.3628 277.366 54.9061C281.515 54.2676 285.924 54.2128 289.98 53.0299C295.761 51.3438 301.429 49.943 307.024 47.6809C308.717 46.9968 313.735 44.9336 315.447 45.8846C317.748 47.1628 318.962 51.1225 320.836 53.1098C322.154 54.5076 324.429 56.4846 324.429 58.4588" stroke="black" stroke-width="3" stroke-linecap="round"/>
<path d="M314.742 44.6024C318.194 44.2571 322.079 42.3444 325.367 41.2387C328.667 40.1286 331.743 38.3421 335.137 37.5012C346.429 34.7041 358.254 36.8006 369.282 32.8828C374.963 30.8644 380.833 29.3661 386.581 27.5436C391.077 26.1178 395.884 26.1267 400.382 24.7939C401.826 24.3662 403.686 23.5412 405.081 23.4591C405.699 23.4228 405.813 22.5945 406.149 23.5659C406.553 24.7327 407.171 25.9173 407.484 27.0898C408.661 31.5036 410.413 38.1381 414.692 40.2776" stroke="black" stroke-width="3" stroke-linecap="round"/>
<path d="M406.042 23.459C408.294 23.2543 410.617 21.8923 412.663 21.0564C416.428 19.518 420.31 18.3985 424.142 17.052C427.433 15.8957 431.309 15.889 434.713 15.1833C439.431 14.2055 444.103 12.9455 448.809 11.8997C459.536 9.51596 469.728 3.87364 480.844 3.30355C484.153 3.13386 487.373 3.51669 490.615 2.79633C493.127 2.23802 493.778 0.880943 494.673 3.86417C495.931 8.05805 497.831 11.9435 499.745 15.7706" stroke="black" stroke-width="3" stroke-linecap="round"/>
<path d="M505.537 36.0282C507.53 36.0282 508.972 35.0694 510.732 34.1892C514.981 32.0649 520.268 33.0483 524.802 31.8248C528.641 30.7888 532.356 30.3383 536.128 29.0809C539.701 27.8899 539.745 32.9565 541.149 35.386C542.54 37.7942 543.893 40.5274 543.893 43.3842" stroke="black" stroke-width="3" stroke-linecap="round"/>
</svg>
