<svg width="569" height="335" viewBox="0 0 569 335" fill="none" xmlns="http://www.w3.org/2000/svg">
<path d="M36.4622 15.0074C39.5483 15.6951 43.0007 19.7587 45.816 21.3466C49.3519 23.3409 52.2665 26.1157 55.6135 28.353C64.0528 33.9944 74.1378 38.7035 83.3422 42.9961C88.7695 45.5273 94.3504 47.6272 99.6836 50.3733C100.754 50.9246 101.855 51.5127 102.715 52.3751M102.6 52.2629C107.425 54.6819 114.936 58.6725 119.611 61.3093C123.699 63.6148 128.127 65.0052 132.293 67.2036C137.331 69.8623 142.582 72.9105 147.894 74.4324C150.77 75.2562 154.171 77.0605 156.916 78.399C158.901 79.3676 163.233 79.8124 164.384 81.7355C165.047 82.844 168.627 83.2769 169.93 84.108C172.176 85.5416 175.205 87.8906 177.841 88.3712C181.379 89.0161 184.905 92.024 188.193 92.4119C189.914 92.6148 191.57 93.999 193.148 94.4509C194.752 94.9105 196.893 95.6958 198.508 96.4156C207.324 100.344 215.031 103.473 224.795 100.753C229.827 99.3515 237.126 98.0182 241.285 94.2655C242.355 93.2995 243.819 92.1206 245.093 91.411C245.878 90.9733 247.212 90.9802 247.459 90.1135C248.165 87.6341 255.295 85.0053 257.404 83.8856C260.509 82.2373 263.759 79.3906 267.091 78.4361C272.711 76.8259 277.028 68.7425 283.358 68.3898C286.585 68.2101 289.789 65.7207 293.008 65.7207C293.933 65.7207 296.773 65.1026 297.481 64.5345C298.505 63.7134 302.014 64.4591 303.323 64.3862C305.168 64.2834 306.977 63.7189 308.979 63.7189C311.028 63.7189 312.336 64.578 314.303 65.0164C317.102 65.64 317.516 72.7356 316.485 75.0627C314.557 79.4123 312.325 82.7186 308.979 86.0728C306.181 88.8786 306.128 92.7322 303.84 95.6C299.176 101.446 291.734 106.523 285.355 109.91C277.365 114.151 271.389 122.168 265.094 127.778C261.745 130.763 256.826 132.85 253.078 135.452C249.87 137.679 246.304 140.164 242.763 141.939C234.874 145.894 229.065 153.921 221.468 157.954C214.768 161.51 207.177 164.619 200.542 168.853C193.521 173.332 186.823 178.279 180.06 183.162C176.205 185.945 172.941 190.552 168.562 192.504C164.806 194.177 162.138 197.923 158.099 199.325C155.948 200.072 153.762 200.772 151.887 201.846C150.591 202.589 147.99 204.515 146.6 204.515C143.15 204.515 139.846 206.986 136.285 207.184C132.761 207.38 129.421 208.519 125.97 208.519C122.852 208.519 117.563 211.851 115.803 208.519C113.425 204.015 112.723 200.424 113.622 195.47C114.096 192.853 114.402 187.207 116.986 185.683C121.397 183.081 124.332 177.34 129.631 175.822C132.06 175.126 134.223 172.829 136.803 171.967C139.746 170.983 143.253 169.692 145.75 167.815C149.169 165.244 153.472 163.317 156.583 160.437C159.137 158.073 162.45 155.698 165.567 154.135C171.805 151.008 177.306 145.821 183.017 141.791C187.135 138.885 185.527 139.51 186.255 137.685M3.49998 10.4998C2.17388 7.08064 10.4207 4.44059 11.8392 2.66276C19 1.5 19.2634 2.61614 22.487 2.9964C27.3139 3.5658 35.0181 10.1096 37.1277 14.3402" stroke="black" stroke-width="3" stroke-linecap="round"/>
<path d="M215.112 162.102C215.112 165.749 213.054 169.159 213.054 172.877C213.054 175.949 212.369 178.295 212.369 181.296C212.369 182.189 211.539 185 212.369 185C213.882 185 214.932 183.367 216.179 183.017C218.255 182.434 220.552 180.476 222.122 179.088C225.447 176.15 232.38 172.958 233.666 168.537C234.489 165.711 235 163.615 235 160.418C235 157.583 232.943 154.66 232.943 152" stroke="black" stroke-width="3" stroke-linecap="round"/>
<path d="M200 171C200.3 173.773 201.549 177.759 203.481 179.742C205.01 181.312 208.984 181.915 210 184" stroke="black" stroke-width="3" stroke-linecap="round"/>
<path d="M248 142C244.673 142.181 246.502 156.958 246.502 159" stroke="black" stroke-width="3" stroke-linecap="round"/>
<path d="M237 148.816C238.36 148.998 239.467 153.127 240.052 154.317C241.078 156.401 243.443 156.453 244.667 158.099C246.538 160.616 253.633 157.237 255.386 155.539C258.51 152.513 260 150.328 260 145.721C260 141.224 258.722 137.211 258.722 133" stroke="black" stroke-width="3" stroke-linecap="round"/>
<path d="M275 120C275 123.465 273 126.177 273 129.822C273 133.6 272 137.132 272 141" stroke="black" stroke-width="3" stroke-linecap="round"/>
<path d="M263 130.575C263.587 134.89 266.268 135.761 269.336 138.016C272.815 140.572 276.963 137.548 280.324 135.732C283.947 133.774 284.655 129.364 284.655 125.934C284.655 123.803 285.795 114.855 283.933 114" stroke="black" stroke-width="3" stroke-linecap="round"/>
<path d="M317.597 69.9998C319.653 72.1624 317.597 76.4725 317.597 78.9115C317.597 81.0736 317.839 83.4475 318.345 85.577C318.884 87.843 318.379 90.6211 319.054 92.8316C319.401 93.9654 320.798 98.0972 319.37 99.1656C318.76 99.6217 318.882 100.813 318.306 101.486C317.739 102.148 316.977 102.691 316.337 103.29C314.881 104.651 313.684 105.734 311.925 106.604C308.186 108.456 302 103.402 302 99.8285" stroke="black" stroke-width="3" stroke-linecap="round"/>
<path d="M309 86.9998C309 93.2448 312 99.8457 312 106" stroke="black" stroke-width="3" stroke-linecap="round"/>
<path d="M299 101C299 104.581 299 108.162 299 111.744C299 115.493 297.059 118.073 295.344 121.055C291.145 128.36 287.083 112.81 285 111.744" stroke="black" stroke-width="3" stroke-linecap="round"/>
<path d="M292 107C292 111.743 292 116.561 292 121" stroke="black" stroke-width="3" stroke-linecap="round"/>
<path d="M116 211C116 218.283 118 226.126 118 233" stroke="black" stroke-width="3" stroke-linecap="round"/>
<path d="M112.333 201C112.333 207.511 111 213.861 111 220.227C111 223.299 112.234 225.916 113.037 228.664C113.825 231.361 118.163 230.981 120.667 230.981C123.024 230.981 133.271 228.206 133.667 225.115C134.004 222.481 135 220.232 135 217.294C135 213.996 134.333 211.303 134.333 208.169" stroke="black" stroke-width="3" stroke-linecap="round"/>
<path d="M160 199C160.745 200.699 160.054 203.393 160.5 205.381C160.922 207.265 160.667 210.102 160.667 212.175C160.667 215.96 161 220.023 161 224" stroke="black" stroke-width="3" stroke-linecap="round"/>
<path d="M161 224C156.671 224 154.287 217.496 152.044 214.666C149.768 211.794 148 206.775 148 203" stroke="black" stroke-width="3" stroke-linecap="round"/>
<path d="M161 224C171.642 224 177.483 219.573 179.555 210.527C180.579 206.057 179.515 202.128 179.515 197.592C179.515 193.573 177.379 189.606 177.379 186" stroke="black" stroke-width="3" stroke-linecap="round"/>
<path d="M190 176C190 185.605 191 195.46 191 205" stroke="black" stroke-width="3" stroke-linecap="round"/>
<path d="M190 205C186 205 183.436 198.936 183.25 196.034C182.994 192.036 178 188.423 178 185" stroke="black" stroke-width="3" stroke-linecap="round"/>
<path d="M190 205C195.4 204.326 199.26 196.442 199.848 191.161C200.649 183.963 198.029 177.792 198.029 171" stroke="black" stroke-width="3" stroke-linecap="round"/>
<path d="M3.71296 10.9998C3.71296 15.0894 2 18.2774 2 22.5065C2 26.4977 3.27415 29.4489 3.71296 33.1608C4.79229 42.2909 19.3624 46.6471 25.5532 51.439C31.2159 55.822 40.0684 58.2484 46.537 61.2884C51.5407 63.6398 56.998 65.1677 61.9537 67.6336C72.1504 72.7074 83.7044 76.6268 93.4532 82.5971C98.2733 85.549 102.431 88.8781 106.919 92.3517C110.417 95.0596 114.472 99.6647 118.481 102.012C122.277 104.234 124.791 108.78 129.187 110.725C134.68 113.154 140.22 117.636 145.889 119.248C150.585 120.583 154.653 124.668 159.593 125.215C161.224 125.395 167.127 127.768 168.157 129.05C169.873 131.184 175.911 132.292 178.435 133.549C181.407 135.028 184.201 136.607 187 138" stroke="black" stroke-width="3" stroke-linecap="round"/>
<path d="M310 110C317.021 116.242 331.983 119.507 341.152 119.672C352.78 119.88 364.434 119.672 376.063 119.672C383.883 119.672 391.42 118.068 399.205 117.913C405.971 117.778 412.655 117.132 419.182 115.471C425.798 113.786 432.985 112.909 439.753 111.954C443.907 111.367 448.818 111.299 452.807 112.638C463.077 116.083 471.5 122.246 482.476 123.872C492.516 125.36 502.578 124.947 512.738 124.947C524.515 124.947 536.907 125.009 548.539 122.993C552.113 122.374 559.226 120.539 561 117.034" stroke="black" stroke-width="3" stroke-linecap="round"/>
<path d="M320 99.9272C324.097 100.399 328.68 104.131 332.834 105.247C342.363 107.808 352.782 110.414 362.647 110.925C368.878 111.248 374.848 110.434 381.01 110.107C387.388 109.768 393.662 108.452 399.964 108.214C422.11 107.38 443.283 103.193 464.774 97.6252C471.811 95.8022 478.056 98.4159 484.864 99.7226C496.914 102.035 509.061 103.718 521.193 105.452C536.307 107.612 551.713 102.69 567 102.69" stroke="black" stroke-width="3" stroke-linecap="round"/>
<path d="M299 116C302.471 119.098 308.837 120.278 313.154 121.675C320.472 124.043 328.046 125.21 335.495 127.057C351.593 131.049 367.914 132.791 384.172 135.815C398.068 138.4 411.732 137.66 425.599 139.337C438.314 140.876 451.425 139.131 464.116 141.099C482.013 143.873 499.684 146.417 517.872 145.942C529.188 145.647 540.835 142.42 552 142.42" stroke="black" stroke-width="3" stroke-linecap="round"/>
<path d="M290 125C293.285 125.373 297.468 128.557 300.653 129.747C309.632 133.102 319.378 135.985 328.714 138.131C346.317 142.178 363.867 146.321 381.435 150.454C397.142 154.149 411.537 156.787 427.695 155.959C440.814 155.288 453.912 154.091 467.051 154.091C474.883 154.091 481.807 157.161 489.54 157.727C491.422 157.865 493.138 158.527 495.063 158.636C496.17 158.699 500.119 158.836 500.883 159.192C503.781 160.541 506.254 162.171 509.661 162.171C513.602 162.171 516.73 161.168 520.807 162.07C528.396 163.751 535.244 165 543 165" stroke="black" stroke-width="3" stroke-linecap="round"/>
<path d="M283 135C284.474 135.181 286.663 137.059 288.149 137.631C294.964 140.256 302.121 142.288 309.044 144.649C324.622 149.962 341.266 152.508 357.17 156.735C387.697 164.847 417.961 172.229 449.61 173.645C460.871 174.149 472.236 176.228 483.526 176.228C493.908 176.228 503.762 179.581 513.779 181.881C521.414 183.634 529.173 185 537 185" stroke="black" stroke-width="3" stroke-linecap="round"/>
<path d="M269 139C272.218 142.216 276.538 143.89 280.469 146.085C286.24 149.309 291.706 152.862 297.993 154.992C315.867 161.049 332.187 168.092 351.204 169.803C361.995 170.774 372.893 170.073 383.692 171.328C392.82 172.389 405.02 173.119 413.423 177.085C419.413 179.913 424.422 182.997 430.75 185.057C438.701 187.645 447.336 190.142 455.46 192.143C473.454 196.574 491.932 197.387 510 201" stroke="black" stroke-width="3" stroke-linecap="round"/>
<path d="M260 154C274.44 161.191 290.077 164.842 305.316 169.901C321.342 175.222 337.453 179.794 353.903 183.531C363.87 185.795 373 189.859 382.709 192.666C390.608 194.951 398.214 199.021 406.16 200.913C412.036 202.313 418.267 205.642 423.711 208.271C433.794 213.14 443.321 217.074 453.955 220.469C463.832 223.622 474.432 222.823 484 226" stroke="black" stroke-width="3" stroke-linecap="round"/>
<path d="M245 162C249.079 162.745 253.163 167.156 256.753 169.143C263.651 172.96 270.727 176.473 277.84 179.857C291.185 186.207 304.011 191.799 318.284 195.928C345.03 203.666 370.983 212.859 398.383 218.051C406.329 219.557 414.36 221.528 422.333 222.714C431.772 224.119 442.091 225.236 451.222 228.071C460.059 230.815 468.871 232.917 477 237" stroke="black" stroke-width="3" stroke-linecap="round"/>
<path d="M233 171C237.772 179.657 251.085 184.035 259.579 187.093C267.954 190.108 275.869 194.224 284.389 196.848C296.898 200.7 309.749 203.905 321.629 209.524C326.433 211.796 329.583 214.079 334.698 214.872C338.361 215.44 341.765 216.785 345.408 217.397C355.773 219.138 365.862 223.257 375.966 226.063C396.48 231.759 416.74 238.218 437.28 243.393C443.227 244.892 448.919 247.189 454.966 248.543C459.403 249.537 466.271 250.494 470 253" stroke="black" stroke-width="3" stroke-linecap="round"/>
<path d="M210 188C212.922 188.291 215.987 190.807 218.569 192.019C226.555 195.769 234.669 199.073 242.552 203.049C262.686 213.203 284.538 219.786 306.179 225.941C321.436 230.28 336.371 236.309 351.881 239.617C362.472 241.877 373.157 243.44 383.744 245.745C391.562 247.447 399.972 249.369 407.382 252.412C412.005 254.31 417.743 256.337 422.747 256.823C426.411 257.179 429.581 259.439 433.188 260.157C439.241 261.362 445.849 263 452 263" stroke="black" stroke-width="3" stroke-linecap="round"/>
<path d="M188 205C191.833 205.767 196.254 209.658 199.934 211.222C213.68 217.062 227.938 222.426 242.146 227.024C256.975 231.824 272.008 237.442 287.218 240.753C291.368 241.656 295.18 243.866 298.955 245.691C304.093 248.175 309.75 249.557 315.13 251.42C324.454 254.647 334.113 258.085 343.14 262.086C363.12 270.942 383.996 274.411 405.275 278.58C412.565 280.008 418.499 281.745 425 285" stroke="black" stroke-width="3" stroke-linecap="round"/>
<path d="M200 191C203.128 191.351 207.168 195.435 209.94 196.893C217.957 201.11 226.36 204.428 234.716 207.881C252.099 215.063 270.59 220.157 288.422 226.16C304.1 231.438 320.01 235.86 335.896 240.444C345.322 243.164 355.853 245.85 364.727 249.884C377.617 255.742 389.524 263.15 402.757 268.313C408.886 270.705 414.368 274.329 420.807 275.954C425.268 277.081 431.153 277.41 435 280" stroke="black" stroke-width="3" stroke-linecap="round"/>
<path d="M160.042 222C159.584 225.69 162.975 227.927 166.645 230.237C181.327 239.477 198.634 245.138 215.039 250.384C226.847 254.159 238.706 257.755 250.522 261.499C261.158 264.87 272.309 267.063 282.752 270.927C285.496 271.943 294.521 273.333 295.565 276.485C296.631 279.706 299.376 280.345 302.514 281.398C319.343 287.046 336.314 292.359 352.534 299.708C360.519 303.327 369.613 307.194 377.914 309.98C383.698 311.922 389.859 314 396 314" stroke="black" stroke-width="3" stroke-linecap="round"/>
<path d="M180 217C200.175 226.996 221.979 233.876 243.47 240.414C263.259 246.435 283.619 249.758 303.232 256.236C314.452 259.943 325.068 265.631 335.857 270.442C351.011 277.2 366.682 283.216 381.976 289.742C388.345 292.459 394.57 295.1 401.156 297.236C402.871 297.793 404.537 298.033 406 299" stroke="black" stroke-width="3" stroke-linecap="round"/>
<path d="M116 233C116 239.192 124.532 243.043 128.932 246.349C140.887 255.33 153.013 263.74 166.196 270.821C190.117 283.67 216.888 290.531 243.342 295.986C254.319 298.25 264.973 301.618 275.226 306.171C286.281 311.08 296.55 317.302 307.851 321.547C310.978 322.721 329.756 335.162 331 332.671" stroke="black" stroke-width="3" stroke-linecap="round"/>
<path d="M131 226C131.314 228.815 133.912 231.754 136.185 233.177C143.8 237.942 152.121 242.099 160.63 244.976C180.365 251.648 200.106 256.939 220.185 262.28C234.512 266.09 248.534 271.509 262.16 277.323C275.993 283.224 286.957 290.674 297.716 300.821C302.472 305.306 310.507 314.488 317.469 314.488C321.816 314.488 323.14 317.398 326.259 319.797C328.619 321.612 345.295 329.458 347 327.761" stroke="black" stroke-width="3" stroke-linecap="round"/>
<rect x="296.883" y="270.499" width="30.8212" height="30.8212" rx="7" transform="rotate(41.6457 296.883 270.499)" fill="#FDBF61" stroke="black" stroke-width="2"/>
<rect x="319.928" y="189.21" width="30.8212" height="30.8212" rx="7" transform="rotate(30 319.928 189.21)" fill="#B7A7F8" stroke="black" stroke-width="2"/>
<path d="M346 205C346 208.995 343.192 212 340 212C336.808 212 334 208.995 334 205C334 201.004 336.808 198 340 198C343.192 198 346 201.004 346 205Z" fill="#34EB5C" stroke="black" stroke-width="2"/>
<circle cx="429.5" cy="184.5" r="12.5" fill="#D174F1" stroke="black" stroke-width="2"/>
<path d="M401 119C401 126.251 395.559 132 389 132C382.441 132 377 126.251 377 119C377 111.749 382.441 106 389 106C395.559 106 401 111.749 401 119Z" fill="#F7D72C" stroke="black" stroke-width="2"/>
<path d="M346 205C346 208.995 343.192 212 340 212C336.808 212 334 208.995 334 205C334 201.004 336.808 198 340 198C343.192 198 346 201.004 346 205Z" fill="#ADF8BD" stroke="black" stroke-width="2"/>
<path d="M502.263 124.476L510.008 133.743C511.612 135.662 512.07 138.291 511.21 140.639L507.057 151.98C506.197 154.328 504.149 156.039 501.686 156.469L489.788 158.543C487.324 158.972 484.818 158.054 483.214 156.136L475.469 146.868C473.866 144.949 473.408 142.321 474.268 139.972L478.421 128.631C479.281 126.283 481.328 124.572 483.792 124.142L495.69 122.069C498.154 121.639 500.659 122.557 502.263 124.476Z" fill="#6FB74E" stroke="black" stroke-width="2"/>
<path d="M280.931 203.578L290.157 214.618C291.303 215.988 291.63 217.866 291.016 219.543L286.068 233.053C285.454 234.73 283.992 235.953 282.232 236.259L268.058 238.73C266.299 239.036 264.509 238.381 263.363 237.01L254.137 225.971C252.992 224.6 252.665 222.723 253.279 221.045L258.226 207.536C258.84 205.858 260.303 204.636 262.063 204.329L276.236 201.859C277.996 201.552 279.786 202.208 280.931 203.578Z" fill="#BEEEE5" stroke="black" stroke-width="2"/>
<path d="M278.019 211.722L281.784 216.227C282.93 217.597 283.257 219.475 282.643 221.152L280.624 226.665C280.009 228.343 278.547 229.565 276.787 229.871L271.004 230.88C269.244 231.186 267.454 230.531 266.309 229.16L262.544 224.655C261.398 223.285 261.071 221.407 261.685 219.73L263.704 214.217C264.318 212.54 265.781 211.317 267.541 211.011L273.324 210.003C275.084 209.696 276.874 210.351 278.019 211.722Z" fill="white" stroke="black" stroke-width="2"/>
<path d="M323.388 129.743L345.824 146.285C347.063 147.199 346.848 149.111 345.437 149.727L319.894 160.887C318.483 161.503 316.934 160.361 317.106 158.831L320.213 131.13C320.385 129.6 322.148 128.829 323.388 129.743Z" fill="#387BDF" stroke="black" stroke-width="2"/>
<path d="M336.813 129.432L354.006 151.373C354.956 152.585 354.237 154.37 352.713 154.586L325.115 158.505C323.591 158.722 322.404 157.207 322.978 155.779L333.383 129.919C333.958 128.49 335.864 128.22 336.813 129.432Z" fill="#DFBB38" stroke="black" stroke-width="2"/>
<rect x="348.406" y="124.179" width="30.8212" height="30.8212" rx="7" transform="rotate(30 348.406 124.179)" fill="#EB3434" stroke="black" stroke-width="2"/>
<path d="M408.361 106.785L406.197 110.136C405.59 111.075 405.405 112.226 405.685 113.308L406.684 117.17C407.14 118.934 405.193 120.34 403.663 119.351L400.311 117.187C399.372 116.58 398.222 116.395 397.139 116.675L393.277 117.674C391.513 118.13 390.107 116.183 391.096 114.653L393.26 111.301C393.867 110.362 394.053 109.212 393.773 108.129L392.773 104.267C392.317 102.503 394.264 101.097 395.795 102.086L399.146 104.25C400.085 104.857 401.236 105.043 402.318 104.763L406.18 103.763C407.944 103.307 409.35 105.254 408.361 106.785Z" fill="#E3A8F1" stroke="black" stroke-width="2"/>
<rect x="428" y="183" width="16" height="16" rx="5" fill="#7FB069" stroke="black" stroke-width="2"/>
<path d="M263 218C264.023 218.097 265.02 218.737 265.961 219.06C266.929 219.393 267.974 219.569 268.961 219.852C270.719 220.355 272.521 220.816 274.294 221.333C276.485 221.972 278.709 223 281 223" stroke="black" stroke-width="3" stroke-linecap="round"/>
<path d="M265 213C266.107 213 267.356 213.698 268.354 214.042C269.922 214.584 271.49 215.086 273.076 215.581C274.563 216.045 276.248 216.258 277.625 217C278.764 217.613 280.62 219 282 219" stroke="black" stroke-width="3" stroke-linecap="round"/>
<rect x="410.601" y="254.156" width="9.00195" height="39.4191" rx="3" transform="rotate(38.7959 410.601 254.156)" fill="#5522E6" stroke="black" stroke-width="2"/>
<path d="M466 192.964L465.496 221.735C465.422 225.997 471.176 227.404 473.076 223.589L476.642 216.431C477.46 214.788 479.292 213.913 481.084 214.308L490.622 216.413C494.628 217.297 497.21 212.298 494.17 209.543L472.686 190.07C470.139 187.762 466.06 189.528 466 192.964Z" fill="#E63595" stroke="black" stroke-width="2"/>
<path d="M198.185 249.085L194.655 256.885C192.947 260.661 197.402 264.223 200.71 261.727L204.46 258.896C206.725 257.186 210.001 258.314 210.734 261.056L213.477 271.321C214.526 275.248 220.085 275.288 221.19 271.376L228.33 246.114C229.167 243.153 226.487 240.396 223.504 241.147L200.852 246.855C199.669 247.152 198.687 247.974 198.185 249.085Z" fill="#59E635" stroke="black" stroke-width="2"/>
</svg>
