<svg width="144" height="171" viewBox="0 0 144 171" fill="none" xmlns="http://www.w3.org/2000/svg">
<path d="M58.696 83.9907C55.7792 85.0971 53.4069 87.8989 53.944 91.1979C54.6537 95.5574 58.6567 89.9764 59.1514 88.4061C59.3736 87.7008 60.288 84.8997 59.5276 84.2085C58.7382 83.4909 57.8709 87.9286 57.8644 88.0695C57.8112 89.2168 58.2939 93.7232 60.5968 92.1879C61.709 91.4464 62.9882 86.5491 60.676 86.6835C58.3813 86.8169 53.8125 94.2438 55.8844 96.1677C57.7815 97.9293 61.1178 90.1841 60.577 90.2673C59.1508 90.4867 57.1867 97.3755 57.9832 97.3755C59.8741 97.3755 59.9282 92.6158 59.7652 91.4751" stroke="#94EDD8" stroke-width="5" stroke-linecap="round"/>
<path d="M113.225 75.7935C111.277 76.1011 110.164 78.678 109.523 80.2683C108.864 81.9024 107.423 88.2899 110.374 88.9605C112.68 89.4845 113.078 80.2831 112.612 78.9813C111.113 74.8018 107.451 81.1203 106.513 82.6047C104.839 85.2555 103.992 88.1612 105.226 91.1583C105.901 92.7983 109.248 85.0189 109.503 84.2679C110.028 82.7224 109.574 83.6302 109.384 84.4659C109.027 86.0329 108.782 87.8721 109.186 89.4555C109.672 91.359 111.382 92.2177 112.948 90.8811C113.904 90.0658 114.475 88.9842 114.691 87.7527C114.745 87.4378 114.908 84.3958 113.72 85.4955C112.762 86.3828 110.615 92.3532 113.503 90.4059C116.307 88.5143 118.524 84.5853 117.146 81.2385C116.194 78.9265 114.73 82.4019 113.998 83.3175C112.835 84.7703 112.9 80.9936 112.156 81.0999C110.525 81.3329 110.018 89.2013 110.018 90.4851C110.018 91.9241 110.073 97.9237 112.948 96.3063C117.009 94.0221 116.187 88.9327 116.077 85.0599" stroke="#94EDD8" stroke-width="5" stroke-linecap="round"/>
<path d="M52.8851 66.7698C44.4449 66.7698 34.6856 67.3822 31.1227 76.5323C28.8088 82.4749 27.8055 91.2787 31.5803 96.871C35.739 103.032 45.0806 107.143 52.3258 104.956C66.8186 100.58 69.5761 74.3747 53.8004 70.4307" stroke="black" stroke-width="5" stroke-linecap="round"/>
<path d="M84.0034 70.4307C85.415 70.2542 88.9311 65.4915 90.5118 64.4816C95.992 60.9803 103.976 59.5987 109.579 63.7189C116.44 68.7638 128.383 91.4223 114.461 96.3625C107.059 98.9889 91.9886 96.4301 86.9525 89.6507C83.968 85.633 82.1725 73.1766 87.6644 70.4307" stroke="black" stroke-width="5" stroke-linecap="round"/>
<path d="M57.4614 79.583C46.6464 79.583 47.1251 99.584 54.7157 103.379" stroke="black" stroke-width="5" stroke-linecap="round"/>
<path d="M111.461 72.261C107.211 72.261 101.681 79.0024 101.393 83.0405C101.045 87.9133 102.166 90.2816 104.139 94.2268" stroke="black" stroke-width="5" stroke-linecap="round"/>
<path d="M7.12292 84.1592C4.60937 87.2313 3.79029 95.4129 3.5128 99.159C3.23515 102.907 4.82631 104.277 6.20768 107.04" stroke="black" stroke-width="5" stroke-linecap="round"/>
<path d="M15.3601 97.8879L14.4448 98.8032" stroke="black" stroke-width="5" stroke-linecap="round"/>
<path d="M133.426 65.8545C140.414 65.8545 144.083 82.9497 138.002 85.9898" stroke="black" stroke-width="5" stroke-linecap="round"/>
<path d="M127.02 76.8374H126.104" stroke="black" stroke-width="5" stroke-linecap="round"/>
<path d="M18.106 60.3629C21.157 59.5309 23.1915 55.8078 25.733 54.058C29.1931 51.6756 33.4154 56.649 37.0209 57.1088C45.0465 58.1321 50.7574 52.3802 57.9698 50.4987C60.7433 49.7752 64.3274 52.9076 67.7324 52.4309C76.8631 51.1526 85.9232 49.331 95.0879 48.0072C108.294 46.0997 117.913 43.6324 125.189 31.9905" stroke="black" stroke-width="5" stroke-linecap="round"/>
<path d="M13.5298 47.5496C16.8252 44.2542 18.2115 40.0043 22.2754 43.3293C24.2162 44.9172 25.9006 41.6156 26.7499 40.3802C28.3188 38.0982 33.0899 38.0371 35.4956 37.4819" stroke="black" stroke-width="5" stroke-linecap="round"/>
<path d="M46.4785 42.0581C52.832 40.0159 58.9582 37.885 64.7833 34.5328C69.4733 31.8338 73.8764 27.6515 78.9187 25.6346C84.6516 23.3415 92.6371 15.4654 95.9015 10.0247" stroke="black" stroke-width="5" stroke-linecap="round"/>
<path d="M87.6641 31.9905C92.7953 31.9905 96.8737 29.1876 100.376 25.6855C101.881 24.1801 102.821 23.7146 104.901 23.2449C110.862 21.8988 116.061 20.0801 121.528 17.3467" stroke="black" stroke-width="5" stroke-linecap="round"/>
<path d="M25.4277 20.0925C35.9665 20.0925 45.4552 15.0004 55.0205 11.1434C59.3893 9.38183 65.4125 8.37124 70.0712 8.19433C75.7393 7.97908 78.9825 4.8546 84.0032 2.70288" stroke="black" stroke-width="5" stroke-linecap="round"/>
<path d="M79.1147 104.382C82.3258 107.914 85.8723 114.544 81.7752 118.736C78.674 121.91 75.4702 117.646 74.6599 114.405" stroke="black" stroke-width="5" stroke-linecap="round"/>
<path d="M62.4568 131.406C69.7941 138.033 82.9157 141.55 92.2316 137.685C102.704 133.34 106.222 123.215 107.171 112.775" stroke="black" stroke-width="5" stroke-linecap="round"/>
<path d="M38.4385 157.06C56.1553 166.042 77.5465 171.7 97.1927 165.977C116.593 160.326 124.952 140.14 133.692 123.787" stroke="black" stroke-width="5" stroke-linecap="round"/>
</svg>
