<svg width="32" height="32" viewBox="0 0 32 32" fill="none" xmlns="http://www.w3.org/2000/svg">
<path d="M18.8666 2.21689C14.8039 1.53898 9.55119 1.99656 6.09633 4.40303C2.45795 6.93733 1.33594 10.7026 1.33594 14.8965C1.33594 17.1697 1.3498 19.4955 2.16423 21.6512C3.06101 24.0249 4.62643 26.0385 6.66067 27.585C11.0929 30.9547 17.8804 31.197 22.8988 28.9324C28.0297 26.617 30.383 22.2593 30.3352 16.8685C30.3082 13.819 29.3128 10.3917 27.3861 7.96331C26.6274 7.00701 25.8439 6.07538 24.965 5.23287C23.9326 4.24324 22.8502 3.62078 21.6518 2.85935C20.4316 2.08402 18.8559 1.41382 17.392 1.41382" stroke="#1D4ED8" stroke-width="2" stroke-linecap="round"/>
<path d="M8.82742 7.90357C8.2503 7.90357 7.8208 8.62579 7.8208 9.144C7.8208 9.53148 8.02994 9.81582 8.40407 9.93252C8.80623 10.058 9.13344 9.70699 9.37306 9.43451C9.60989 9.16519 10.23 8.11149 9.6741 7.83901C9.20841 7.61075 9.25025 8.91896 9.33543 9.13016C9.66194 9.9398 9.77306 8.44404 9.53769 8.58603C9.28406 8.73904 8.86051 9.37045 8.96383 9.67429C9.06546 9.97319 9.34607 9.63951 9.41069 9.50829C9.56808 9.18868 9.52613 8.67605 9.16609 8.50303C8.61698 8.23915 8.60113 9.3374 8.67689 9.60973C8.76027 9.90944 9.11163 10.4371 9.50476 10.2553C10.0075 10.0228 9.906 9.4949 9.84344 9.0656" stroke="#1D4ED8" stroke-width="2" stroke-linecap="round"/>
<path d="M15.6852 13.0498C16.128 13.484 16.2807 13.8936 16.5695 14.4193C16.7258 14.704 16.6751 15.4781 16.4095 15.7013C15.9199 16.1127 15.5155 15.8718 15.0078 15.6229" stroke="#1D4ED8" stroke-width="2" stroke-linecap="round"/>
<path d="M19.4496 6.84937C19.3158 7.04998 18.9882 7.77789 19.5357 7.77789C19.7352 7.77789 19.7311 7.50585 19.6075 7.40742C19.2479 7.12103 18.8792 7.38104 18.823 7.77789C18.6947 8.68301 20.3559 8.77557 20.2963 7.78258C20.2828 7.55739 19.9951 7.11189 19.7271 7.37459C19.4894 7.60763 19.8439 7.99075 20.1193 7.92796C20.8878 7.75276 19.5294 6.45664 19.3827 7.35583C19.3479 7.5689 19.5484 7.82492 19.7893 7.72162C19.9576 7.64944 20.034 7.0901 19.8323 7.12605C19.6583 7.15707 19.4772 7.68097 19.5549 7.82479C19.614 7.93428 19.8706 7.37032 19.8706 7.28549C19.8706 7.02046 19.6528 7.49346 19.641 7.55279C19.5953 7.78213 19.7551 7.63917 19.7941 7.52466" stroke="#1D4ED8" stroke-width="2" stroke-linecap="round"/>
<path d="M8.06431 19.1838C7.59371 20.4525 8.82129 21.8474 9.62424 22.6727C10.8025 23.8837 12.3639 24.4583 14.0378 24.4583C15.1989 24.4583 16.4468 24.3079 17.5079 23.8036C18.0356 23.5528 18.4477 23.194 18.909 22.8925" stroke="#1D4ED8" stroke-width="2" stroke-linecap="round"/>
</svg>
